<svg width="390" height="402" viewBox="0 0 390 402" fill="none" xmlns="http://www.w3.org/2000/svg">
<path d="M55.8105 212.841C-18.6035 256.112 -18.6035 326.276 55.8105 369.547C130.225 412.817 250.879 412.817 325.294 369.547C399.708 326.276 399.708 256.112 325.294 212.841C250.879 169.57 130.225 169.57 55.8105 212.841Z" fill="#FAFAFA"/>
<path d="M176.462 261.922L18.6643 353.682C17.2698 354.489 14.8424 354.393 13.2414 353.457L2.86903 347.423C1.25938 346.486 1.08723 345.073 2.48168 344.267L160.27 252.506C161.665 251.7 164.092 251.795 165.693 252.732L176.066 258.766C177.675 259.702 177.847 261.115 176.453 261.922H176.462Z" fill="#E0E0E0"/>
<path d="M282.83 365.679C317.248 365.679 345.15 349.454 345.15 329.44C345.15 309.425 317.248 293.2 282.83 293.2C248.411 293.2 220.51 309.425 220.51 329.44C220.51 349.454 248.411 365.679 282.83 365.679Z" fill="#E0E0E0"/>
<path d="M132.653 374.089L252.533 304.35C254.1 303.439 254.1 301.957 252.533 301.047L191.642 265.674C190.075 264.764 187.536 264.764 185.969 265.674L66.089 335.413C64.5224 336.324 64.5224 337.806 66.089 338.717L126.98 374.089C128.547 375 131.086 375 132.653 374.089Z" fill="#E0E0E0"/>
<path d="M317.003 304.508L330.741 312.502C330.56 307.56 330.13 300.217 330.81 295.266C334.959 265.017 346.657 255.039 352.226 240.317C358.088 224.816 350.935 219.822 341.656 222.614C333.375 225.102 321.402 237.439 317.631 260.015C315.126 275.031 315.565 291.348 317.003 304.517V304.508Z" fill="#0C77B9"/>
<path opacity="0.65" d="M317.003 304.508L330.741 312.502C330.56 307.56 330.13 300.217 330.81 295.266C334.959 265.017 346.657 255.039 352.226 240.317C358.088 224.816 350.935 219.822 341.656 222.614C333.375 225.102 321.402 237.439 317.631 260.015C315.126 275.031 315.565 291.348 317.003 304.517V304.508Z" fill="white"/>
<path d="M324.289 308.744L325.666 309.542C320.751 274.273 332.725 243.686 344.543 231.054C344.767 230.812 344.758 230.43 344.517 230.196C344.268 229.971 343.889 229.979 343.665 230.222C331.855 242.863 319.89 273.657 324.289 308.744Z" fill="white"/>
<path d="M326.884 310.254L334.613 314.753C338.728 302.564 342.946 297.674 348.188 289.663C352.965 282.363 358.517 277.846 361.47 272.714C364.086 268.171 366.049 262.466 362.167 259.015C355.986 253.519 347.921 259.336 342.369 265.622C337.574 271.058 327.934 285.519 326.875 310.262L326.884 310.254Z" fill="#0C77B9"/>
<path opacity="0.3" d="M326.884 310.254L334.613 314.753C338.728 302.564 342.946 297.674 348.188 289.663C352.965 282.363 358.517 277.846 361.47 272.714C364.086 268.171 366.049 262.466 362.167 259.015C355.986 253.519 347.921 259.336 342.369 265.622C337.574 271.058 327.934 285.519 326.875 310.262L326.884 310.254Z" fill="white"/>
<path d="M330.053 312.096L331.18 312.755C334.425 293.474 347.432 271.158 355.514 265.895C355.799 265.713 355.885 265.323 355.695 265.037C355.514 264.742 355.136 264.664 354.843 264.855C346.476 270.317 333.504 292.52 330.053 312.105V312.096Z" fill="white"/>
<path d="M158.353 0.658489L13.4673 84.8071C11.9696 85.6741 10.7559 87.7895 10.7559 89.5322V342.81C10.7559 344.553 11.9696 346.66 13.4673 347.527L14.0182 347.839C15.5159 348.706 17.9433 348.697 19.4411 347.83L164.327 263.569C165.825 262.702 167.038 260.578 167.038 258.844V5.67828C167.038 3.93566 165.825 1.82891 164.327 0.961931L163.776 0.649819C162.278 -0.217156 159.851 -0.208486 158.353 0.658489Z" fill="#0C77B9"/>
<path opacity="0.45" d="M158.353 0.658489L13.4673 84.8071C11.9696 85.6741 10.7559 87.7895 10.7559 89.5322V342.81C10.7559 344.553 11.9696 346.66 13.4673 347.527L14.0182 347.839C15.5159 348.706 17.9433 348.697 19.4411 347.83L164.327 263.569C165.825 262.702 167.038 260.578 167.038 258.844V5.67828C167.038 3.93566 165.825 1.82891 164.327 0.961931L163.776 0.649819C162.278 -0.217156 159.851 -0.208486 158.353 0.658489Z" fill="black"/>
<path d="M167.047 259.041C167.047 261.443 165.377 262.969 163.303 264.165L20.4827 347.213C18.4254 348.409 16.7383 347.447 16.7383 345.037V94.1599C16.7383 91.4809 18.1586 89.0014 20.4654 87.6575L163.294 4.57527C164.955 3.60426 167.038 4.81802 167.038 6.75138V259.041H167.047Z" fill="#0C77B9"/>
<path opacity="0.3" d="M167.047 259.041C167.047 261.443 165.377 262.969 163.303 264.165L20.4827 347.213C18.4254 348.409 16.7383 347.447 16.7383 345.037V94.1599C16.7383 91.4809 18.1586 89.0014 20.4654 87.6575L163.294 4.57527C164.955 3.60426 167.038 4.81802 167.038 6.75138V259.041H167.047Z" fill="black"/>
<path d="M167.05 5.67761V6.75266C167.05 4.8193 164.967 3.61421 163.297 4.57655L20.4689 87.6588C19.3068 88.3177 18.3858 89.2801 17.7488 90.3985C17.7316 90.4331 17.7144 90.4505 17.7058 90.4852L11.5254 86.8872C12.0246 86.0116 12.7047 85.2486 13.4794 84.8065L158.356 0.657822C159.854 -0.217823 162.29 -0.217824 163.779 0.649152L164.33 0.969934C165.828 1.82824 167.05 3.94366 167.05 5.68628V5.67761Z" fill="#0C77B9"/>
<path opacity="0.2" d="M167.05 5.67761V6.75266C167.05 4.8193 164.967 3.61421 163.297 4.57655L20.4689 87.6588C19.3068 88.3177 18.3858 89.2801 17.7488 90.3985C17.7316 90.4331 17.7144 90.4505 17.7058 90.4852L11.5254 86.8872C12.0246 86.0116 12.7047 85.2486 13.4794 84.8065L158.356 0.657822C159.854 -0.217823 162.29 -0.217824 163.779 0.649152L164.33 0.969934C165.828 1.82824 167.05 3.94366 167.05 5.68628V5.67761Z" fill="black"/>
<path opacity="0.25" d="M163.506 247.989C163.506 250.46 161.785 252.037 159.65 253.269L24.6629 331.765C22.5368 333.004 20.8066 331.999 20.8066 329.519V108.076C20.8066 105.31 22.27 102.762 24.6457 101.374L159.65 22.8437C161.363 21.8467 163.506 23.0952 163.506 25.0892V247.989Z" fill="black"/>
<path d="M24.2745 104.322L158.762 26.1116C159.399 25.7388 160.432 25.7388 161.069 26.1116L162.369 26.8659C163.006 27.2387 163.522 28.1317 163.522 28.8773V251.413C163.522 252.15 163.006 253.051 162.369 253.424L27.8726 331.625C27.2356 331.998 26.2027 331.998 25.5743 331.625L24.2745 330.871C23.6376 330.498 23.1211 329.605 23.1211 328.86V106.324C23.1211 105.587 23.6376 104.686 24.2745 104.313V104.322Z" fill="#F5F5F5"/>
<path d="M27.5983 331.754C27.4692 331.806 27.3228 331.841 27.1765 331.867C27.1076 331.876 27.0216 331.884 26.9527 331.893C26.7203 331.91 26.4793 331.902 26.2555 331.867C26.1005 331.841 25.9628 331.806 25.8337 331.754C25.7476 331.72 25.6529 331.676 25.5755 331.633L24.2843 330.887C23.6473 330.514 23.1309 329.621 23.1309 328.876V106.332C23.1309 105.959 23.2514 105.543 23.4666 105.188L27.0646 107.277C26.858 107.641 26.7289 108.057 26.7289 108.421V330.957C26.7289 331.589 27.099 331.902 27.6069 331.754H27.5983Z" fill="#E0E0E0"/>
<path d="M162.369 26.8659L161.069 26.1116C160.432 25.7388 159.399 25.7388 158.771 26.1116L24.2745 104.322C23.6376 104.694 23.1211 105.587 23.1211 106.333V136.356L26.7191 138.463L163.514 58.9093V28.8686C163.514 28.1317 162.997 27.23 162.36 26.8572L162.369 26.8659Z" fill="#0C77B9"/>
<path opacity="0.4" d="M162.369 26.8659L161.069 26.1116C160.432 25.7388 159.399 25.7388 158.771 26.1116L24.2745 104.322C23.6376 104.694 23.1211 105.587 23.1211 106.333V136.356L26.7191 138.463L163.514 58.9093V28.8686C163.514 28.1317 162.997 27.23 162.36 26.8572L162.369 26.8659Z" fill="white"/>
<path d="M163.467 28.5218C163.329 28.045 162.882 27.8976 162.357 28.201L27.8689 106.411C27.5504 106.602 27.2578 106.914 27.0512 107.278L23.4531 105.188C23.6597 104.824 23.9524 104.504 24.2709 104.322L158.767 26.1116C159.395 25.7388 160.437 25.7388 161.065 26.1116L162.365 26.8659C162.907 27.1867 163.355 27.8716 163.476 28.5218H163.467Z" fill="#0C77B9"/>
<path opacity="0.6" d="M163.467 28.5218C163.329 28.045 162.882 27.8976 162.357 28.201L27.8689 106.411C27.5504 106.602 27.2578 106.914 27.0512 107.278L23.4531 105.188C23.6597 104.824 23.9524 104.504 24.2709 104.322L158.767 26.1116C159.395 25.7388 160.437 25.7388 161.065 26.1116L162.365 26.8659C162.907 27.1867 163.355 27.8716 163.476 28.5218H163.467Z" fill="white"/>
<path d="M23.1211 106.334V136.366L26.7191 138.455V108.414C26.7191 108.05 26.8483 107.634 27.0548 107.27L23.4568 105.181C23.2416 105.536 23.1211 105.952 23.1211 106.325V106.334Z" fill="#0C77B9"/>
<path d="M53.9909 147.535L136.376 99.496C136.737 99.2879 137.03 99.4526 137.03 99.8774V100.736C137.03 101.161 136.737 101.672 136.376 101.88L53.9823 149.919C53.6208 150.127 53.3281 149.963 53.3281 149.538V148.68C53.3281 148.255 53.6208 147.743 53.9823 147.535H53.9909Z" fill="#0C77B9"/>
<path d="M57.3438 183.156V184.37C57.3438 185.029 57.8 185.289 58.3681 184.968L112.666 153.436C113.234 153.107 113.69 152.309 113.69 151.65V150.436C113.69 149.777 113.234 149.517 112.666 149.838L58.3681 181.379C57.8 181.708 57.3438 182.506 57.3438 183.165V183.156Z" fill="#E0E0E0"/>
<path d="M57.3438 190.797V192.011C57.3438 192.67 57.8 192.93 58.3681 192.609L151.625 138.406C152.193 138.076 152.649 137.279 152.649 136.62V135.406C152.649 134.747 152.193 134.487 151.625 134.808L58.3681 189.011C57.8 189.341 57.3438 190.138 57.3438 190.797Z" fill="#E0E0E0"/>
<path d="M57.3438 198.059V199.273C57.3438 199.932 57.8 200.192 58.3681 199.871L151.625 145.668C152.193 145.338 152.649 144.54 152.649 143.882V142.668C152.649 142.009 152.193 141.749 151.625 142.07L58.3681 196.273C57.8 196.602 57.3438 197.4 57.3438 198.059Z" fill="#E0E0E0"/>
<path d="M36.1743 213.242C36.0796 213.242 35.9935 213.216 35.9075 213.172C35.7439 213.077 35.6406 212.904 35.6406 212.713V195.174C35.6406 194.983 35.7439 194.81 35.9075 194.714L50.885 186.01C51.0485 185.915 51.2465 185.915 51.41 186.01C51.5736 186.105 51.6769 186.279 51.6769 186.469V204.008C51.6769 204.199 51.5736 204.373 51.41 204.468L36.4411 213.172C36.3637 213.224 36.269 213.242 36.1743 213.242ZM36.6994 195.477V211.794L50.6181 203.696V187.38L36.6994 195.477Z" fill="#455A64"/>
<path d="M43.4705 205.038L39.9844 201.665L41.1464 199.177L43.1348 201.102L51.7167 182.8L53.2145 184.256L43.4705 205.038Z" fill="#0C77B9"/>
<path d="M57.3438 210.615V211.829C57.3438 212.488 57.8 212.748 58.3681 212.427L112.666 180.895C113.234 180.566 113.69 179.768 113.69 179.109V177.895C113.69 177.236 113.234 176.976 112.666 177.297L58.3681 208.838C57.8 209.167 57.3438 209.965 57.3438 210.624V210.615Z" fill="#E0E0E0"/>
<path d="M57.3438 218.249V219.463C57.3438 220.122 57.8 220.382 58.3681 220.061L151.625 165.858C152.193 165.529 152.649 164.731 152.649 164.072V162.858C152.649 162.199 152.193 161.939 151.625 162.26L58.3681 216.463C57.8 216.793 57.3438 217.59 57.3438 218.249Z" fill="#E0E0E0"/>
<path d="M57.3438 225.525V226.738C57.3438 227.397 57.8 227.657 58.3681 227.337L151.625 173.133C152.193 172.804 152.649 172.006 152.649 171.347V170.134C152.649 169.475 152.193 169.215 151.625 169.535L58.3681 223.739C57.8 224.068 57.3438 224.866 57.3438 225.525Z" fill="#E0E0E0"/>
<path d="M36.1743 240.697C36.0796 240.697 35.9935 240.671 35.9075 240.627C35.7439 240.532 35.6406 240.359 35.6406 240.168V222.629C35.6406 222.438 35.7439 222.265 35.9075 222.17L50.885 213.465C51.0485 213.37 51.2465 213.37 51.41 213.465C51.5736 213.56 51.6769 213.734 51.6769 213.925V231.464C51.6769 231.654 51.5736 231.828 51.41 231.923L36.4411 240.627C36.3637 240.679 36.269 240.697 36.1743 240.697ZM36.6994 222.932V239.249L50.6181 231.151V214.835L36.6994 222.932Z" fill="#455A64"/>
<path d="M43.4705 232.497L39.9844 229.124L41.1464 226.636L43.1348 228.561L51.7167 210.268L53.2145 211.715L43.4705 232.497Z" fill="#0C77B9"/>
<path d="M57.3438 238.081V239.295C57.3438 239.954 57.8 240.214 58.3681 239.893L112.666 208.361C113.234 208.031 113.69 207.234 113.69 206.575V205.361C113.69 204.702 113.234 204.442 112.666 204.763L58.3681 236.304C57.8 236.633 57.3438 237.431 57.3438 238.09V238.081Z" fill="#E0E0E0"/>
<path d="M57.3438 245.708V246.922C57.3438 247.581 57.8 247.841 58.3681 247.52L151.625 193.317C152.193 192.987 152.649 192.19 152.649 191.531V190.317C152.649 189.658 152.193 189.398 151.625 189.719L58.3681 243.922C57.8 244.252 57.3438 245.049 57.3438 245.708Z" fill="#E0E0E0"/>
<path d="M57.3438 252.982V254.196C57.3438 254.854 57.8 255.115 58.3681 254.794L151.625 200.59C152.193 200.261 152.649 199.463 152.649 198.804V197.591C152.649 196.932 152.193 196.672 151.625 196.992L58.3681 251.196C57.8 251.525 57.3438 252.323 57.3438 252.982Z" fill="#E0E0E0"/>
<path d="M36.1743 268.155C36.0796 268.155 35.9935 268.129 35.9075 268.085C35.7439 267.99 35.6406 267.817 35.6406 267.626V250.087C35.6406 249.896 35.7439 249.723 35.9075 249.628L50.885 240.923C51.0485 240.828 51.2465 240.828 51.41 240.923C51.5736 241.018 51.6769 241.192 51.6769 241.383V258.921C51.6769 259.112 51.5736 259.286 51.41 259.381L36.4411 268.085C36.3637 268.129 36.269 268.155 36.1743 268.155ZM36.6994 250.39V266.707L50.6181 258.609V242.293L36.6994 250.39Z" fill="#455A64"/>
<path d="M43.4705 259.962L39.9844 256.58L41.1464 254.101L43.1348 256.017L51.7167 237.724L53.2145 239.18L43.4705 259.962Z" fill="#0C77B9"/>
<path d="M57.3438 265.539V266.753C57.3438 267.411 57.8 267.672 58.3681 267.351L112.666 235.819C113.234 235.489 113.69 234.692 113.69 234.033V232.819C113.69 232.16 113.234 231.9 112.666 232.221L58.3681 263.762C57.8 264.091 57.3438 264.889 57.3438 265.548V265.539Z" fill="#E0E0E0"/>
<path d="M57.3438 273.175V274.389C57.3438 275.048 57.8 275.308 58.3681 274.987L151.625 220.784C152.193 220.454 152.649 219.657 152.649 218.998V217.784C152.649 217.125 152.193 216.865 151.625 217.186L58.3681 271.389C57.8 271.719 57.3438 272.516 57.3438 273.175Z" fill="#E0E0E0"/>
<path d="M57.3438 280.438V281.652C57.3438 282.31 57.8 282.571 58.3681 282.25L151.625 228.046C152.193 227.717 152.649 226.919 152.649 226.26V225.047C152.649 224.388 152.193 224.128 151.625 224.448L58.3681 278.652C57.8 278.981 57.3438 279.779 57.3438 280.438Z" fill="#E0E0E0"/>
<path d="M36.1743 295.62C36.0796 295.62 35.9935 295.594 35.9075 295.55C35.7439 295.455 35.6406 295.282 35.6406 295.091V277.552C35.6406 277.361 35.7439 277.188 35.9075 277.092L50.885 268.388C51.0485 268.293 51.2465 268.293 51.41 268.388C51.5736 268.483 51.6769 268.657 51.6769 268.847V286.386C51.6769 286.577 51.5736 286.75 51.41 286.846L36.4411 295.55C36.3637 295.602 36.269 295.62 36.1743 295.62ZM36.6994 277.855V294.172L50.6181 286.074V269.758L36.6994 277.855Z" fill="#455A64"/>
<path d="M43.4705 287.419L39.9844 284.046L41.1464 281.558L43.1348 283.483L51.7167 265.181L53.2145 266.637L43.4705 287.419Z" fill="#0C77B9"/>
<path d="M35.6492 169.426V170.639C35.6492 171.298 36.1054 171.558 36.6736 171.238L151.621 104.377C152.19 104.047 152.646 103.249 152.646 102.591V101.377C152.646 100.718 152.19 100.458 151.621 100.779L36.6649 167.648C36.0968 167.978 35.6406 168.775 35.6406 169.434L35.6492 169.426Z" fill="#E0E0E0"/>
<path d="M35.6492 177.142V178.356C35.6492 179.015 36.1054 179.275 36.6736 178.954L151.621 112.093C152.19 111.764 152.646 110.966 152.646 110.307V109.094C152.646 108.435 152.19 108.175 151.621 108.495L36.6649 175.357C36.0968 175.686 35.6406 176.484 35.6406 177.142H35.6492Z" fill="#E0E0E0"/>
<path d="M35.6492 184.858V186.072C35.6492 186.731 36.1054 186.991 36.6736 186.67L151.621 119.809C152.19 119.48 152.646 118.682 152.646 118.023V116.809C152.646 116.15 152.19 115.89 151.621 116.211L36.6649 183.072C36.0968 183.402 35.6406 184.199 35.6406 184.858H35.6492Z" fill="#E0E0E0"/>
<path d="M35.6492 305.866V307.08C35.6492 307.739 36.1054 307.999 36.6736 307.678L151.621 240.817C152.19 240.487 152.646 239.69 152.646 239.031V237.817C152.646 237.158 152.19 236.898 151.621 237.219L36.6649 304.08C36.0968 304.41 35.6406 305.207 35.6406 305.866H35.6492Z" fill="#E0E0E0"/>
<path d="M35.6492 313.573V314.787C35.6492 315.446 36.1054 315.706 36.6736 315.385L151.621 248.524C152.19 248.195 152.646 247.397 152.646 246.738V245.524C152.646 244.865 152.19 244.605 151.621 244.926L36.6649 311.787C36.0968 312.117 35.6406 312.914 35.6406 313.573H35.6492Z" fill="#E0E0E0"/>
<path d="M36.8715 116.74L83.9646 89.3346C84.6446 88.9358 85.1955 89.2566 85.1955 90.0456V90.4097C85.1955 91.1986 84.6446 92.161 83.9646 92.5511L36.8715 119.956C36.1915 120.355 35.6406 120.034 35.6406 119.245V118.881C35.6406 118.092 36.1915 117.13 36.8715 116.74Z" fill="#FAFAFA"/>
<path d="M36.8715 123.222L64.8898 106.931C65.5698 106.533 66.1207 106.853 66.1207 107.642V108.006C66.1207 108.795 65.5698 109.758 64.8898 110.148L36.8715 126.438C36.1915 126.837 35.6406 126.516 35.6406 125.727V125.363C35.6406 124.574 36.1915 123.612 36.8715 123.222Z" fill="#FAFAFA"/>
<path d="M131.094 61.5364L152.036 49.3467C152.372 49.1473 152.647 49.312 152.647 49.7022V50.5085C152.647 50.8986 152.372 51.3841 152.036 51.5748L131.094 63.7645C130.758 63.9639 130.482 63.7992 130.482 63.4091V62.6028C130.482 62.2126 130.758 61.7271 131.094 61.5364Z" fill="#0C77B9"/>
<path d="M131.094 71.2649L152.036 59.0752C152.372 58.8758 152.647 59.0406 152.647 59.4307V60.237C152.647 60.6271 152.372 61.1126 152.036 61.3034L131.094 73.493C130.758 73.6924 130.482 73.5277 130.482 73.1376V72.3313C130.482 71.9411 130.758 71.4556 131.094 71.2649Z" fill="#0C77B9"/>
<path d="M135.41 63.8582L152.032 54.1914C152.367 53.992 152.643 54.1568 152.643 54.5469V55.3532C152.643 55.7433 152.367 56.2288 152.032 56.4196L135.41 66.0863C135.074 66.2858 134.799 66.121 134.799 65.7309V64.9246C134.799 64.5345 135.074 64.049 135.41 63.8582Z" fill="#0C77B9"/>
<path d="M55.5967 143.682C55.4934 143.743 55.4073 143.734 55.3385 143.665C55.261 143.596 55.2266 143.483 55.2266 143.318V129.447C55.2266 129.291 55.261 129.134 55.3385 128.978C55.4159 128.822 55.502 128.71 55.5967 128.658L56.7157 128.007C56.819 127.947 56.9051 127.955 56.9825 128.025C57.06 128.094 57.0944 128.207 57.0944 128.372V142.243C57.0944 142.399 57.06 142.555 56.9825 142.72C56.9051 142.876 56.819 142.989 56.7157 143.041L55.5967 143.691V143.682Z" fill="#455A64"/>
<path d="M65.5337 137.899C65.3787 137.995 65.2582 137.995 65.1721 137.917C65.0861 137.839 65.0258 137.769 64.9914 137.717L61.1179 131.042V139.885C61.1179 140.041 61.0835 140.197 61.006 140.362C60.9371 140.518 60.8424 140.63 60.7477 140.682L59.6287 141.333C59.5255 141.393 59.4394 141.385 59.3619 141.315C59.293 141.246 59.25 141.133 59.25 140.969V127.097C59.25 126.941 59.2844 126.785 59.3619 126.629C59.4394 126.473 59.5255 126.36 59.6287 126.308L60.6014 125.744C60.7564 125.649 60.8769 125.649 60.9629 125.727C61.049 125.805 61.1093 125.874 61.1437 125.927L65.0172 132.602V123.759C65.0172 123.603 65.0516 123.447 65.1291 123.291C65.2066 123.135 65.2926 123.022 65.3873 122.97L66.5063 122.32C66.6096 122.259 66.6957 122.268 66.7732 122.337C66.8506 122.407 66.8851 122.519 66.8851 122.684V136.556C66.8851 136.712 66.8506 136.868 66.7732 137.032C66.6957 137.189 66.6096 137.301 66.5063 137.353L65.5337 137.917V137.899Z" fill="#455A64"/>
<path d="M72.3682 118.687C72.988 118.331 73.5302 118.14 74.0037 118.123C74.4771 118.106 74.8644 118.201 75.1829 118.409C75.5014 118.617 75.7338 118.903 75.8974 119.268C76.0609 119.64 76.147 120.03 76.1642 120.429C76.1728 120.594 76.1384 120.759 76.0609 120.906C75.9835 121.062 75.8888 121.166 75.7941 121.227L74.8214 121.79C74.6665 121.886 74.546 121.903 74.4685 121.86C74.391 121.816 74.3222 121.73 74.2533 121.608C74.1156 121.331 73.9004 121.14 73.6249 121.045C73.3409 120.941 72.9277 121.053 72.3768 121.374C72.1358 121.513 71.912 121.686 71.6882 121.894C71.473 122.103 71.2836 122.319 71.1201 122.571C70.9565 122.813 70.8274 123.074 70.7413 123.342C70.6466 123.611 70.6036 123.88 70.6036 124.157C70.6036 124.487 70.6466 124.729 70.7327 124.886C70.8188 125.042 70.9651 125.137 71.1803 125.163C71.3869 125.189 71.6624 125.172 72.0067 125.102C72.351 125.033 72.7728 124.938 73.2806 124.816C73.8315 124.677 74.3136 124.617 74.7095 124.634C75.1141 124.651 75.4412 124.764 75.6908 124.964C75.9404 125.163 76.1384 125.458 76.2589 125.848C76.3794 126.229 76.4483 126.723 76.4483 127.304C76.4483 127.946 76.3536 128.596 76.1728 129.255C75.9835 129.914 75.7252 130.538 75.3809 131.128C75.0366 131.717 74.6148 132.281 74.1242 132.792C73.6249 133.313 73.0654 133.755 72.4457 134.11C71.9292 134.414 71.4386 134.604 70.9651 134.682C70.4917 134.76 70.0785 134.726 69.7084 134.57C69.3469 134.414 69.0542 134.145 68.8304 133.763C68.6066 133.382 68.4861 132.879 68.4603 132.263C68.4517 132.099 68.4861 131.934 68.5636 131.787C68.641 131.631 68.7357 131.527 68.839 131.466L69.8031 130.902C69.958 130.807 70.0785 130.781 70.1646 130.824C70.2507 130.859 70.3196 130.946 70.3712 131.093C70.4315 131.24 70.5175 131.379 70.6036 131.518C70.6983 131.648 70.8188 131.743 70.9737 131.795C71.1287 131.847 71.3267 131.847 71.5591 131.804C71.7915 131.761 72.0841 131.639 72.4371 131.431C72.7125 131.266 72.9793 131.084 73.2376 130.868C73.4958 130.651 73.7196 130.417 73.9176 130.148C74.1156 129.888 74.2705 129.611 74.391 129.316C74.5115 129.021 74.5718 128.718 74.5718 128.388C74.5718 128.059 74.5029 127.851 74.3824 127.729C74.2533 127.608 74.0553 127.547 73.7971 127.556C73.5302 127.564 73.2118 127.616 72.8244 127.712C72.4371 127.807 71.9895 127.903 71.4816 127.998C71.0168 128.093 70.6208 128.128 70.2679 128.093C69.9236 128.059 69.6395 127.937 69.4071 127.721C69.1833 127.512 69.0112 127.2 68.8993 126.802C68.7874 126.403 68.7357 125.883 68.7357 125.232C68.7357 124.582 68.8304 123.941 69.0112 123.29C69.2005 122.64 69.4502 122.024 69.7687 121.452C70.0957 120.88 70.4745 120.351 70.9221 119.866C71.3697 119.38 71.8517 118.99 72.3682 118.695V118.687Z" fill="#455A64"/>
<path d="M85.499 111.26C85.6023 111.2 85.6884 111.208 85.7659 111.278C85.8347 111.347 85.8778 111.46 85.8778 111.624V120.424C85.8778 121.309 85.7917 122.158 85.6281 122.973C85.4646 123.788 85.215 124.542 84.8793 125.253C84.5436 125.964 84.1304 126.597 83.6311 127.169C83.1319 127.742 82.5552 128.218 81.901 128.591C81.2382 128.981 80.6529 129.172 80.1622 129.181C79.6716 129.181 79.2584 129.033 78.9227 128.713C78.5956 128.392 78.346 127.915 78.1824 127.299C78.0189 126.675 77.9414 125.921 77.9414 125.037V116.237C77.9414 116.081 77.9758 115.925 78.0533 115.769C78.1222 115.613 78.2169 115.5 78.3201 115.448L79.4392 114.798C79.5425 114.737 79.6285 114.746 79.706 114.815C79.7749 114.884 79.8179 114.997 79.8179 115.162V123.857C79.8179 124.447 79.8695 124.915 79.9728 125.271C80.0761 125.626 80.2139 125.886 80.4032 126.042C80.5926 126.198 80.8078 126.268 81.066 126.233C81.3243 126.207 81.6083 126.103 81.9096 125.921C82.2109 125.747 82.4949 125.522 82.7617 125.245C83.0286 124.967 83.2524 124.646 83.4332 124.274C83.6139 123.901 83.7602 123.476 83.8721 122.999C83.9754 122.522 84.0357 121.993 84.0357 121.404V112.708C84.0357 112.552 84.0701 112.396 84.1476 112.24C84.2165 112.084 84.3111 111.971 84.4058 111.919L85.5162 111.278L85.499 111.26Z" fill="#455A64"/>
<path d="M91.9138 107.53C93.0673 106.863 93.9453 106.767 94.5478 107.244C95.1504 107.73 95.4516 108.701 95.4516 110.175C95.4516 111.224 95.2967 112.203 94.9868 113.114C94.6769 114.033 94.2207 114.839 93.6268 115.55L95.5377 119.746C95.5635 119.815 95.5808 119.885 95.5808 119.954C95.5808 120.084 95.5463 120.214 95.4947 120.336C95.4344 120.466 95.3656 120.552 95.2795 120.604L94.1002 121.289C93.9195 121.393 93.7817 121.411 93.6871 121.324C93.601 121.237 93.5407 121.151 93.4977 121.055L91.6814 117.11L89.8394 118.177V123.179C89.8394 123.335 89.805 123.491 89.7275 123.656C89.6586 123.812 89.5639 123.925 89.4606 123.977L88.3416 124.627C88.2383 124.688 88.1523 124.679 88.0748 124.61C88.0059 124.54 87.9629 124.428 87.9629 124.263V110.391C87.9629 110.235 87.9973 110.079 88.0748 109.923C88.1523 109.767 88.2383 109.655 88.3416 109.602L91.9138 107.522V107.53ZM89.8394 115.498L91.845 114.328C92.3701 114.024 92.7918 113.634 93.1017 113.166C93.4202 112.698 93.5752 112.065 93.5752 111.258C93.5752 110.452 93.4202 110.01 93.1017 109.923C92.7918 109.837 92.3701 109.941 91.845 110.244L89.8394 111.414V115.498Z" fill="#455A64"/>
<path d="M101.793 101.786C101.94 101.699 102.051 101.699 102.129 101.777C102.206 101.855 102.267 102.003 102.327 102.211L105.718 113.811C105.718 113.811 105.736 113.898 105.736 113.95C105.736 114.106 105.701 114.262 105.624 114.426C105.546 114.582 105.46 114.695 105.357 114.747L104.358 115.328C104.178 115.432 104.048 115.449 103.971 115.371C103.894 115.293 103.851 115.207 103.816 115.103L103.222 113.065L98.8494 115.605L98.2555 118.336C98.2297 118.466 98.178 118.614 98.1005 118.779C98.0231 118.943 97.8939 119.082 97.7132 119.186L96.7147 119.767C96.6114 119.828 96.5253 119.819 96.4478 119.75C96.3704 119.68 96.3359 119.568 96.3359 119.403C96.3359 119.342 96.3359 119.29 96.3532 119.247L99.7446 103.702C99.7963 103.424 99.8651 103.208 99.934 103.043C100.011 102.878 100.123 102.757 100.27 102.67L101.793 101.786ZM102.551 110.768L101.027 105.531L99.5036 112.536L102.551 110.768Z" fill="#455A64"/>
<path d="M113.278 110.139C113.123 110.234 113.002 110.234 112.916 110.156C112.83 110.078 112.77 110.009 112.736 109.957L108.862 103.281V112.124C108.862 112.28 108.828 112.436 108.75 112.601C108.681 112.757 108.587 112.87 108.492 112.922L107.373 113.572C107.27 113.633 107.184 113.624 107.106 113.555C107.037 113.485 106.994 113.373 106.994 113.208V99.3362C106.994 99.1801 107.029 99.0241 107.106 98.868C107.184 98.7119 107.27 98.5992 107.373 98.5472L108.346 97.9837C108.501 97.8883 108.621 97.8883 108.707 97.9664C108.793 98.0444 108.853 98.1137 108.888 98.1658L112.761 104.841V95.9983C112.761 95.8423 112.796 95.6862 112.873 95.5302C112.951 95.3741 113.037 95.2614 113.14 95.2094L114.259 94.5591C114.362 94.4985 114.448 94.5071 114.526 94.5765C114.603 94.6458 114.638 94.7585 114.638 94.9233V108.795C114.638 108.951 114.603 109.107 114.526 109.272C114.448 109.436 114.362 109.54 114.259 109.592L113.286 110.156L113.278 110.139Z" fill="#455A64"/>
<path d="M122.727 99.8742C122.744 99.6748 122.796 99.5101 122.873 99.3714C122.951 99.2327 123.037 99.1373 123.132 99.0853L124.251 98.4351C124.354 98.3744 124.44 98.3744 124.517 98.4351C124.595 98.4957 124.629 98.6171 124.621 98.7905C124.595 99.3974 124.5 100.039 124.337 100.715C124.173 101.4 123.924 102.068 123.596 102.735C123.261 103.403 122.848 104.036 122.34 104.625C121.832 105.223 121.221 105.726 120.498 106.151C119.861 106.524 119.301 106.697 118.811 106.697C118.32 106.689 117.907 106.524 117.562 106.194C117.218 105.874 116.951 105.397 116.762 104.781C116.573 104.157 116.461 103.429 116.426 102.597C116.409 102.068 116.4 101.469 116.4 100.811C116.4 100.152 116.409 99.5448 116.426 98.9899C116.461 98.1056 116.573 97.2473 116.762 96.4063C116.951 95.5654 117.218 94.7851 117.562 94.0655C117.907 93.3459 118.32 92.6957 118.811 92.1148C119.301 91.5339 119.861 91.0658 120.498 90.693C121.221 90.2768 121.832 90.0687 122.34 90.0774C122.848 90.0774 123.269 90.2248 123.596 90.5022C123.932 90.7797 124.173 91.1698 124.337 91.6727C124.5 92.1755 124.595 92.7044 124.621 93.2592C124.629 93.4239 124.595 93.5887 124.517 93.736C124.44 93.8921 124.345 93.9961 124.251 94.0568L123.132 94.7071C123.037 94.7591 122.951 94.7677 122.865 94.7244C122.779 94.6811 122.736 94.5684 122.71 94.395C122.684 94.1262 122.615 93.8834 122.521 93.6667C122.417 93.4499 122.279 93.2939 122.107 93.1812C121.935 93.0685 121.711 93.0251 121.445 93.0425C121.178 93.0598 120.859 93.1725 120.506 93.3893C120.145 93.5973 119.835 93.8661 119.568 94.1955C119.301 94.525 119.077 94.8805 118.897 95.2706C118.716 95.6607 118.578 96.0856 118.483 96.5451C118.389 97.0046 118.329 97.4554 118.311 97.9149C118.294 98.4697 118.285 99.0766 118.285 99.7355C118.285 100.394 118.294 100.993 118.311 101.521C118.329 101.972 118.389 102.362 118.483 102.701C118.578 103.039 118.716 103.299 118.897 103.481C119.077 103.663 119.301 103.758 119.568 103.776C119.835 103.793 120.153 103.698 120.506 103.49C120.868 103.281 121.178 103.03 121.445 102.735C121.711 102.44 121.935 102.137 122.116 101.816C122.297 101.495 122.434 101.175 122.538 100.837C122.641 100.507 122.701 100.186 122.727 99.8829V99.8742Z" fill="#455A64"/>
<path d="M132.692 96.1657C132.795 96.105 132.882 96.1137 132.95 96.1831C133.028 96.2524 133.062 96.3651 133.062 96.5298V98.0557C133.062 98.2118 133.028 98.3678 132.95 98.5325C132.882 98.6886 132.787 98.8013 132.692 98.8533L126.615 102.391C126.512 102.451 126.426 102.443 126.348 102.373C126.271 102.304 126.236 102.191 126.236 102.026V88.1549C126.236 87.9988 126.271 87.8427 126.348 87.6867C126.426 87.5306 126.512 87.4179 126.615 87.3659L132.58 83.898C132.684 83.8373 132.77 83.846 132.847 83.9153C132.916 83.9847 132.959 84.0974 132.959 84.2621V85.788C132.959 85.9441 132.925 86.1001 132.847 86.2649C132.77 86.4209 132.684 86.5336 132.58 86.5856L128.104 89.1866V92.6024L132.27 90.1749C132.374 90.1142 132.46 90.1229 132.537 90.1922C132.615 90.2616 132.649 90.3743 132.649 90.539V92.0649C132.649 92.221 132.615 92.377 132.537 92.5331C132.468 92.6891 132.374 92.8018 132.27 92.8625L128.104 95.2901V98.8533L132.684 96.1917L132.692 96.1657Z" fill="#455A64"/>
<g opacity="0.25">
<path d="M132.407 35.9012V47.5447C132.407 50.4924 130.41 53.9777 127.871 55.4515L105.491 68.4648C104.38 69.1064 103.752 70.3895 103.089 71.742C102.599 72.739 102.091 73.7534 101.359 74.5857C99.6203 76.5711 95.8329 78.6431 93.1558 79.5014C92.252 79.7962 91.3568 80.0043 90.4702 80.1257C90.1345 80.1864 89.7558 80.2297 89.3684 80.2731C86.9238 80.6025 83.8853 81.0187 82.1035 82.059L55.9101 97.2831C55.1182 97.7426 54.3435 97.9767 53.629 97.9767C53.0781 97.9767 52.5617 97.8467 52.0968 97.5779C51.0295 96.9537 50.4355 95.7139 50.4355 94.11V82.4665C50.4355 79.5188 52.4239 76.0335 54.9718 74.5597L63.769 69.4445C63.769 69.4445 63.8464 69.4099 63.8895 69.4012C64.3112 69.2104 64.8105 69.3838 65.0515 69.8C65.2839 70.2075 65.172 70.7363 64.8105 71.0051C64.7847 71.0398 64.7416 71.0744 64.7072 71.0918L55.9101 76.2069C53.9647 77.3427 52.312 80.2124 52.312 82.4752V94.1187C52.312 95.0203 52.5789 95.6792 53.0351 95.948C53.4913 96.2254 54.1971 96.1127 54.9718 95.6619L81.1652 80.4291C83.2655 79.2067 86.5193 78.7645 89.1188 78.4177C89.5062 78.3744 89.8677 78.3137 90.212 78.2703C90.9781 78.1576 91.7872 77.9756 92.5963 77.7155C94.9721 76.9612 98.5013 75.0192 99.956 73.3546C100.533 72.713 100.954 71.8287 101.411 70.9184C102.168 69.3665 102.96 67.7713 104.553 66.8436L126.933 53.8303C128.878 52.6946 130.531 49.8249 130.531 47.5621V35.9186C130.531 35.0256 130.264 34.358 129.808 34.0979C129.351 33.8205 128.637 33.9332 127.871 34.384L120.244 38.8143C119.995 38.2334 119.659 37.6785 119.289 37.1844L126.933 32.7368C128.31 31.9218 129.67 31.8264 130.746 32.442C131.813 33.0662 132.407 34.306 132.407 35.9099V35.9012Z" fill="black"/>
</g>
<path d="M116.075 36.1155C116.677 35.7601 117.512 35.8034 118.433 36.3409C120.267 37.4073 121.756 40.0082 121.756 42.141C121.756 43.2161 121.377 43.9703 120.766 44.3171L67.6647 75.1988L62.9648 66.9885L116.066 36.1069L116.075 36.1155Z" fill="#37474F"/>
<path d="M65.3338 71.1259L120.794 38.8744C120.191 37.8167 119.356 36.889 118.435 36.3515C118.323 36.2908 118.22 36.2561 118.117 36.2041L63.5176 67.9527L65.3338 71.1259Z" fill="#455A64"/>
<path d="M65.3402 67.2355C63.5067 66.1692 62.0176 67.0361 62.0176 69.1689C62.0176 71.3017 63.5067 73.9026 65.3402 74.969C67.1736 76.0353 68.6628 75.1684 68.6628 73.0356C68.6628 70.9028 67.1736 68.3019 65.3402 67.2355Z" fill="#263238"/>
<path d="M133.353 36.733V48.3765C133.353 51.3242 131.356 54.8095 128.816 56.2833L106.436 69.2966C105.326 69.9382 104.697 71.2213 104.035 72.5738C103.544 73.5708 103.036 74.5852 102.304 75.4175C100.566 77.4029 96.7782 79.4749 94.1012 80.3332C93.1973 80.628 92.3021 80.8361 91.4156 80.9575C91.0798 81.0181 90.7011 81.0615 90.3137 81.1048C87.8691 81.4343 84.8306 81.8504 83.0488 82.8908L56.8554 98.1149C56.0635 98.5744 55.2888 98.8085 54.5743 98.8085C54.0234 98.8085 53.507 98.6784 53.0422 98.4097C51.9748 97.7854 51.3809 96.5457 51.3809 94.9418V83.2983C51.3809 80.3506 53.3693 76.8653 55.9172 75.3915L64.7143 70.2763C64.7143 70.2763 64.7917 70.2416 64.8348 70.233C65.2566 70.0422 65.7558 70.2156 65.9968 70.6318C66.2292 71.0393 66.1173 71.5681 65.7558 71.8282C65.73 71.8629 65.687 71.8976 65.6525 71.9149L56.8554 77.0301C54.91 78.1658 53.2574 81.0355 53.2574 83.2983V94.9418C53.2574 95.8434 53.5242 96.5023 53.9804 96.7624C54.4366 97.0398 55.1425 96.9271 55.9172 96.4763L82.1106 81.2436C84.2108 80.0211 87.4646 79.579 90.0641 79.2322C90.4515 79.1888 90.813 79.1281 91.1487 79.0848C91.9148 78.9721 92.7239 78.79 93.5331 78.5299C95.9088 77.7757 99.438 75.8336 100.893 74.169C101.469 73.5275 101.891 72.6432 102.347 71.7328C103.105 70.1809 103.897 68.5857 105.489 67.658L127.869 54.6447C129.815 53.509 131.467 50.6393 131.467 48.3765V36.733C131.467 35.84 131.201 35.1725 130.744 34.9124C130.288 34.6349 129.574 34.7477 128.808 35.1985L121.181 39.6287C120.932 39.0479 120.596 38.493 120.226 37.9988L127.869 33.5512C129.247 32.7363 130.607 32.6409 131.683 33.2565C132.75 33.8807 133.344 35.1205 133.344 36.7244L133.353 36.733Z" fill="#455A64"/>
<path d="M75.5332 321.178L188.303 255.8L244.693 288.485L131.914 353.863L75.5332 321.178Z" fill="#0C77B9"/>
<path opacity="0.7" d="M75.5332 321.178L188.303 255.8L244.693 288.485L131.914 353.863L75.5332 321.178Z" fill="white"/>
<path d="M188.3 259.233L81.4609 321.17L131.911 350.422L238.75 288.485L188.3 259.233ZM131.911 348.697L84.4306 321.17L188.3 260.95L235.781 288.476L131.911 348.697Z" fill="#0C77B9"/>
<path d="M139.088 317.311C134.044 314.39 131.264 310.384 131.264 306.049C131.264 301.316 134.655 296.634 140.577 293.209C152.172 286.49 170.369 286.1 181.146 292.351C186.19 295.273 188.97 299.278 188.97 303.613C188.97 308.347 185.579 313.028 179.656 316.453C173.579 319.973 165.695 321.759 158.008 321.759C151.027 321.759 144.218 320.285 139.088 317.311ZM141.077 294.085C135.481 297.328 132.271 301.688 132.271 306.049C132.271 310.011 134.87 313.696 139.596 316.436C150.089 322.522 167.838 322.132 179.157 315.577C184.752 312.335 187.963 307.974 187.963 303.613C187.963 299.651 185.363 295.966 180.638 293.227C175.645 290.331 169.017 288.901 162.226 288.901C154.728 288.901 147.016 290.643 141.085 294.085H141.077Z" fill="#0C77B9"/>
<g opacity="0.5">
<path d="M140.908 314.139C137.034 311.894 134.908 309.024 134.908 306.051C134.908 302.669 137.637 299.141 142.397 296.384C147.691 293.315 154.913 291.555 162.221 291.555C168.831 291.555 174.9 292.968 179.316 295.525C183.189 297.771 185.315 300.641 185.315 303.614C185.315 306.996 182.587 310.524 177.826 313.281C172.533 316.35 165.311 318.11 158.011 318.11C151.401 318.11 145.324 316.697 140.916 314.139H140.908Z" fill="#0C77B9"/>
</g>
<path opacity="0.5" d="M134.635 340.78C133.137 339.913 130.693 339.922 129.195 340.78L125.976 342.644L95.0566 324.836L98.7838 322.677C99.4122 322.313 99.7651 321.854 99.7651 321.394C99.7651 320.935 99.4208 320.484 98.7838 320.12L95.0652 317.961L129.014 298.168L128.351 299.624C127.516 301.445 127.095 303.326 127.095 305.208C127.095 310.756 132.63 316.444 138.113 319.626C143.01 322.461 151.575 325.33 159.684 325.33C161.922 325.33 164.168 325.183 166.372 324.897L168.86 324.576L137.863 342.652L134.644 340.78H134.635Z" fill="#0C77B9"/>
<g opacity="0.4">
<path d="M119.653 328.946C118.362 328.201 117.656 327.16 117.656 326.016C117.656 324.785 118.508 323.58 119.998 322.721C122.769 321.109 127.133 321.022 129.724 322.522C131.007 323.268 131.721 324.308 131.721 325.452C131.721 326.684 130.869 327.889 129.38 328.747C127.925 329.588 126.04 330.013 124.207 330.013C122.528 330.013 120.893 329.657 119.662 328.946H119.653Z" fill="white"/>
</g>
<path opacity="0.5" d="M191.781 310.019C192.598 308.216 193.081 305.146 193.081 303.213C193.081 298.601 189.465 294.162 182.321 290.018C176.605 286.706 167.834 284.478 160.492 284.478C158.245 284.478 155.99 284.625 153.795 284.903L151.281 285.232L182.278 267.32L185.497 269.193C186.969 270.043 189.457 270.043 190.929 269.193L194.148 267.32L225.015 284.972L221.288 287.139C220.66 287.504 220.315 287.954 220.315 288.414C220.315 288.873 220.66 289.333 221.288 289.697L225.015 291.856L191.135 311.449L191.789 310.01L191.781 310.019Z" fill="#0C77B9"/>
<g opacity="0.4">
<path d="M190.626 287.962C189.335 287.216 188.629 286.176 188.629 285.032C188.629 283.801 189.481 282.595 190.97 281.737C193.742 280.125 198.106 280.038 200.697 281.538C201.988 282.283 202.694 283.324 202.694 284.468C202.694 285.699 201.842 286.904 200.353 287.763C198.898 288.604 197.013 289.028 195.179 289.028C193.501 289.028 191.865 288.673 190.635 287.962H190.626Z" fill="white"/>
</g>
<path d="M75.5332 321.181V334.94L131.914 367.633V353.866L75.5332 321.181Z" fill="#0C77B9"/>
<g opacity="0.2">
<path d="M75.5332 321.181V334.94L131.914 367.633V353.866L75.5332 321.181Z" fill="white"/>
</g>
<g opacity="0.1">
<path d="M131.912 356.932L114.111 346.988L131.912 357.765V356.932Z" fill="black"/>
<path d="M75.5332 327.717L81.4639 331.505L75.5332 328.41V327.717Z" fill="black"/>
<path d="M75.5332 330.994L105.204 348.706L75.5332 332.009V330.994Z" fill="black"/>
<path d="M131.913 360.211L102.242 343.548L131.913 361.295V360.211Z" fill="black"/>
</g>
<path d="M131.914 367.63L244.693 302.251V288.483L131.914 353.862V367.63Z" fill="#0C77B9"/>
<g opacity="0.2">
<path d="M131.914 367.63L244.693 302.251V288.483L131.914 353.862V367.63Z" fill="black"/>
</g>
<g opacity="0.3">
<path d="M131.914 356.932L137.862 353.863L131.914 357.765V356.932Z" fill="black"/>
</g>
<g opacity="0.3">
<path d="M131.914 360.21L161.757 343.46L131.914 361.294V360.21Z" fill="black"/>
</g>
<g opacity="0.3">
<path d="M244.693 294.961L223.914 307.411L244.693 295.776V294.961Z" fill="black"/>
</g>
<g opacity="0.3">
<path d="M244.69 298.431L232.82 305.696L244.69 299.202V298.431Z" fill="black"/>
</g>
<path d="M122.084 291.901L180.436 325.73L198.237 315.413L139.893 281.575L122.084 291.901Z" fill="#FAFAFA"/>
<path d="M198.24 315.412V330.385L180.439 340.71V325.729L198.24 315.412Z" fill="#E0E0E0"/>
<path d="M180.438 340.712L179.396 340.105L180.438 339.498V340.712Z" fill="#E0E0E0"/>
<path d="M122.084 291.899V294.18L124.055 293.035L122.084 291.899Z" fill="#E0E0E0"/>
<g opacity="0.3">
<path d="M179.396 340.095V326.336L180.438 325.729V339.488L179.396 340.095Z" fill="black"/>
</g>
<g style="mix-blend-mode:multiply" opacity="0.2">
<path d="M179.402 326.336L123.021 293.642L124.063 293.035L180.444 325.729L179.402 326.336Z" fill="black"/>
</g>
<path d="M124.008 290.783L182.368 324.613L183.84 323.754L125.497 289.934L124.008 290.783Z" fill="#455A64"/>
<path d="M136.48 283.562L194.832 317.392L196.313 316.534L137.961 282.704L136.48 283.562Z" fill="#455A64"/>
<path d="M182.373 324.611V339.593L183.845 338.734V323.753L182.373 324.611Z" fill="#263238"/>
<path d="M194.838 317.391V332.363L196.327 331.505L196.318 316.532L194.838 317.391Z" fill="#263238"/>
<path opacity="0.2" d="M126.19 350.552L238.969 285.173L188.303 255.8L75.5332 321.178L126.19 350.552Z" fill="black"/>
<path opacity="0.2" d="M75.5332 329.296L126.19 358.669V350.545L75.5332 321.181V329.296Z" fill="black"/>
<path d="M65.9863 303.508L178.765 238.13L235.146 270.815L122.376 336.193L65.9863 303.508Z" fill="#0C77B9"/>
<path opacity="0.7" d="M65.9863 303.508L178.765 238.13L235.146 270.815L122.376 336.193L65.9863 303.508Z" fill="white"/>
<path d="M178.765 241.573L71.9258 303.51L122.376 332.762L229.215 270.825L178.765 241.573ZM122.376 331.036L74.8955 303.51L178.765 243.29L226.246 270.816L122.376 331.036Z" fill="#0C77B9"/>
<path d="M129.549 299.648C124.505 296.727 121.725 292.721 121.725 288.386C121.725 283.653 125.116 278.971 131.038 275.546C142.633 268.827 160.83 268.437 171.607 274.688C176.651 277.61 179.431 281.615 179.431 285.95C179.431 290.684 176.04 295.365 170.117 298.79C164.04 302.31 156.156 304.096 148.469 304.096C141.488 304.096 134.679 302.622 129.549 299.648ZM131.537 276.422C125.942 279.664 122.732 284.025 122.732 288.386C122.732 292.348 125.331 296.033 130.057 298.773C140.55 304.859 158.299 304.469 169.618 297.914C175.213 294.672 178.424 290.311 178.424 285.95C178.424 281.988 175.824 278.303 171.099 275.564C166.106 272.668 159.478 271.237 152.687 271.237C145.189 271.237 137.477 272.98 131.546 276.422H131.537Z" fill="#0C77B9"/>
<g opacity="0.5">
<path d="M131.375 296.468C127.501 294.222 125.375 291.352 125.375 288.379C125.375 284.997 128.104 281.469 132.864 278.712C138.158 275.643 145.379 273.883 152.687 273.883C159.298 273.883 165.367 275.296 169.782 277.854C173.656 280.099 175.782 282.969 175.782 285.942C175.782 289.324 173.053 292.852 168.293 295.609C163 298.678 155.778 300.438 148.478 300.438C141.867 300.438 135.79 299.025 131.383 296.468H131.375Z" fill="#0C77B9"/>
</g>
<path opacity="0.5" d="M125.092 323.111C123.594 322.244 121.15 322.253 119.652 323.111L116.433 324.975L85.5137 307.167L89.2408 305.008C89.8692 304.644 90.2221 304.185 90.2221 303.725C90.2221 303.266 89.8778 302.815 89.2408 302.451L85.5223 300.292L119.471 280.499L118.808 281.956C117.974 283.776 117.552 285.658 117.552 287.539C117.552 293.088 123.087 298.775 128.57 301.957C133.467 304.792 142.032 307.661 150.141 307.661C152.379 307.661 154.625 307.514 156.829 307.228L159.317 306.907L128.32 324.984L125.101 323.111H125.092Z" fill="#0C77B9"/>
<g opacity="0.4">
<path d="M110.116 311.277C108.825 310.532 108.119 309.491 108.119 308.347C108.119 307.116 108.971 305.911 110.46 305.053C113.232 303.44 117.596 303.353 120.187 304.853C121.47 305.599 122.184 306.639 122.184 307.784C122.184 309.015 121.332 310.22 119.843 311.078C118.388 311.919 116.503 312.344 114.67 312.344C112.991 312.344 111.356 311.988 110.125 311.277H110.116Z" fill="white"/>
</g>
<path opacity="0.5" d="M182.24 292.352C183.057 290.549 183.54 287.479 183.54 285.546C183.54 280.934 179.924 276.495 172.78 272.351C167.064 269.039 158.293 266.811 150.951 266.811C148.704 266.811 146.449 266.958 144.254 267.236L141.74 267.565L172.737 249.653L175.956 251.526C177.428 252.376 179.916 252.376 181.388 251.526L184.607 249.653L215.474 267.305L211.747 269.472C211.119 269.837 210.774 270.287 210.774 270.747C210.774 271.206 211.119 271.666 211.747 272.03L215.474 274.189L181.594 293.782L182.248 292.343L182.24 292.352Z" fill="#0C77B9"/>
<g opacity="0.4">
<path d="M181.091 270.303C179.8 269.557 179.094 268.517 179.094 267.372C179.094 266.141 179.946 264.936 181.435 264.078C184.207 262.465 188.571 262.379 191.162 263.879C192.453 264.624 193.159 265.664 193.159 266.809C193.159 268.04 192.307 269.245 190.818 270.103C189.363 270.944 187.478 271.369 185.644 271.369C183.966 271.369 182.33 271.014 181.099 270.303H181.091Z" fill="white"/>
</g>
<path d="M65.9863 303.511V317.278L122.376 349.963V336.196L65.9863 303.511Z" fill="#0C77B9"/>
<g opacity="0.2">
<path d="M65.9863 303.511V317.278L122.376 349.963V336.196L65.9863 303.511Z" fill="white"/>
</g>
<g opacity="0.1">
<path d="M122.38 339.265L104.57 329.32L122.38 340.105V339.265Z" fill="black"/>
<path d="M65.9863 310.048L71.9257 313.837L65.9949 310.741L65.9863 310.048Z" fill="black"/>
<path d="M65.9863 313.325L95.6573 331.038L65.9863 314.34V313.325Z" fill="black"/>
<path d="M122.377 342.542L92.6973 325.879L122.377 343.626V342.542Z" fill="black"/>
</g>
<path d="M122.371 349.962L235.141 284.583V270.815L122.371 336.194V349.962Z" fill="#0C77B9"/>
<g opacity="0.2">
<path d="M122.371 349.962L235.141 284.583V270.815L122.371 336.194V349.962Z" fill="black"/>
</g>
<g opacity="0.3">
<path d="M122.371 339.264L128.31 336.195L122.371 340.105V339.264Z" fill="black"/>
</g>
<g opacity="0.3">
<path d="M122.371 342.541L152.214 325.8L122.371 343.625V342.541Z" fill="black"/>
</g>
<g opacity="0.3">
<path d="M235.149 277.301L214.379 289.751L235.149 278.107V277.301Z" fill="black"/>
</g>
<g opacity="0.3">
<path d="M235.138 280.761L223.268 288.026L235.138 281.532V280.761Z" fill="black"/>
</g>
<path d="M112.555 274.232L170.898 308.061L188.708 297.744L130.356 263.906L112.555 274.232Z" fill="#FAFAFA"/>
<path d="M188.704 297.742V312.724L170.895 323.041V308.059L188.704 297.742Z" fill="#E0E0E0"/>
<path d="M170.893 323.043L169.852 322.436L170.893 321.829V323.043Z" fill="#E0E0E0"/>
<path d="M112.555 274.232V276.513L114.517 275.368L112.555 274.232Z" fill="#E0E0E0"/>
<g opacity="0.3">
<path d="M169.852 322.426V308.676L170.893 308.061V321.828L169.852 322.426Z" fill="black"/>
</g>
<g style="mix-blend-mode:multiply" opacity="0.2">
<path d="M169.852 308.673L113.471 275.971L114.512 275.364L170.893 308.058L169.852 308.673Z" fill="black"/>
</g>
<path d="M114.459 273.122L172.82 306.951L174.3 306.084L115.948 272.264L114.459 273.122Z" fill="#455A64"/>
<path d="M126.938 265.893L185.298 299.723L186.779 298.865L128.427 265.035L126.938 265.893Z" fill="#455A64"/>
<path d="M172.826 306.95V321.923L174.307 321.064V306.083L172.826 306.95Z" fill="#263238"/>
<path d="M185.299 299.722V314.694L186.788 313.836L186.779 298.863L185.299 299.722Z" fill="#263238"/>
<path d="M199.035 139.468C199.078 138.315 198.802 137.595 198.295 137.318C198.295 137.309 198.303 137.309 198.303 137.309L198.234 137.266C197.692 137.023 194.094 134.864 193.577 134.587C193.577 134.578 193.586 134.578 193.586 134.578L193.517 134.535C192.975 134.292 192.174 134.526 191.21 135.263C181.604 142.667 168.391 144.471 158.337 140.014C156.952 138.983 155.669 137.803 154.524 136.46C154.464 136.39 154.412 136.321 154.352 136.26H154.343C154.016 135.896 153.698 135.627 153.371 135.454C153.371 135.454 148.981 132.888 148.662 132.714L148.499 132.619C147.423 132.107 146.433 132.628 145.787 134.24C136.672 157.059 117.244 180.181 104.281 185.964C103.317 186.397 102.421 187.065 101.733 187.88C100.82 188.946 100.252 190.256 100.295 191.617C100.295 220.955 116.254 267.833 146.484 283.499C148.275 284.678 150.126 285.744 152.028 286.681C193.621 243.471 199.043 174.251 199.043 139.485L199.035 139.468Z" fill="#0C77B9"/>
<path opacity="0.4" d="M198.23 137.257C197.687 137.014 196.887 137.248 195.923 137.985C184.741 146.603 168.653 147.643 158.367 140.014C168.421 144.453 181.625 142.658 191.214 135.245C192.178 134.508 192.979 134.274 193.521 134.517L193.59 134.56C193.59 134.56 193.582 134.56 193.582 134.569C194.089 134.847 197.687 136.997 198.23 137.248V137.257Z" fill="white"/>
<path d="M153.199 135.345C152.123 134.833 151.133 135.353 150.487 136.966C141.372 159.794 121.944 182.907 108.981 188.69C108.016 189.123 107.121 189.791 106.433 190.606C106.054 191.065 105.727 191.551 105.477 192.08L100.777 189.349C101.018 188.82 101.337 188.317 101.716 187.875C102.413 187.06 103.308 186.392 104.263 185.959C117.218 180.176 136.646 157.054 145.77 134.235C146.416 132.622 147.406 132.094 148.482 132.614L148.645 132.709C148.8 132.787 149.721 133.325 150.737 133.914C151.735 134.495 152.803 135.128 153.199 135.353V135.345Z" fill="#0C77B9"/>
<path opacity="0.4" d="M153.199 135.345C152.123 134.833 151.133 135.353 150.487 136.966C141.372 159.794 121.944 182.907 108.981 188.69C108.016 189.123 107.121 189.791 106.433 190.606C106.054 191.065 105.727 191.551 105.477 192.08L100.777 189.349C101.018 188.82 101.337 188.317 101.716 187.875C102.413 187.06 103.308 186.392 104.263 185.959C117.218 180.176 136.646 157.054 145.77 134.235C146.416 132.622 147.406 132.094 148.482 132.614L148.645 132.709C148.8 132.787 149.721 133.325 150.737 133.914C151.735 134.495 152.803 135.128 153.199 135.353V135.345Z" fill="white"/>
<path opacity="0.3" d="M146.411 283.439C116.214 267.765 100.282 220.913 100.282 191.601C100.256 190.803 100.454 190.049 100.781 189.338L105.481 192.069C105.145 192.78 104.973 193.543 104.99 194.332C104.99 222.101 119.253 265.571 146.411 283.439Z" fill="black"/>
<path d="M199.03 139.47C199.03 174.236 193.607 243.464 152.015 286.665C121.233 271.45 104.991 223.948 104.991 194.341C104.948 192.971 105.516 191.662 106.428 190.604C107.125 189.789 108.02 189.122 108.976 188.688C121.931 182.906 141.358 159.783 150.483 136.965C151.128 135.352 152.118 134.823 153.194 135.343L153.358 135.439C153.685 135.612 154.003 135.881 154.33 136.245H154.339C154.399 136.306 154.451 136.375 154.511 136.444C164.186 147.784 183.209 147.776 195.906 137.988C196.87 137.251 197.67 137.017 198.213 137.259L198.281 137.303C198.281 137.303 198.273 137.303 198.273 137.311C198.781 137.589 199.065 138.308 199.013 139.461L199.03 139.47Z" fill="#0C77B9"/>
<path opacity="0.1" d="M199.03 139.47C199.03 174.236 193.607 243.464 152.015 286.665C121.233 271.45 104.991 223.948 104.991 194.341C104.948 192.971 105.516 191.662 106.428 190.604C107.125 189.789 108.02 189.122 108.976 188.688C121.931 182.906 141.358 159.783 150.483 136.965C151.128 135.352 152.118 134.823 153.194 135.343L153.358 135.439C153.685 135.612 154.003 135.881 154.33 136.245H154.339C154.399 136.306 154.451 136.375 154.511 136.444C164.186 147.784 183.209 147.776 195.906 137.988C196.87 137.251 197.67 137.017 198.213 137.259L198.281 137.303C198.281 137.303 198.273 137.303 198.273 137.311C198.781 137.589 199.065 138.308 199.013 139.461L199.03 139.47Z" fill="white"/>
<path d="M153.204 135.344C152.128 134.832 151.138 135.352 150.492 136.965C141.377 159.784 121.949 182.906 108.986 188.689C108.022 189.122 107.126 189.79 106.438 190.605C105.525 191.671 104.957 192.98 105 194.341C105 223.949 121.243 271.45 152.025 286.666C172.709 206.123 153.212 135.344 153.212 135.344H153.204Z" fill="#0C77B9"/>
<path opacity="0.05" d="M153.204 135.344C152.128 134.832 151.138 135.352 150.492 136.965C141.377 159.784 121.949 182.906 108.986 188.689C108.022 189.122 107.126 189.79 106.438 190.605C105.525 191.671 104.957 192.98 105 194.341C105 223.949 121.243 271.45 152.025 286.666C172.709 206.123 153.212 135.344 153.212 135.344H153.204Z" fill="black"/>
<path opacity="0.4" d="M168.902 150.991C179.283 153.661 188.485 149.075 193.744 146.344C193.744 146.344 194.967 207.7 173.99 247.381C182.262 216.387 184.293 207.518 184.887 184.543C185.464 161.958 176.77 156.617 168.902 150.982V150.991Z" fill="white"/>
<path d="M154.861 237.568L133.961 223.87L140.202 214.203L150.712 221.095L172.704 180.27L182.767 185.766L154.861 237.568Z" fill="white"/>
<path d="M161.437 201.187L150.712 221.093L140.202 214.201L133.961 223.859L154.861 237.566L161.093 225.992C161.532 217.296 161.609 208.99 161.437 201.179V201.187Z" fill="#F0F0F0"/>
<path d="M269.533 326.101L266.322 324.558L269.481 323.656L269.533 326.101Z" fill="#263238"/>
<path d="M237.791 332.189C237.791 332.189 275.484 314.963 275.975 317.494C276.078 318.049 276.07 318.561 275.966 319.02C276.001 318.977 276.035 318.933 276.069 318.881L275.407 323.615C275.407 323.615 272.721 325.93 269.536 326.103C269.536 325.878 269.502 324.465 269.485 323.667C268.46 324.101 267.41 324.621 266.162 325.453C263.752 327.066 262.211 329.866 259.655 333.126C257.795 335.501 254.464 336.628 249.515 337.357C244.195 338.146 239.487 337.157 238.152 335.744C237.094 334.617 237.601 332.528 237.791 332.198V332.189Z" fill="#263238"/>
<path d="M238.834 331.306C239.195 330.924 240.53 329.433 242.346 327.812C243.93 326.39 245.78 324.604 247.769 323.148C248.561 322.567 249.783 321.639 250.463 320.902C251.117 320.191 251.746 319.463 252.331 318.691C254.139 316.299 255.602 313.68 256.841 310.958C257.427 309.666 258.158 308.305 258.408 306.9C258.675 305.418 258.821 303.918 258.83 302.41C258.83 295.621 258.675 294.546 258.615 289.379L274.599 289.795C274.091 292.665 273.325 296.575 273.067 299.835C272.68 304.785 272.551 305.886 274.53 310.811C275.116 312.258 275.976 313.654 276.054 315.206C276.192 317.738 274.203 319.94 271.982 321.188C270.14 322.229 268.006 322.679 266.215 323.789C264.33 324.951 262.875 326.694 261.541 328.419C260.276 330.049 259.269 331.965 257.496 333.118C255.524 334.392 253.639 334.8 251.35 335.277C248.716 335.823 245.333 335.91 243.078 335.745C239.152 335.467 236.217 334.063 238.843 331.289L238.834 331.306Z" fill="#FFBDA7"/>
<path d="M253.531 323.459C250.768 322.037 248.28 322.644 247.66 322.965C244.889 325.175 242.59 327.143 240.972 328.522C239.01 330.195 237.288 331.712 237.374 333.611C237.512 336.585 249.132 337.4 255.597 334.539C258.971 333.342 260.159 330.516 260.159 330.516C260.159 330.516 259.169 326.363 253.531 323.459ZM275.532 312.622C274.525 310.714 274.147 309.743 274.147 309.743C271.9 310.974 268.018 316.61 269.851 322.236C271.9 321.69 273.897 320.892 275.515 318.352C276.737 316.428 276.539 314.529 275.532 312.622Z" fill="#37474F"/>
<path d="M304.913 314.834C303.863 316.542 305.188 322.94 304.93 327.509C304.698 331.653 303.579 338.884 304.818 342.976C306.281 347.822 309.277 353.449 314.906 348.871C318.393 346.036 320.407 342.386 320.906 336.413C321.25 332.26 319.649 326.529 318.272 321.449C316.662 315.51 316.06 312.337 316.06 312.337L304.921 314.825L304.913 314.834Z" fill="#263238"/>
<path d="M316.204 284.143C316.617 293.818 315.481 300.615 315.412 306.814C315.481 309.701 315.67 312.137 316.307 315.18C317.125 319.134 318.528 324.63 319.113 327.197C319.931 330.777 320.551 333.031 319.303 337.054C319.208 337.366 319.062 337.67 318.89 337.964C317.142 341.276 312.701 343.773 311.272 343.374C310.876 344.025 309.869 344.423 308.767 344.241C308.612 344.215 308.448 344.181 308.293 344.129C308.139 344.077 307.975 344.016 307.82 343.938C306.873 343.478 305.978 342.533 305.453 340.895C305.367 340.626 305.289 340.331 305.221 340.019C304.188 335.034 304.73 331.696 304.756 329.737C304.79 327.049 304.73 324.448 304.532 320.816C304.334 317.183 303.74 306.077 302.466 300.624C301.519 296.818 300.34 292.049 299.092 286.96L316.195 284.143H316.204Z" fill="#FFBDA7"/>
<path d="M319.973 331.862C316.469 330.336 306.304 330.119 304.685 335.009C304.642 339.612 304.617 342.733 307.56 346.739C311.468 352.062 316.564 346.418 318.527 342.837C320.481 339.257 320.455 334.341 319.981 331.862H319.973Z" fill="#37474F"/>
<path d="M302.953 157.745C307.902 166.519 311.896 173.914 313.188 197.097C314.642 223.254 314.427 233.215 314.556 236.371C314.685 239.527 316.743 245.318 318.49 260.863C320.237 276.408 318.395 314.095 318.395 314.095C318.395 314.095 317.156 316.636 311.148 317.208C305.604 317.737 302.342 315.812 302.342 315.812C302.342 315.812 293.527 266.325 291.35 256.97C289.172 247.616 282.828 216.847 282.828 216.847L280.745 246.211C280.745 246.211 282.501 254.786 280.908 268.44C279.316 282.095 275.227 307.905 275.227 307.905C275.227 307.905 272.869 310.263 265.621 310.125C257.909 309.977 256.299 307.853 256.299 307.853C256.299 307.853 254.569 252.349 254.457 236.883C254.345 221.416 253.433 181.266 258.184 158.335L302.953 157.736V157.745Z" fill="#455A64"/>
<path d="M261.336 180.524C263.737 186.896 272.354 191.3 276.133 192.167L280.738 216.538V246.223L282.829 216.859L277.656 187.156C277.656 187.156 267.189 186.489 261.336 180.524ZM297.084 177.151C297.721 179.657 298.298 182.18 298.917 184.694C299.52 187.217 300.122 189.74 300.777 192.28C300.82 189.653 300.561 187.044 300.2 184.46C299.838 181.868 299.33 179.301 298.711 176.761C298.065 174.23 297.325 171.707 296.395 169.253C295.466 166.8 294.381 164.389 292.944 162.179C293.753 164.676 294.476 167.155 295.156 169.643C295.827 172.14 296.481 174.637 297.092 177.151H297.084ZM301.491 172.288C302.352 173.796 303.17 175.322 303.996 176.848L306.44 181.512C306.277 179.735 305.803 178.001 305.192 176.328C304.59 174.646 303.806 173.042 302.954 171.49C302.068 169.947 301.104 168.447 300.01 167.042C298.926 165.629 297.747 164.294 296.404 163.098C297.196 164.702 298.065 166.227 298.926 167.745C299.778 169.271 300.656 170.77 301.491 172.288ZM298.082 242.929C296.516 234.927 295.38 226.838 294.261 218.74C293.167 210.643 292.083 202.528 290.886 194.43C291.446 202.597 292.1 210.755 292.978 218.896C293.839 227.037 294.906 235.169 296.447 243.241C298.1 251.286 299.761 259.271 301.517 267.274C303.256 275.267 305.098 283.243 307.052 291.202C305.735 283.122 304.323 275.059 302.791 267.013C301.293 258.977 299.683 250.922 298.082 242.929ZM261.947 216.486L263.143 195.15C262.085 202.207 261.276 209.299 260.656 216.399C260.062 223.517 259.502 230.6 259.528 237.814C259.821 244.984 260.019 273.36 260.914 280.434C261.534 272.51 261.336 251.607 261.336 251.607C261.129 248.061 261.293 241.29 261.198 237.77C261.112 234.259 261.301 230.696 261.439 227.15C261.577 223.595 261.783 220.041 261.956 216.486H261.947Z" fill="#37474F"/>
<path d="M230.857 39.6004C238.983 41.7939 246.351 49.3973 250.156 57.148C267.044 57.5468 287.712 64.8815 306.657 76.3776L325.723 19.5473C294.021 11.0509 262.388 14.0767 230.866 39.6004H230.857Z" fill="#0C77B9"/>
<path d="M389.069 93.4304C381.287 90.214 370.846 91.7572 363.16 95.5979C349.49 85.6016 328.642 78.8045 306.658 76.3683L325.716 19.5381C356.032 32.1439 379.377 53.879 389.06 93.4304H389.069Z" fill="#0C77B9"/>
<path opacity="0.25" d="M389.069 93.4304C381.287 90.214 370.846 91.7572 363.16 95.5979C349.49 85.6016 328.642 78.8045 306.658 76.3683L325.716 19.5381C356.032 32.1439 379.377 53.879 389.06 93.4304H389.069Z" fill="black"/>
<path d="M250.154 57.1493C267.034 57.5481 287.719 64.8827 306.656 76.3788L325.713 19.5573C303.6 16.7743 271.019 30.5939 250.154 57.158V57.1493Z" fill="#0C77B9"/>
<path opacity="0.15" d="M250.154 57.1493C267.034 57.5481 287.719 64.8827 306.656 76.3788L325.713 19.5573C303.6 16.7743 271.019 30.5939 250.154 57.158V57.1493Z" fill="black"/>
<path opacity="0.15" d="M389.065 93.4304C379.373 53.879 356.037 32.1526 325.721 19.5381C344.976 30.8348 362.562 61.7251 363.164 95.5979C370.851 91.7572 381.292 90.214 389.074 93.4304H389.065Z" fill="black"/>
<path d="M290.768 100.954C289.615 102.186 289.253 103.477 287.394 102.879C285.801 102.368 284.631 101.137 283.34 100.122C281.653 98.8044 280 97.4519 278.373 96.0561C275.179 93.3077 272.107 90.4034 269.188 87.3603C267.519 85.6177 265.53 83.6756 264.514 81.4475C263.533 79.2801 262.87 76.8699 263.086 74.4684C263.533 69.5266 266.572 63.1023 275.593 61.2643C283.107 59.7298 297.465 61.3857 299.298 71.2085C299.393 71.72 300.512 72.4136 300.831 72.8731C301.39 73.6794 301.855 74.5551 302.216 75.474C302.948 77.3034 303.275 79.2974 303.137 81.2654C302.828 85.7997 300.228 89.8225 297.405 93.3771C295.313 96.0127 293.058 98.5096 290.768 100.963V100.954Z" fill="#263238"/>
<path d="M251.848 119.104C244.936 127.072 238.799 133.453 238.799 133.453C238.816 133.427 236.776 131.736 236.664 131.632C234.392 129.673 232.145 127.679 229.993 125.589C227.531 123.205 225.276 120.682 224.45 117.206C224.269 116.451 224.192 115.671 224.123 114.899C223.908 112.671 223.692 110.452 223.486 108.224C223.383 107.157 223.124 105.996 223.176 104.929C223.21 104.253 223.563 103.438 223.434 102.753C223.288 101.938 222.255 101.652 220.826 103.031C219.939 103.889 219.587 105.285 219.337 106.204C219.053 107.218 218.941 108.536 218.588 108.597C218.235 108.657 217.064 107.444 215.765 106.62C214.456 105.796 213.415 104.756 211.685 104.687C209.954 104.626 209.541 106.126 209.567 106.724C209.593 107.348 210.084 107.972 210.084 107.972C210.084 107.972 209.3 107.556 208.414 107.92C207.527 108.293 207.011 109.88 207.441 110.677C207.441 110.677 206.442 110.313 205.866 111.354C205.384 112.229 205.169 113.2 205.978 113.885C205.978 113.885 205.151 113.807 204.945 114.241C204.747 114.674 204.161 116.027 204.755 116.816C205.349 117.604 207.2 118.359 207.2 118.359C207.2 118.359 207.226 118.74 207.957 119.512C208.216 119.781 209.016 121.567 210.049 122.676C211.461 124.202 212.847 124.627 214.508 125.589C217.211 127.159 220.137 132.022 223.185 136.825C226.817 142.547 229.847 147.706 233.634 151.382C238.351 155.968 241.442 155.517 247.415 149.527C254.672 142.244 262.591 132.187 262.591 132.187L265.449 109.455C260.052 110.096 257.4 112.697 251.857 119.087L251.848 119.104Z" fill="#FFBDA7"/>
<path d="M210.671 116.791C210.653 116.947 210.576 117.042 210.516 117.172C210.447 117.328 210.352 117.458 210.24 117.588C210.077 117.77 209.904 117.952 209.689 118.074C209.56 118.152 209.414 118.195 209.267 118.238C208.828 118.36 208.407 118.369 207.959 118.369C207.701 118.369 207.451 118.377 207.193 118.386C207.52 118.516 207.856 118.603 208.209 118.646C208.622 118.689 209.069 118.637 209.474 118.533C209.569 118.507 209.663 118.481 209.758 118.438C210.008 118.325 210.223 118.143 210.386 117.918C210.55 117.692 210.722 117.372 210.748 117.085C210.748 117.059 210.765 116.799 210.731 116.799C211.023 116.825 211.299 116.799 211.574 116.773C211.988 116.704 212.452 116.713 212.857 116.4C213.046 116.236 213.158 116.062 213.279 115.854C213.313 115.794 213.339 115.716 213.348 115.646L213.778 115.325C213.778 115.325 213.649 116.366 214.346 118.03C215.043 119.695 216.403 120.692 216.403 120.692C216.403 120.692 215.396 119.816 214.845 117.658C214.372 115.802 215.31 113.687 216.102 112.716C216.128 112.716 216.154 112.716 216.179 112.716C216.369 112.664 216.498 112.551 216.601 112.447C216.834 112.204 216.928 111.875 216.937 111.58C216.937 111.277 216.885 110.991 216.791 110.722C216.42 109.629 215.56 108.84 214.647 108.26C214.621 107.999 214.544 107.774 214.458 107.557C214.355 107.323 214.226 107.107 214.079 106.898C214.2 107.124 214.294 107.358 214.38 107.592C214.458 107.826 214.518 108.078 214.51 108.312V108.355L214.544 108.381C215.405 109.014 216.18 109.829 216.489 110.835C216.644 111.311 216.679 111.901 216.36 112.213C216.162 112.395 216.059 112.43 215.827 112.308C215.603 112.204 215.362 112.048 215.112 111.927C214.613 111.667 214.105 111.485 213.623 111.251C213.15 111.017 212.711 110.722 212.297 110.375C211.893 110.028 211.523 109.629 211.135 109.239C210.757 108.849 210.378 108.459 210.059 108.017C210.619 108.962 211.342 109.794 212.117 110.574C212.513 110.956 212.969 111.303 213.468 111.545C213.959 111.797 214.475 111.996 214.94 112.248C215.035 112.3 215.129 112.352 215.224 112.404C215.353 112.629 215.405 112.881 215.353 113.123C215.276 113.565 214.906 113.869 214.475 113.964C214.028 114.086 213.58 114.198 213.141 114.224C212.693 114.224 212.211 114.242 211.824 114.094C211.015 113.782 210.343 113.063 209.62 112.482C208.897 111.884 208.174 111.285 207.417 110.73C208.071 111.415 208.742 112.057 209.431 112.707C209.767 113.028 210.12 113.34 210.481 113.652C210.843 113.956 211.23 114.268 211.712 114.441C212.013 114.519 212.306 114.554 212.607 114.562C212.857 114.745 213.063 114.97 213.15 115.247C213.21 115.429 213.184 115.62 213.089 115.776C212.986 115.932 212.84 116.114 212.702 116.21C212.401 116.4 211.962 116.426 211.557 116.47C211.144 116.505 210.722 116.522 210.386 116.383C210.034 116.253 209.758 115.941 209.397 115.672C209.044 115.412 208.665 115.195 208.286 115.013C207.529 114.623 206.763 114.268 205.971 113.947C206.694 114.398 207.425 114.823 208.148 115.265C208.501 115.49 208.872 115.698 209.19 115.95C209.508 116.192 209.793 116.548 210.24 116.739C210.386 116.791 210.524 116.817 210.671 116.834V116.791ZM215.396 112.49C215.396 112.49 215.396 112.473 215.388 112.464C215.388 112.464 215.388 112.482 215.396 112.49Z" fill="#F0997A"/>
<path d="M238.818 133.451C240.962 135.098 243.613 137.517 243.863 141.514C244.499 136.997 242.02 133.46 239.817 132.159L238.818 133.451Z" fill="#F28F8F"/>
<path d="M266.233 109.013C259.321 109.767 256.799 112.905 251.058 119.425C246.022 125.147 238.809 132.82 238.809 132.82L228.325 123.899C228.325 123.899 228.945 126.101 225.94 129.612C223.436 132.534 219.82 131.927 219.82 131.927C219.82 131.927 223.995 139.027 229.392 147.038C234.858 155.162 239.265 155.968 243.147 153.827C247.029 151.685 265.063 132.421 265.063 132.421L266.233 109.021V109.013Z" fill="#37474F"/>
<path d="M238.818 132.818C242.322 135.774 244.353 141.574 244.775 144.852C245.369 137.3 240.445 131.084 240.445 131.084L238.818 132.818Z" fill="#263238"/>
<path d="M307.856 169.716C310.748 167.349 308.501 163.101 306.9 151.145C306.41 147.46 308.76 138.331 308.76 138.331C308.76 138.331 301.977 128.032 304.172 110.146L293.645 108.16L276.506 107.9L266.651 109.565C264.378 111.585 262.14 115.148 258.826 119.977C254.057 126.948 253.197 136.355 258.344 141.903C258.422 142.996 258.577 150.452 258.112 154.76C257.466 160.734 254.161 166.543 257.604 169.49C267.666 178.099 294.195 178.698 307.847 169.707L307.856 169.716Z" fill="#0C77B9"/>
<path opacity="0.2" d="M307.856 169.716C310.748 167.349 308.501 163.101 306.9 151.145C306.41 147.46 308.76 138.331 308.76 138.331C308.76 138.331 301.977 128.032 304.172 110.146L293.645 108.16L276.506 107.9L266.651 109.565C264.378 111.585 262.14 115.148 258.826 119.977C254.057 126.948 253.197 136.355 258.344 141.903C258.422 142.996 258.577 150.452 258.112 154.76C257.466 160.734 254.161 166.543 257.604 169.49C267.666 178.099 294.195 178.698 307.847 169.707L307.856 169.716Z" fill="white"/>
<path d="M295.746 95.2883C297.725 95.6524 299.602 94.6901 300.798 93.3896C303.467 90.4939 303.716 87.5462 302.477 85.5782C301.461 83.9656 298.948 82.9339 297.183 84.0176C295.298 85.1794 295.238 86.133 294.523 87.4595C293.792 88.812 291.984 87.7456 292.604 82.4484C291.528 81.9455 290.796 81.0179 290.28 79.9688C290.159 79.7261 289.195 76.7437 289.221 76.7524C287.017 76.3015 285.038 74.8623 283.919 72.903C283.875 73.874 284.091 74.8623 284.538 75.7293C282.963 75.634 281.362 75.5299 279.856 75.0618C278.349 74.5936 276.903 73.7179 276.051 72.3828C275.939 73.8567 276.172 75.3565 276.722 76.7263C273.357 76.1368 270.533 73.1717 270.086 69.7559C268.803 71.8453 267.443 73.7353 266.858 76.1455C266.298 78.4776 266.014 80.8792 265.791 83.2633C264.904 92.8608 265.739 97.8025 268.597 100.412C270.138 101.817 272.668 103.334 276.636 103.464L276.507 107.929C276.507 107.929 266.755 117.257 279.331 116.338C288.756 115.654 293.585 108.354 293.585 108.354L293.671 93.7971C293.671 93.7971 293.878 94.9588 295.754 95.3056L295.746 95.2883Z" fill="#FFBDA7"/>
<path d="M275.085 93.579C275.386 95.0788 276.867 96.0585 278.382 95.7637C279.905 95.469 280.886 94.0038 280.585 92.5039L275.076 93.5876L275.085 93.579Z" fill="#B16668"/>
<path d="M280.611 93.4041C280.456 94.5485 279.595 95.5196 278.39 95.7623C278.055 95.8317 277.719 95.823 277.4 95.771C277.633 94.2451 279.07 93.1874 280.62 93.4041H280.611Z" fill="#F28F8F"/>
<path d="M281.367 78.5449L284.982 80.4523C285.559 79.4726 285.215 78.2588 284.216 77.73C283.218 77.2011 281.944 77.5652 281.367 78.5449Z" fill="#263238"/>
<path d="M271.598 78.1221L267.983 80.0294C267.406 79.0497 267.75 77.836 268.749 77.3071C269.747 76.7783 271.021 77.1424 271.598 78.1221Z" fill="#263238"/>
<path d="M283.396 83.038C283.396 83.8702 282.725 84.5378 281.907 84.5378C281.089 84.5378 280.418 83.8616 280.418 83.038C280.418 82.2143 281.089 81.5381 281.907 81.5381C282.725 81.5381 283.396 82.2143 283.396 83.038Z" fill="#263238"/>
<path d="M271.896 82.577C271.896 83.4093 271.225 84.0769 270.407 84.0769C269.589 84.0769 268.918 83.4006 268.918 82.577C268.918 81.7534 269.589 81.0771 270.407 81.0771C271.225 81.0771 271.896 81.7534 271.896 82.577Z" fill="#263238"/>
<path d="M270.92 87.1301L276.007 89.8264L277.651 79.4141L270.92 87.1301Z" fill="#F0997A"/>
<path d="M276.627 103.443C281.551 103.261 289.332 101.18 291.579 95.7266C290.262 101.501 285.458 103.529 282.695 104.301C279.33 105.237 276.661 105.333 276.661 105.333L276.627 103.451V103.443Z" fill="#F0997A"/>
<path d="M276.478 106.662L276.504 107.911C276.504 107.911 269.558 113.156 264.419 121.687C259.28 130.218 260.829 140.899 260.571 151.901C260.313 162.903 260.89 186.242 260.89 186.242C260.89 186.242 256.043 185.253 253.564 181.517C253.564 175.387 255.295 154.493 255.406 147.947C255.501 142.659 255.165 140.006 254.313 135.16C253.461 130.313 254.21 120.69 266.235 109.02L276.478 106.662Z" fill="#263238"/>
<path d="M293.579 106.965C293.579 106.965 288.905 117.481 288.75 128.206C288.595 138.922 292.959 190.966 292.959 190.966C292.959 190.966 309.237 192.275 317.009 185.383C315.305 176.938 311.466 164.593 310.097 159.278C308.729 153.955 307.971 149.637 309.237 144.089C310.502 138.549 311.63 134.907 311.63 134.907L305.389 109.661L293.579 106.974V106.965Z" fill="#263238"/>
<path d="M322.083 30.3837L322.504 30.453C322.633 30.4704 322.806 30.4964 322.995 30.5311C323.133 30.5397 323.314 30.5571 323.425 30.5484C324.071 30.5744 323.916 30.2363 324.071 29.9242C324.286 29.274 324.587 28.3376 324.949 27.2192C325.663 24.9824 326.567 21.974 327.376 18.9396C327.79 17.4224 328.168 15.8965 328.495 14.4573C328.659 13.7378 328.84 13.0442 328.969 12.3853C329.107 11.7177 329.236 11.0935 329.365 10.5126C329.494 9.93173 329.58 9.3942 329.666 8.91737C329.752 8.44053 329.83 8.02438 329.881 7.68626C329.993 7.00135 330.045 6.60254 330.045 6.60254C330.045 6.60254 329.847 6.94933 329.528 7.56488C329.365 7.86832 329.167 8.24112 328.96 8.67461C328.745 9.1081 328.487 9.58494 328.246 10.1225C327.996 10.66 327.721 11.2409 327.428 11.8477C327.135 12.4546 326.86 13.1135 326.559 13.7898C325.956 15.1336 325.336 16.5814 324.751 18.038C323.572 20.951 322.479 23.89 321.695 26.1095C321.308 27.2192 320.989 28.1469 320.766 28.7971C320.705 29.1352 320.378 29.3086 320.912 29.6901C320.998 29.7681 321.153 29.8635 321.265 29.9415C321.437 30.0369 321.583 30.1149 321.704 30.1843C321.945 30.3143 322.074 30.3837 322.074 30.3837H322.083Z" fill="#263238"/>
<path d="M285.074 136.054L318.085 37.2535C318.343 36.4905 319.161 36.083 319.918 36.3431C320.676 36.6032 321.08 37.4269 320.822 38.1898L287.812 136.99C287.045 137.528 285.221 136.869 285.074 136.063V136.054Z" fill="#E0E0E0"/>
<path d="M283.919 135.609L280.003 145.779C277.928 151.484 274.528 152.168 271.292 150.903C267.935 149.594 268.219 144.21 269.071 142.025C269.923 139.84 266.566 137.491 264.913 140.421C263.261 143.351 261.677 152.325 269.725 155.498C274.296 157.301 278.952 155.567 281.328 153.4C282.404 152.411 283.411 151.319 284.41 148.744L288.739 137.482L283.911 135.601L283.919 135.609Z" fill="#455A64"/>
<path d="M284.918 134.97C286.063 134.736 287.621 135.256 288.395 136.132C289.17 137.008 288.877 137.918 287.732 138.152C286.588 138.386 285.03 137.866 284.255 136.99C283.48 136.115 283.773 135.204 284.918 134.97Z" fill="#455A64"/>
<path d="M315.145 51.0612C332.773 53.7662 348.31 61.1962 361.756 73.3512C376.07 76.9751 384.549 84.041 389.059 93.4303C380.77 53.3154 354.99 29.5082 325.715 19.538C296.431 9.57643 261.596 12.7582 230.857 39.5911C240.102 34.8835 251.094 34.4413 264.66 40.3021C282.667 38.8455 299.504 42.4348 315.145 51.0526V51.0612Z" fill="#0C77B9"/>
<g opacity="0.2">
<path d="M315.145 51.0612C332.773 53.7662 348.31 61.1962 361.756 73.3512C376.07 76.9751 384.549 84.041 389.059 93.4303C380.77 53.3154 354.99 29.5082 325.715 19.538C296.431 9.57643 261.596 12.7582 230.857 39.5911C240.102 34.8835 251.094 34.4413 264.66 40.3021C282.667 38.8455 299.504 42.4348 315.145 51.0526V51.0612Z" fill="white"/>
</g>
<path d="M264.663 40.3121C282.679 38.8556 299.507 42.4449 315.147 51.0626L325.718 19.548C292.268 8.16463 264.654 40.3121 264.654 40.3121H264.663Z" fill="#0C77B9"/>
<path opacity="0.1" d="M264.663 40.3121C282.679 38.8556 299.507 42.4449 315.147 51.0626L325.718 19.548C292.268 8.16463 264.654 40.3121 264.654 40.3121H264.663Z" fill="white"/>
<path d="M361.754 73.3514C348.309 61.1877 332.763 53.7664 315.135 51.0614L325.705 19.5469C359.155 30.9303 361.754 73.3514 361.754 73.3514Z" fill="#0C77B9"/>
<path d="M389.065 93.4295C380.776 53.3145 354.996 29.5073 325.721 19.5371C359.17 30.9205 361.761 73.3503 361.761 73.3503C376.076 76.9743 384.555 84.0401 389.065 93.4295Z" fill="#0C77B9"/>
<path opacity="0.15" d="M389.065 93.4295C380.776 53.3145 354.996 29.5073 325.721 19.5371C359.17 30.9205 361.761 73.3503 361.761 73.3503C376.076 76.9743 384.555 84.0401 389.065 93.4295Z" fill="black"/>
<path d="M329.273 162.616C320.717 163.977 306.066 159.053 295.883 158.246C293.163 158.038 290.839 158.281 289.866 158.298C286.199 158.35 284.246 154.969 281.784 152.984C281.655 152.888 281.534 152.793 281.405 152.698C280.88 152.316 280.303 151.987 279.666 151.744C278.16 150.938 277.772 150.756 277.325 150.131C275.5 151.709 273.641 151.536 272.565 151.293C271.911 150.279 271.48 149.186 271.799 148.571C272.031 148.137 272.41 148.007 272.41 148.007C272.41 148.007 272.272 147.773 272.134 146.577C271.911 144.774 273.537 144.409 274.579 144.011C274.579 144.011 274.261 143.005 274.992 142.251C275.715 141.496 276.533 140.941 280.449 139.329C281.035 139.086 281.612 138.809 282.403 138.817C282.498 138.817 282.584 138.817 282.688 138.826C283.454 138.869 284.426 139.164 285.786 139.936C286.148 140.144 286.638 140.439 287.207 140.785C287.275 140.829 287.353 140.872 287.43 140.915C290.357 142.675 295.367 145.311 297.243 145.935C299.542 146.698 314.992 145.38 314.992 145.38L308.098 131.093C308.098 131.093 302.632 119.12 305.205 110.857C311.911 110.918 315.457 111.837 319.882 117.282C324.289 122.7 334.308 147.591 335.272 152.039C336.348 157.033 337.631 161.281 329.273 162.616Z" fill="#FFBDA7"/>
<path d="M314.225 143.778L314.991 145.391C318.95 145.417 324.511 149.197 325.897 150.992C324.425 147.966 321.214 143.891 314.225 143.778Z" fill="#F0997A"/>
<path d="M274.574 144.012L279.171 141.854L274.514 143.327C274.497 143.57 274.514 143.796 274.574 144.012Z" fill="#F0997A"/>
<path d="M272.404 148.008L277.784 145.919L272.24 147.367C272.266 147.575 272.326 147.783 272.404 148V148.008Z" fill="#F0997A"/>
<path d="M305.404 109.662C312.04 109.853 317.738 111.535 322.275 119.476C326.802 127.418 330.771 137.163 333.792 145.763C336.813 154.363 337.467 158.586 335.014 160.84C332.561 163.094 328.283 163.952 321.328 163.172C314.373 162.392 304.069 159.747 304.069 159.747C304.069 159.747 305.825 156.652 305.541 151.823C305.257 146.994 303.932 146.04 303.932 146.04L314.287 145.139C314.287 145.139 310.241 136.85 307.504 131.12C304.767 125.38 302.907 112.818 305.395 109.662H305.404Z" fill="#37474F"/>
<path d="M314.296 145.139C318.643 144.809 324.04 146.014 326.511 149.309C324.032 143.535 316.483 142.945 313.393 143.266L314.305 145.13L314.296 145.139Z" fill="#263238"/>
<path d="M234.576 84.7018L230.625 78.9971C235.023 69.2176 231.916 57.3487 222.783 51.1585C212.6 44.2574 198.741 46.9884 191.89 57.236C185.047 67.4923 187.749 81.442 197.932 88.3431C207.065 94.5333 219.15 92.9641 226.484 85.1787L233.233 86.7132C234.386 86.9733 235.256 85.6728 234.576 84.7018ZM227.371 81.2859C224.548 85.5168 220.433 88.3431 215.905 89.6262L213.616 90.1378C208.649 90.944 203.39 89.9384 198.896 86.8953C189.514 80.5317 187.018 67.6657 193.336 58.2157C196.357 53.6901 200.859 50.7684 205.757 49.6326L208.072 49.2338C212.738 48.6963 217.61 49.7627 221.81 52.615C231.193 58.9786 233.689 71.8359 227.379 81.2859H227.371Z" fill="#455A64"/>
<path d="M221.809 52.616C217.609 49.7636 212.737 48.7059 208.071 49.2348L205.756 49.6336C200.858 50.7693 196.356 53.6997 193.335 58.2167C187.017 67.6667 189.513 80.5326 198.895 86.8962C203.389 89.9393 208.648 90.9363 213.615 90.1387L215.904 89.6272C220.432 88.3527 224.546 85.5177 227.37 81.2869C233.688 71.8368 231.183 58.9709 221.801 52.616H221.809Z" fill="white"/>
<path d="M207.824 80.3483C207.04 80.3483 206.291 80.0188 205.749 79.4466L199.319 72.5281C198.252 71.3751 198.303 69.5631 199.448 68.488C200.593 67.4043 202.392 67.465 203.459 68.6181L207.634 73.109L217.525 60.4945C218.497 59.2547 220.279 59.0467 221.51 60.0177C222.741 60.9974 222.947 62.792 221.983 64.0318L210.053 79.2559C209.545 79.9061 208.77 80.3049 207.944 80.3396C207.901 80.3396 207.867 80.3396 207.824 80.3396V80.3483Z" fill="#0C77B9"/>
</svg>
