<svg width="493" height="253" viewBox="0 0 493 253" fill="none" xmlns="http://www.w3.org/2000/svg">
<path d="M72.2035 224.352C168.48 262.479 324.515 262.487 420.792 224.352C517.069 186.218 517.069 124.392 420.792 86.2572C324.515 48.1226 168.48 48.1226 72.2035 86.2572C-24.0734 124.392 -24.0623 186.201 72.2035 224.352Z" fill="#F5F5F5"/>
<path d="M123.52 210.512L190.593 238.658C201.504 243.234 219.199 243.234 230.111 238.658L394.512 169.683C405.423 165.107 405.423 157.685 394.512 153.101L327.439 124.954C316.516 120.379 298.821 120.379 287.91 124.954L123.52 193.929C112.598 198.505 112.598 205.928 123.52 210.512Z" fill="#EBEBEB"/>
<path d="M386.466 161.384C385.78 158.738 384.54 154.42 380.236 151.002C375.575 147.388 370.081 144.394 364.001 142.156C357.959 139.92 354.661 133.897 366.104 134.114C376.661 134.339 386.698 142.96 387.882 150.294L386.466 161.384Z" fill="#37474F"/>
<path d="M387.402 154.42C387.26 154.42 387.123 154.382 387.018 154.312C386.914 154.241 386.849 154.145 386.838 154.042C385.565 142.293 368.125 136.752 364.705 136.519C364.623 136.524 364.54 136.516 364.463 136.496C364.385 136.475 364.315 136.442 364.257 136.4C364.198 136.358 364.154 136.306 364.125 136.25C364.097 136.193 364.087 136.133 364.094 136.074C364.101 136.014 364.127 135.956 364.168 135.904C364.21 135.852 364.266 135.808 364.334 135.773C364.402 135.739 364.479 135.716 364.561 135.706C364.642 135.696 364.725 135.699 364.805 135.715C368.59 135.964 386.672 141.537 388.044 153.994C388.05 154.048 388.042 154.102 388.019 154.153C387.996 154.205 387.959 154.253 387.911 154.294C387.862 154.335 387.803 154.368 387.737 154.393C387.671 154.417 387.598 154.432 387.524 154.436L387.402 154.42Z" fill="white"/>
<path d="M395.726 161.383C396.379 159.533 398.98 156.421 402.366 155.553C405.753 154.684 413.156 155.939 416.498 152.055C419.84 148.17 416.874 142.814 417.427 140.619C417.981 138.424 420.106 136.598 424.322 134.491C428.538 132.384 430.563 128.323 428.173 126.385C425.783 124.447 421.478 124.206 415.823 127.036C410.168 129.867 409.98 129.135 405 128.805C400.02 128.476 395.583 132.255 394.797 137.515L395.726 161.383Z" fill="#455A64"/>
<path d="M395.349 152.08H395.216C395.144 152.068 395.075 152.047 395.014 152.016C394.954 151.985 394.902 151.945 394.863 151.899C394.824 151.853 394.798 151.802 394.786 151.749C394.774 151.696 394.778 151.641 394.796 151.589C398.414 139.953 416.674 129.193 423.336 127.367C423.483 127.329 423.644 127.334 423.785 127.382C423.927 127.431 424.035 127.518 424.088 127.624C424.141 127.731 424.134 127.849 424.067 127.951C424.001 128.054 423.881 128.133 423.734 128.171C417.238 129.957 399.388 140.443 395.902 151.806C395.862 151.889 395.787 151.96 395.688 152.009C395.588 152.058 395.469 152.083 395.349 152.08Z" fill="white"/>
<path d="M403.882 140.113C403.768 140.113 403.657 140.089 403.563 140.043C403.468 139.997 403.394 139.932 403.351 139.856C401.558 136.639 401.901 132.377 401.912 132.192C401.954 132.106 402.034 132.032 402.139 131.982C402.244 131.931 402.369 131.908 402.495 131.914C402.621 131.92 402.74 131.957 402.834 132.017C402.929 132.077 402.994 132.159 403.019 132.248C403.019 132.248 402.676 136.519 404.38 139.542C404.409 139.593 404.423 139.647 404.422 139.702C404.421 139.757 404.406 139.811 404.376 139.861C404.346 139.911 404.302 139.956 404.248 139.994C404.194 140.032 404.129 140.062 404.059 140.081C404.003 140.1 403.943 140.111 403.882 140.113Z" fill="white"/>
<path d="M412.493 148.204C409.992 148.204 403.573 147.955 398.549 145.558C398.423 145.499 398.334 145.405 398.303 145.298C398.272 145.191 398.301 145.079 398.383 144.987C398.465 144.896 398.594 144.831 398.742 144.809C398.889 144.786 399.043 144.807 399.169 144.867C405.089 147.689 413.389 147.368 413.477 147.36C413.553 147.356 413.628 147.364 413.699 147.382C413.769 147.4 413.835 147.429 413.89 147.465C413.946 147.502 413.991 147.546 414.023 147.596C414.054 147.645 414.072 147.699 414.075 147.754C414.08 147.808 414.069 147.862 414.045 147.913C414.021 147.964 413.983 148.011 413.934 148.051C413.884 148.091 413.824 148.124 413.757 148.148C413.691 148.171 413.618 148.185 413.544 148.188C413.411 148.196 413.035 148.204 412.493 148.204Z" fill="white"/>
<path d="M205.718 237.219C204.435 233.866 200.097 230.971 192.915 227.963C185.733 224.955 173.438 221.079 176.315 215.828C179.192 210.576 191.708 214.806 196.389 217.774C202.52 221.666 207.268 227.424 207.4 231.389L205.718 237.219Z" fill="#37474F"/>
<path d="M206.88 233.745C206.749 233.746 206.621 233.713 206.518 233.653C206.415 233.593 206.344 233.509 206.316 233.416C203.66 224.24 188.698 217.147 181.428 215.917C181.28 215.892 181.152 215.825 181.071 215.732C180.99 215.638 180.963 215.526 180.996 215.418C181.033 215.312 181.125 215.22 181.253 215.161C181.381 215.103 181.534 215.082 181.682 215.104C189.207 216.383 204.678 223.733 207.434 233.247C207.45 233.3 207.451 233.355 207.438 233.409C207.424 233.463 207.396 233.514 207.354 233.56C207.313 233.605 207.26 233.645 207.197 233.675C207.135 233.706 207.065 233.727 206.991 233.737L206.88 233.745Z" fill="white"/>
<path d="M214.983 237.219C215.559 233.568 219.731 231.397 224.81 230.529C229.89 229.66 234.405 229.073 234.77 225.02C235.135 220.967 230.034 217.629 234.128 214.147C238.223 210.665 244.464 207.022 244.033 200.91C243.601 194.799 235.788 194.163 232.745 198.015C229.702 201.867 229.071 204.537 224.788 204.167C220.506 203.797 213.644 205.832 212.781 215.136L214.983 237.219Z" fill="#455A64"/>
<path d="M214.217 229.851H214.14C213.991 229.836 213.856 229.778 213.765 229.691C213.674 229.603 213.634 229.494 213.653 229.385C215.346 220.274 224.133 212.497 230.551 206.82C233.307 204.407 235.686 202.276 236.715 200.732C236.746 200.683 236.79 200.638 236.845 200.601C236.9 200.565 236.964 200.536 237.034 200.517C237.104 200.499 237.178 200.49 237.253 200.493C237.327 200.495 237.4 200.508 237.468 200.531C237.603 200.58 237.708 200.664 237.76 200.768C237.811 200.871 237.806 200.985 237.744 201.086C236.638 202.694 234.236 204.865 231.426 207.35C225.096 212.98 216.431 220.611 214.826 229.498C214.807 229.602 214.733 229.697 214.619 229.763C214.506 229.829 214.362 229.861 214.217 229.851Z" fill="white"/>
<path d="M221.048 216.825C220.932 216.826 220.817 216.8 220.722 216.751C220.626 216.702 220.555 216.632 220.517 216.552C219.506 213.993 219.025 211.34 219.09 208.679C219.095 208.568 219.16 208.464 219.269 208.388C219.379 208.311 219.524 208.268 219.676 208.269C219.751 208.27 219.825 208.281 219.894 208.304C219.963 208.326 220.025 208.357 220.076 208.397C220.128 208.437 220.168 208.484 220.194 208.535C220.22 208.586 220.233 208.64 220.23 208.695C220.172 211.257 220.63 213.812 221.591 216.278C221.617 216.329 221.628 216.384 221.624 216.438C221.62 216.493 221.601 216.546 221.568 216.595C221.535 216.644 221.488 216.687 221.431 216.723C221.374 216.758 221.308 216.785 221.237 216.801C221.176 216.817 221.113 216.826 221.048 216.825Z" fill="white"/>
<path d="M228.893 224.804C224.714 224.633 220.601 223.964 216.72 222.825C216.65 222.807 216.586 222.778 216.532 222.741C216.478 222.704 216.434 222.659 216.404 222.61C216.374 222.56 216.358 222.507 216.357 222.452C216.357 222.398 216.371 222.345 216.399 222.294C216.425 222.244 216.464 222.197 216.515 222.157C216.566 222.118 216.627 222.086 216.695 222.063C216.763 222.041 216.836 222.028 216.911 222.027C216.986 222.025 217.06 222.034 217.13 222.053C220.886 223.154 224.862 223.811 228.904 223.999C228.979 224 229.053 224.012 229.122 224.034C229.191 224.056 229.252 224.088 229.304 224.128C229.356 224.168 229.396 224.214 229.422 224.266C229.448 224.317 229.46 224.371 229.457 224.426C229.449 224.529 229.385 224.627 229.28 224.697C229.175 224.768 229.036 224.806 228.893 224.804Z" fill="white"/>
<path d="M124.915 176.944C125.181 176.864 126.022 163.956 118.364 156.349C110.706 148.741 101.466 147.865 95.3791 149.714C89.2926 151.564 90.5321 156.108 98.024 158.834C105.516 161.56 114.845 166.313 117.069 174.998L124.915 176.944Z" fill="#37474F"/>
<path d="M122.104 173.158C121.969 173.157 121.838 173.122 121.735 173.059C121.632 172.996 121.563 172.909 121.539 172.812C118.673 159.704 108.005 153.278 98.986 151.638C98.9131 151.625 98.8442 151.603 98.7834 151.571C98.7226 151.539 98.6712 151.499 98.632 151.452C98.5929 151.406 98.5668 151.354 98.5554 151.301C98.544 151.247 98.5474 151.192 98.5655 151.139C98.5802 151.08 98.6123 151.023 98.6597 150.974C98.7071 150.925 98.7687 150.883 98.8401 150.853C98.9116 150.822 98.9913 150.803 99.0738 150.797C99.1563 150.791 99.2396 150.798 99.318 150.817C108.691 152.522 119.769 159.157 122.723 172.659C122.736 172.713 122.733 172.768 122.716 172.822C122.699 172.875 122.667 172.925 122.623 172.969C122.579 173.013 122.523 173.051 122.458 173.079C122.394 173.107 122.322 173.126 122.247 173.134L122.104 173.158Z" fill="white"/>
<path d="M123.539 200.91C122.432 197.508 117.662 195.281 112.096 194.894C106.308 194.517 99.5801 194.09 97.7873 190.552C95.9946 187.013 97.7873 182.196 96.9795 179.84C95.9946 176.985 94.4895 175.288 86.887 173.551C80.0812 171.999 76.3187 167.271 83.1798 165.276C90.0409 163.282 96.9131 164.544 101.583 166.08C106.253 167.616 106.452 169.201 113.026 168.791C119.599 168.38 124.501 171.38 124.911 174.275L123.539 200.91Z" fill="#455A64"/>
<path d="M123.542 189.369C123.425 189.369 123.31 189.342 123.213 189.293C123.116 189.245 123.042 189.176 123 189.096C117.6 178.159 95.5113 168.26 88.1632 167.632C88.0144 167.618 87.8789 167.562 87.7859 167.477C87.6929 167.391 87.6496 167.282 87.6653 167.174C87.682 167.064 87.7577 166.964 87.8758 166.895C87.994 166.825 88.145 166.793 88.296 166.804C95.8433 167.455 118.54 177.604 124.073 188.815C124.1 188.866 124.112 188.92 124.109 188.975C124.106 189.029 124.087 189.083 124.056 189.132C124.024 189.182 123.978 189.226 123.923 189.263C123.867 189.299 123.801 189.327 123.73 189.345L123.542 189.369Z" fill="white"/>
<path d="M118.362 182.8H118.24C118.092 182.775 117.964 182.708 117.883 182.615C117.802 182.521 117.775 182.409 117.808 182.301C119.623 176.599 117.808 172.932 117.808 172.892C117.757 172.785 117.766 172.668 117.833 172.566C117.901 172.465 118.021 172.386 118.168 172.349C118.315 172.312 118.476 172.318 118.616 172.367C118.756 172.416 118.864 172.504 118.915 172.61C118.992 172.763 120.829 176.535 118.915 182.486C118.883 182.575 118.812 182.654 118.712 182.711C118.612 182.768 118.489 182.799 118.362 182.8Z" fill="white"/>
<path d="M122.103 187.006C122.01 187.006 121.919 186.989 121.837 186.957C117.411 185.212 107.783 186.459 107.684 186.467C107.609 186.481 107.531 186.484 107.455 186.475C107.379 186.466 107.306 186.446 107.24 186.416C107.175 186.386 107.119 186.347 107.076 186.3C107.033 186.254 107.003 186.201 106.988 186.146C106.974 186.091 106.975 186.035 106.992 185.98C107.009 185.925 107.041 185.874 107.087 185.828C107.132 185.783 107.19 185.745 107.257 185.716C107.323 185.688 107.397 185.67 107.473 185.663C107.883 185.606 117.588 184.352 122.38 186.234C122.509 186.271 122.616 186.341 122.679 186.432C122.743 186.522 122.759 186.625 122.725 186.724C122.692 186.822 122.61 186.908 122.495 186.966C122.381 187.024 122.242 187.049 122.103 187.038V187.006Z" fill="white"/>
<path d="M221.723 39.6304C217.484 36.7354 209.815 35.6095 200.188 39.8958C190.56 44.1821 182.946 57.8935 180.556 67.592C178.166 77.2905 176.661 89.9565 181.441 95.3284C186.222 100.7 203.574 106.394 203.574 106.394L205.677 101.111L221.723 39.6304Z" fill="#0C77B9"/>
<path opacity="0.4" d="M221.723 39.6304C217.484 36.7354 209.815 35.6095 200.188 39.8958C190.56 44.1821 182.946 57.8935 180.556 67.592C178.166 77.2905 176.661 89.9565 181.441 95.3284C186.222 100.7 203.574 106.394 203.574 106.394L205.677 101.111L221.723 39.6304Z" fill="white"/>
<path d="M186.197 93.7201C193.711 100.258 205.718 101.143 205.718 101.143L252.031 81.6573L233.484 73.8809L186.197 93.7201Z" fill="#0C77B9"/>
<path opacity="0.2" d="M186.197 93.7201C193.711 100.258 205.718 101.143 205.718 101.143L252.031 81.6573L233.484 73.8809L186.197 93.7201Z" fill="black"/>
<path d="M186.199 93.72C183.155 91.0983 182.536 84.3512 184.185 73.9209C185.977 62.4693 191.809 44.753 205.708 38.9146C222.009 32.0791 238.564 49.0635 233.518 73.9209L186.199 93.72Z" fill="#0C77B9"/>
<path d="M294.69 149.145C303.245 156.189 309.508 157.589 311.799 159.092C314.09 160.596 313.182 163.845 308.07 164.882C302.957 165.92 297.213 165.309 293.617 163.065C290.02 160.821 287.353 157.757 283.746 156.165C280.138 154.573 278.345 154.195 277.615 152.144C276.885 150.093 278.832 143.7 278.832 143.7L294.69 149.145Z" fill="#263238"/>
<path d="M289.788 137.951C289.335 140.701 288.781 143.122 291.659 146.25C292.588 147.256 293.601 148.22 294.691 149.137C299.693 153.327 303.754 156.592 304.473 157.179C305.193 157.766 301.53 159.897 296.992 158.788C292.455 157.678 288.195 153.158 285.03 150.48C283.624 149.282 282.252 148.197 281.168 147.36C279.709 146.245 278.863 144.78 278.788 143.243L278.578 138.9L289.788 137.951Z" fill="#FFA8A7"/>
<path d="M268.72 160.669C277.274 167.721 283.527 169.113 285.828 170.617C288.13 172.12 287.212 175.377 282.099 176.415C276.986 177.452 271.243 176.841 267.635 174.589C264.028 172.337 261.383 169.29 257.775 167.697C254.168 166.105 252.364 165.727 251.645 163.676C250.925 161.626 252.862 155.232 252.862 155.232L268.72 160.669Z" fill="#263238"/>
<path d="M263.804 149.482C263.361 152.241 262.797 154.653 265.685 157.782C266.612 158.789 267.625 159.753 268.717 160.669C273.719 164.867 277.77 168.132 278.489 168.711C279.208 169.29 275.556 171.429 271.008 170.319C266.46 169.209 262.21 164.69 259.056 162.02C257.651 160.813 256.279 159.736 255.194 158.899C253.737 157.783 252.891 156.319 252.815 154.782L252.594 150.431L263.804 149.482Z" fill="#FFA8A7"/>
<path d="M229.213 9.11088e-06H235.786C238.354 -0.0021041 240.897 0.363412 243.269 1.07568C245.642 1.78794 247.799 2.833 249.616 4.15113C251.433 5.46926 252.875 7.03463 253.859 8.75781C254.843 10.481 255.35 12.3282 255.352 14.1939V49.8676H209.67V14.1939C209.673 10.4287 211.733 6.81846 215.398 4.15682C219.063 1.49518 224.032 8.50725e-06 229.213 9.11088e-06Z" fill="#263238"/>
<path d="M258.098 41.4481C250.451 35.6097 246.544 35.0146 241.896 35.0146L250.75 53.913C250.75 53.913 265.313 60.9095 273.834 64.7696L279.245 56.1004C279.245 56.1004 265.744 47.2624 258.098 41.4481Z" fill="#FFA8A7"/>
<path d="M206.416 84.0693C203.572 88.5245 199.909 93.2612 203.617 97.8451C207.324 102.429 237.435 97.8451 237.435 97.8451V84.0693H206.416Z" fill="#263238"/>
<path d="M238.993 35.014C242.313 34.8129 246.076 34.8853 250.06 39.7587C254.043 44.6321 256.279 47.3663 255.017 54.4592C253.756 61.5522 249.041 67.0206 248.698 69.6745C248.355 72.3283 249.23 85.0827 249.23 85.0827C249.23 85.0827 243.409 91.1221 228.934 91.4036C224.667 91.4715 220.432 90.8486 216.537 89.5801C212.642 88.3116 209.184 86.4292 206.414 84.0694L217.48 69.6423L214.647 40.3216L225.459 35.6171L238.993 35.014Z" fill="#0C77B9"/>
<path d="M238.993 35.014C242.313 34.8129 246.076 34.8853 250.06 39.7587C254.043 44.6321 256.279 47.3663 255.017 54.4592C253.756 61.5522 249.041 67.0206 248.698 69.6745C248.355 72.3283 249.23 85.0827 249.23 85.0827C249.23 85.0827 243.409 91.1221 228.934 91.4036C224.667 91.4715 220.432 90.8486 216.537 89.5801C212.642 88.3116 209.184 86.4292 206.414 84.0694L217.48 69.6423L214.647 40.3216L225.459 35.6171L238.993 35.014Z" fill="#E0E0E0"/>
<path d="M225.471 45.3885C224.422 45.3885 223.384 45.2383 222.415 44.9464C221.446 44.6545 220.566 44.2267 219.825 43.6874C219.084 43.1481 218.497 42.508 218.096 41.8036C217.696 41.0992 217.491 40.3444 217.492 39.5823V22.6943H225.471V45.3885Z" fill="#263238"/>
<path d="M247.827 6.70703C250.228 7.74443 253.216 12.1514 252.917 21.3834C252.674 29.2162 249.177 31.1463 247.384 31.7092C245.591 32.2721 242.249 31.9263 238.952 31.5242V36.2287C238.952 36.2287 243.5 40.0647 243.212 42.2119C242.925 44.3591 236.65 44.8818 232.4 42.7748C229.644 41.3321 227.277 39.5329 225.418 37.4672V26.104C225.418 26.104 223.204 28.2592 219.575 26.5061C215.945 24.753 215.801 20.4184 217.915 18.8663C220.028 17.3143 224.554 17.7968 225.418 19.952C225.418 19.952 230.663 20.0887 237.591 17.3062C240.325 16.2504 242.678 14.74 244.457 12.8981C246.236 11.0562 247.39 8.93484 247.827 6.70703Z" fill="#FFA8A7"/>
<path d="M240.887 19.4213C240.903 19.6815 240.776 19.9357 240.535 20.128C240.293 20.3203 239.956 20.4349 239.598 20.4466C239.24 20.4583 238.89 20.3662 238.625 20.1905C238.361 20.0148 238.203 19.7699 238.187 19.5097C238.179 19.3809 238.206 19.2522 238.266 19.1309C238.327 19.0097 238.42 18.8982 238.539 18.803C238.659 18.7078 238.803 18.6307 238.964 18.576C239.125 18.5213 239.299 18.4902 239.476 18.4844C239.653 18.4786 239.831 18.4982 239.997 18.5422C240.164 18.5861 240.318 18.6535 240.449 18.7405C240.58 18.8275 240.686 18.9324 240.761 19.0492C240.836 19.166 240.879 19.2924 240.887 19.4213Z" fill="#263238"/>
<path d="M238.445 16.4053L235.634 17.6679C235.406 17.3882 235.336 17.0548 235.439 16.7382C235.542 16.4216 235.811 16.1466 236.188 15.9711C236.374 15.8895 236.582 15.8359 236.797 15.8136C237.013 15.7913 237.232 15.8006 237.443 15.8411C237.654 15.8816 237.851 15.9524 238.023 16.0493C238.195 16.1463 238.339 16.2673 238.445 16.4053Z" fill="#263238"/>
<path d="M241.252 26.0547L244.394 26.7865C244.335 26.938 244.234 27.0793 244.098 27.2022C243.963 27.325 243.794 27.4269 243.604 27.5018C243.413 27.5767 243.204 27.6232 242.988 27.6384C242.772 27.6537 242.554 27.6375 242.347 27.5907C241.93 27.4841 241.584 27.2659 241.38 26.9805C241.177 26.6951 241.131 26.364 241.252 26.0547Z" fill="#F28F8F"/>
<path d="M252.032 16.3975L249.287 15.0143C249.401 14.8793 249.553 14.7628 249.731 14.6719C249.91 14.5811 250.112 14.5179 250.326 14.4862C250.54 14.4546 250.76 14.4551 250.974 14.4879C251.187 14.5206 251.389 14.5848 251.567 14.6765C251.932 14.8663 252.183 15.1501 252.269 15.47C252.356 15.7899 252.271 16.1216 252.032 16.3975Z" fill="#263238"/>
<path d="M251.369 18.705C251.373 18.8992 251.298 19.09 251.154 19.2535C251.01 19.417 250.802 19.5461 250.558 19.6246C250.314 19.7032 250.043 19.7277 249.779 19.6951C249.516 19.6625 249.271 19.5743 249.076 19.4414C248.882 19.3085 248.745 19.1369 248.683 18.9479C248.622 18.7589 248.638 18.561 248.73 18.3787C248.822 18.1964 248.986 18.0379 249.202 17.9229C249.417 17.8079 249.674 17.7415 249.941 17.732C250.123 17.7277 250.304 17.7495 250.474 17.796C250.644 17.8426 250.8 17.9131 250.932 18.0035C251.065 18.0939 251.172 18.2023 251.247 18.3227C251.321 18.4431 251.363 18.573 251.369 18.705Z" fill="#263238"/>
<path d="M244.973 18.1426L245.194 24.0694L249.488 23.1044L244.973 18.1426Z" fill="#F28F8F"/>
<path d="M238.996 31.5235C236.263 31.2983 230.774 30.092 229.557 28.749C229.791 29.6069 230.448 30.3731 231.405 30.9042C233.197 32.1507 238.996 33.0514 238.996 33.0514V31.5235Z" fill="#F28F8F"/>
<path d="M210.346 165.276L122.291 128.332L307.674 50.5508L395.729 87.4951L210.346 165.276Z" fill="#0C77B9"/>
<path opacity="0.4" d="M210.346 165.276L122.291 128.332L307.674 50.5508L395.729 87.4951L210.346 165.276Z" fill="white"/>
<path d="M122.291 128.333V202.222L126.928 204.168V153.609L205.72 186.661V237.22L210.346 239.166V165.277L122.291 128.333Z" fill="#0C77B9"/>
<path opacity="0.3" d="M122.291 128.333V202.222L126.928 204.168V153.609L205.72 186.661V237.22L210.346 239.166V165.277L122.291 128.333Z" fill="black"/>
<path d="M126.93 204.167L131.566 202.221V155.554L126.93 153.607V204.167Z" fill="#0C77B9"/>
<path opacity="0.5" d="M126.93 204.167L131.566 202.221V155.554L126.93 153.607V204.167Z" fill="black"/>
<path d="M210.346 239.166L214.982 237.22V186.66L391.092 112.772V163.331L395.729 161.385V87.4961L210.346 165.277V239.166Z" fill="#0C77B9"/>
<path opacity="0.1" d="M210.346 239.166L214.982 237.22V186.66L391.092 112.772V163.331L395.729 161.385V87.4961L210.346 165.277V239.166Z" fill="black"/>
<path d="M214.984 182.775V167.222L270.604 143.885V159.438L214.984 182.775Z" fill="#0C77B9"/>
<path opacity="0.3" d="M214.984 182.775V167.222L270.604 143.885V159.438L214.984 182.775Z" fill="black"/>
<path d="M275.225 157.499V141.938L330.844 118.608V134.161L275.225 157.499Z" fill="#0C77B9"/>
<path opacity="0.3" d="M275.225 157.499V141.938L330.844 118.608V134.161L275.225 157.499Z" fill="black"/>
<path d="M335.484 132.217V116.664L391.093 93.3262V108.887L335.484 132.217Z" fill="#0C77B9"/>
<path opacity="0.3" d="M335.484 132.217V116.664L391.093 93.3262V108.887L335.484 132.217Z" fill="black"/>
<path d="M252.032 151.662V152.909C252.032 153.592 249.818 155.08 247.085 156.222L238.431 159.857C235.698 160.999 233.484 161.377 233.484 160.661V159.423L252.032 151.662Z" fill="#263238"/>
<path d="M312.31 126.386V127.632C312.31 128.316 310.096 129.804 307.363 130.945L298.709 134.58C295.987 135.722 293.773 136.092 293.773 135.385V134.138L312.31 126.386Z" fill="#263238"/>
<path d="M372.558 101.109V102.348C372.558 103.039 370.344 104.519 367.622 105.669L358.957 109.296C356.235 110.446 354.021 110.816 354.021 110.1V108.854L372.558 101.109Z" fill="#263238"/>
<path d="M391.093 163.331L386.467 161.385V114.718L391.093 112.771V163.331Z" fill="#0C77B9"/>
<path opacity="0.3" d="M391.093 163.331L386.467 161.385V114.718L391.093 112.771V163.331Z" fill="black"/>
<path d="M261.328 92.4988V92.2173C261.348 91.9683 261.447 91.726 261.618 91.5097C261.789 91.2933 262.027 91.1089 262.313 90.9708L320.644 66.5235C320.951 66.4117 321.29 66.3535 321.634 66.3535C321.978 66.3535 322.317 66.4117 322.624 66.5235L334.554 71.5256C334.84 71.6636 335.078 71.8481 335.249 72.0644C335.42 72.2808 335.519 72.523 335.539 72.7721V73.0616C335.516 73.3099 335.414 73.5511 335.241 73.766C335.069 73.9809 334.829 74.1637 334.543 74.3L276.279 98.7473C275.971 98.8591 275.632 98.9173 275.288 98.9173C274.944 98.9173 274.605 98.8591 274.298 98.7473L262.313 93.7211C262.031 93.5855 261.796 93.4049 261.625 93.193C261.455 92.9811 261.353 92.7436 261.328 92.4988Z" fill="#0C77B9"/>
<path opacity="0.7" d="M261.328 92.4988V92.2173C261.348 91.9683 261.447 91.726 261.618 91.5097C261.789 91.2933 262.027 91.1089 262.313 90.9708L320.644 66.5235C320.951 66.4117 321.29 66.3535 321.634 66.3535C321.978 66.3535 322.317 66.4117 322.624 66.5235L334.554 71.5256C334.84 71.6636 335.078 71.8481 335.249 72.0644C335.42 72.2808 335.519 72.523 335.539 72.7721V73.0616C335.516 73.3099 335.414 73.5511 335.241 73.766C335.069 73.9809 334.829 74.1637 334.543 74.3L276.279 98.7473C275.971 98.8591 275.632 98.9173 275.288 98.9173C274.944 98.9173 274.605 98.8591 274.298 98.7473L262.313 93.7211C262.031 93.5855 261.796 93.4049 261.625 93.193C261.455 92.9811 261.353 92.7436 261.328 92.4988Z" fill="white"/>
<path d="M262.312 91.7982L274.242 96.8083C274.549 96.9201 274.888 96.9783 275.232 96.9783C275.576 96.9783 275.915 96.9201 276.223 96.8083L334.487 72.361C334.593 72.3257 334.683 72.2691 334.746 72.1978C334.808 72.1265 334.842 72.0436 334.842 71.9589C334.842 71.8742 334.808 71.7913 334.746 71.72C334.683 71.6488 334.593 71.5921 334.487 71.5568L322.557 66.5548C322.25 66.443 321.911 66.3848 321.567 66.3848C321.223 66.3848 320.884 66.443 320.576 66.5548L262.301 91.0021C261.77 91.2031 261.77 91.573 262.312 91.7982Z" fill="#0C77B9"/>
<path opacity="0.9" d="M262.312 91.7982L274.242 96.8083C274.549 96.9201 274.888 96.9783 275.232 96.9783C275.576 96.9783 275.915 96.9201 276.223 96.8083L334.487 72.361C334.593 72.3257 334.683 72.2691 334.746 72.1978C334.808 72.1265 334.842 72.0436 334.842 71.9589C334.842 71.8742 334.808 71.7913 334.746 71.72C334.683 71.6488 334.593 71.5921 334.487 71.5568L322.557 66.5548C322.25 66.443 321.911 66.3848 321.567 66.3848C321.223 66.3848 320.884 66.443 320.576 66.5548L262.301 91.0021C261.77 91.2031 261.77 91.573 262.312 91.7982Z" fill="white"/>
<path d="M188.169 115.78L223.26 130.513C223.568 130.625 223.907 130.683 224.251 130.683C224.594 130.683 224.934 130.625 225.241 130.513L251.07 119.672C251.18 119.64 251.274 119.584 251.34 119.513C251.406 119.441 251.442 119.357 251.442 119.27C251.442 119.184 251.406 119.1 251.34 119.028C251.274 118.957 251.18 118.901 251.07 118.868L215.967 104.144C215.663 104.029 215.325 103.969 214.983 103.969C214.64 103.969 214.302 104.029 213.998 104.144L188.169 114.952C187.616 115.185 187.616 115.555 188.169 115.78Z" fill="#0C77B9"/>
<path opacity="0.8" d="M188.169 115.78L223.26 130.513C223.568 130.625 223.907 130.683 224.251 130.683C224.594 130.683 224.934 130.625 225.241 130.513L251.07 119.672C251.18 119.64 251.274 119.584 251.34 119.513C251.406 119.441 251.442 119.357 251.442 119.27C251.442 119.184 251.406 119.1 251.34 119.028C251.274 118.957 251.18 118.901 251.07 118.868L215.967 104.144C215.663 104.029 215.325 103.969 214.983 103.969C214.64 103.969 214.302 104.029 213.998 104.144L188.169 114.952C187.616 115.185 187.616 115.555 188.169 115.78Z" fill="white"/>
<path d="M213.997 104.117L189.463 114.403L223.259 128.588C223.567 128.7 223.906 128.758 224.25 128.758C224.594 128.758 224.933 128.7 225.24 128.588L249.819 118.295L216.011 104.117C215.701 103.997 215.355 103.934 215.004 103.934C214.653 103.934 214.307 103.997 213.997 104.117Z" fill="#0C77B9"/>
<path opacity="0.7" d="M213.997 104.117L189.463 114.403L223.259 128.588C223.567 128.7 223.906 128.758 224.25 128.758C224.594 128.758 224.933 128.7 225.24 128.588L249.819 118.295L216.011 104.117C215.701 103.997 215.355 103.934 215.004 103.934C214.653 103.934 214.307 103.997 213.997 104.117Z" fill="white"/>
<path d="M188.17 113.189L223.261 127.914C223.569 128.026 223.908 128.084 224.252 128.084C224.595 128.084 224.934 128.026 225.242 127.914L251.071 117.082C251.177 117.046 251.266 116.99 251.329 116.918C251.392 116.847 251.426 116.764 251.426 116.679C251.426 116.595 251.392 116.512 251.329 116.441C251.266 116.369 251.177 116.313 251.071 116.277L215.968 101.521C215.662 101.41 215.325 101.353 214.983 101.353C214.642 101.353 214.305 101.41 213.999 101.521L188.17 112.361C188.049 112.389 187.943 112.444 187.868 112.518C187.792 112.593 187.752 112.683 187.752 112.775C187.752 112.868 187.792 112.957 187.868 113.032C187.943 113.106 188.049 113.162 188.17 113.189Z" fill="#0C77B9"/>
<path opacity="0.9" d="M188.17 113.189L223.261 127.914C223.569 128.026 223.908 128.084 224.252 128.084C224.595 128.084 224.934 128.026 225.242 127.914L251.071 117.082C251.177 117.046 251.266 116.99 251.329 116.918C251.392 116.847 251.426 116.764 251.426 116.679C251.426 116.595 251.392 116.512 251.329 116.441C251.266 116.369 251.177 116.313 251.071 116.277L215.968 101.521C215.662 101.41 215.325 101.353 214.983 101.353C214.642 101.353 214.305 101.41 213.999 101.521L188.17 112.361C188.049 112.389 187.943 112.444 187.868 112.518C187.792 112.593 187.752 112.683 187.752 112.775C187.752 112.868 187.792 112.957 187.868 113.032C187.943 113.106 188.049 113.162 188.17 113.189Z" fill="white"/>
<path d="M207.623 97.8452C206.461 100.145 208.242 102.003 211.618 101.987C213.391 101.92 215.103 101.491 216.557 100.75C218.011 100.009 219.149 98.9857 219.84 97.7969C221.013 95.497 219.22 93.6393 215.845 93.6554C214.072 93.7226 212.36 94.1512 210.906 94.8922C209.452 95.6331 208.314 96.6565 207.623 97.8452Z" fill="#0C77B9"/>
<path opacity="0.1" d="M207.623 97.8452C206.461 100.145 208.242 102.003 211.618 101.987C213.391 101.92 215.103 101.491 216.557 100.75C218.011 100.009 219.149 98.9857 219.84 97.7969C221.013 95.497 219.22 93.6393 215.845 93.6554C214.072 93.7226 212.36 94.1512 210.906 94.8922C209.452 95.6331 208.314 96.6565 207.623 97.8452Z" fill="black"/>
<path d="M210.423 108.758C207.778 113.961 211.828 118.167 219.475 118.135C227.122 118.103 235.432 113.824 238.088 108.645C240.744 103.467 236.672 99.2445 229.036 99.2687C221.4 99.2928 213.056 103.547 210.423 108.758Z" fill="#455A64"/>
<path d="M216.618 93.7197L212.037 96.0438L207.455 98.3679C205.939 102.735 205.486 109.554 211.118 115.425L237.478 102.043C231.79 96.1323 222.738 94.154 216.618 93.7197Z" fill="#455A64"/>
<path d="M219.263 94.0342C219.263 94.0342 220.082 99.3016 214.648 101.69C214.648 101.69 219.761 100.669 221.288 98.0551C222.815 95.4415 219.263 94.0342 219.263 94.0342Z" fill="#263238"/>
<path d="M219.941 94.6277C217.9 92.5663 215.154 90.9279 211.974 89.875L208.3 91.7729L207.89 91.982L204.205 93.8798C204.525 96.399 205.737 98.815 207.724 100.892C208.182 101.316 208.775 101.651 209.452 101.87C210.129 102.088 210.869 102.183 211.608 102.147C213.476 102.073 215.278 101.618 216.806 100.834C218.335 100.05 219.529 98.9697 220.251 97.7158C220.549 97.2181 220.675 96.6749 220.617 96.1337C220.559 95.5926 220.319 95.07 219.919 94.6117L219.941 94.6277Z" fill="#37474F"/>
<path d="M204.325 92.4486C204.104 92.7723 204.007 93.1335 204.045 93.4938C204.084 93.8542 204.255 94.2003 204.542 94.4955C204.829 94.7906 205.221 95.0238 205.676 95.1703C206.13 95.3168 206.631 95.3712 207.125 95.3276C208.359 95.2801 209.55 94.9802 210.561 94.4623C211.571 93.9444 212.359 93.2297 212.835 92.4004C213.056 92.0774 213.152 91.7171 213.114 91.3575C213.076 90.998 212.906 90.6525 212.62 90.3576C212.334 90.0628 211.944 89.8294 211.491 89.6822C211.038 89.535 210.539 89.4795 210.046 89.5214C208.812 89.5739 207.623 89.8757 206.612 90.3929C205.601 90.9101 204.809 91.622 204.325 92.4486Z" fill="#455A64"/>
<path d="M211.871 98.9868C211.411 98.5053 210.802 98.1089 210.093 97.8296C209.384 97.5502 208.594 97.3957 207.788 97.3784C207.481 97.3589 207.173 97.4048 206.902 97.5105C206.631 97.6162 206.408 97.7771 206.261 97.9735L195.394 117.041C195.314 117.226 195.294 117.421 195.336 117.613C195.378 117.804 195.481 117.985 195.637 118.142C196.098 118.626 196.708 119.023 197.42 119.302C198.131 119.582 198.923 119.735 199.732 119.751C200.038 119.771 200.347 119.726 200.618 119.62C200.89 119.514 201.112 119.353 201.259 119.156L212.104 100.153C212.206 99.9604 212.239 99.7519 212.198 99.5476C212.158 99.3433 212.045 99.1501 211.871 98.9868Z" fill="#455A64"/>
<path d="M224.808 145.686C224.808 145.415 224.767 145.146 224.686 144.882C223.754 141.797 221.252 139.082 217.681 137.282H203.018C199.444 139.081 196.938 141.796 196.002 144.882C195.924 145.146 195.887 145.416 195.892 145.686C195.888 145.734 195.888 145.783 195.892 145.831C196.024 147.302 197.419 148.758 200.097 149.852C205.752 152.264 214.903 152.264 220.558 149.852C223.236 148.726 224.631 147.27 224.764 145.831C224.782 145.783 224.797 145.735 224.808 145.686Z" fill="#455A64"/>
<path d="M210.344 144.126C215.772 144.126 220.171 142.279 220.171 140C220.171 137.722 215.772 135.875 210.344 135.875C204.917 135.875 200.518 137.722 200.518 140C200.518 142.279 204.917 144.126 210.344 144.126Z" fill="#37474F"/>
<path d="M208.018 139.02C207.735 139.088 207.489 139.219 207.315 139.395C207.141 139.57 207.047 139.781 207.047 139.997C207.047 140.214 207.141 140.425 207.315 140.6C207.489 140.775 207.735 140.906 208.018 140.975C208.74 141.24 209.538 141.379 210.347 141.379C211.157 141.379 211.955 141.24 212.677 140.975C212.959 140.906 213.205 140.775 213.379 140.6C213.554 140.425 213.647 140.214 213.647 139.997C213.647 139.781 213.554 139.57 213.379 139.395C213.205 139.219 212.959 139.088 212.677 139.02C211.955 138.755 211.157 138.616 210.347 138.616C209.538 138.616 208.74 138.755 208.018 139.02Z" fill="#455A64"/>
<path d="M194.565 120.38C194.282 120.448 194.036 120.579 193.862 120.754C193.688 120.93 193.594 121.14 193.594 121.357C193.594 121.573 193.688 121.784 193.862 121.959C194.036 122.135 194.282 122.266 194.565 122.334C195.287 122.6 196.085 122.738 196.894 122.738C197.703 122.738 198.501 122.6 199.224 122.334C199.506 122.266 199.752 122.135 199.926 121.959C200.101 121.784 200.194 121.573 200.194 121.357C200.194 121.14 200.101 120.93 199.926 120.754C199.752 120.579 199.506 120.448 199.224 120.38C198.501 120.114 197.703 119.976 196.894 119.976C196.085 119.976 195.287 120.114 194.565 120.38Z" fill="#0C77B9"/>
<path opacity="0.3" d="M194.565 120.38C194.282 120.448 194.036 120.579 193.862 120.754C193.688 120.93 193.594 121.14 193.594 121.357C193.594 121.573 193.688 121.784 193.862 121.959C194.036 122.135 194.282 122.266 194.565 122.334C195.287 122.6 196.085 122.738 196.894 122.738C197.703 122.738 198.501 122.6 199.224 122.334C199.506 122.266 199.752 122.135 199.926 121.959C200.101 121.784 200.194 121.573 200.194 121.357C200.194 121.14 200.101 120.93 199.926 120.754C199.752 120.579 199.506 120.448 199.224 120.38C198.501 120.114 197.703 119.976 196.894 119.976C196.085 119.976 195.287 120.114 194.565 120.38Z" fill="black"/>
<path d="M200.066 120.967L213.511 139.608L207.192 140.396L193.725 121.731L200.066 120.967Z" fill="#455A64"/>
<path d="M195.318 115.537C194.901 115.462 194.464 115.478 194.06 115.58C193.655 115.683 193.3 115.869 193.038 116.116C192.279 116.737 191.732 117.479 191.442 118.282C191.151 119.086 191.126 119.928 191.367 120.74C191.434 121.007 191.586 121.258 191.811 121.475C192.036 121.691 192.327 121.866 192.662 121.986L197.686 123.353L200.187 116.839L195.318 115.537Z" fill="#37474F"/>
<path d="M197.993 117.468C197.231 118.09 196.682 118.833 196.389 119.638C196.097 120.443 196.07 121.287 196.311 122.1C196.864 123.572 198.524 123.886 199.985 122.8C200.747 122.18 201.296 121.438 201.589 120.635C201.881 119.831 201.908 118.989 201.667 118.176C201.125 116.704 199.465 116.391 197.993 117.468Z" fill="#263238"/>
<path d="M172.731 133.624C177.401 130.166 180.135 121.521 175.587 118.778H152.436C147.888 121.521 150.621 130.158 155.291 133.624L155.413 133.72L155.579 133.833C155.711 133.93 155.851 134.021 155.999 134.106L156.11 134.17L156.464 134.363C156.655 134.466 156.855 134.56 157.062 134.645C159.218 135.438 161.6 135.851 164.017 135.851C166.433 135.851 168.816 135.438 170.972 134.645C171.171 134.565 171.37 134.468 171.581 134.363L171.901 134.178L172.045 134.106L172.444 133.841L172.632 133.704L172.731 133.624Z" fill="#0C77B9"/>
<path opacity="0.7" d="M172.731 133.624C177.401 130.166 180.135 121.521 175.587 118.778H152.436C147.888 121.521 150.621 130.158 155.291 133.624L155.413 133.72L155.579 133.833C155.711 133.93 155.851 134.021 155.999 134.106L156.11 134.17L156.464 134.363C156.655 134.466 156.855 134.56 157.062 134.645C159.218 135.438 161.6 135.851 164.017 135.851C166.433 135.851 168.816 135.438 170.972 134.645C171.171 134.565 171.37 134.468 171.581 134.363L171.901 134.178L172.045 134.106L172.444 133.841L172.632 133.704L172.731 133.624Z" fill="white"/>
<path d="M163.999 127.368C171.474 127.368 177.533 124.826 177.533 121.69C177.533 118.555 171.474 116.013 163.999 116.013C156.524 116.013 150.465 118.555 150.465 121.69C150.465 124.826 156.524 127.368 163.999 127.368Z" fill="#0C77B9"/>
<path opacity="0.9" d="M163.999 127.368C171.474 127.368 177.533 124.826 177.533 121.69C177.533 118.555 171.474 116.013 163.999 116.013C156.524 116.013 150.465 118.555 150.465 121.69C150.465 124.826 156.524 127.368 163.999 127.368Z" fill="white"/>
<path d="M158.178 119.245C154.969 120.596 154.969 122.783 158.178 124.134C159.985 124.797 161.981 125.142 164.005 125.142C166.029 125.142 168.024 124.797 169.831 124.134C173.04 122.783 173.04 120.596 169.831 119.245C168.026 118.579 166.03 118.231 164.005 118.231C161.98 118.231 159.984 118.579 158.178 119.245Z" fill="#0C77B9"/>
<path opacity="0.7" d="M158.178 119.245C154.969 120.596 154.969 122.783 158.178 124.134C159.985 124.797 161.981 125.142 164.005 125.142C166.029 125.142 168.024 124.797 169.831 124.134C173.04 122.783 173.04 120.596 169.831 119.245C168.026 118.579 166.03 118.231 164.005 118.231C161.98 118.231 159.984 118.579 158.178 119.245Z" fill="white"/>
<path d="M169.828 121.561C168.021 120.899 166.026 120.554 164.002 120.554C161.978 120.554 159.983 120.899 158.176 121.561C157.401 121.872 156.741 122.313 156.25 122.848C156.741 123.382 157.401 123.824 158.176 124.135C159.983 124.797 161.978 125.142 164.002 125.142C166.026 125.142 168.021 124.797 169.828 124.135C170.603 123.824 171.263 123.382 171.754 122.848C171.263 122.313 170.603 121.872 169.828 121.561Z" fill="#0C77B9"/>
<path opacity="0.3" d="M169.828 121.561C168.021 120.899 166.026 120.554 164.002 120.554C161.978 120.554 159.983 120.899 158.176 121.561C157.401 121.872 156.741 122.313 156.25 122.848C156.741 123.382 157.401 123.824 158.176 124.135C159.983 124.797 161.978 125.142 164.002 125.142C166.026 125.142 168.021 124.797 169.828 124.135C170.603 123.824 171.263 123.382 171.754 122.848C171.263 122.313 170.603 121.872 169.828 121.561Z" fill="black"/>
<path d="M166.101 123.378C169.455 121.855 171.986 119.541 173.272 116.824C175.407 112.288 174.146 106.803 172.231 104.536C169.642 101.464 163.378 101.809 165.226 106.948C167.075 112.087 168.225 117.644 165.293 121.359L166.101 123.378Z" fill="#37474F"/>
<path d="M166.323 122.445C166.254 122.445 166.188 122.428 166.134 122.397C166.107 122.378 166.086 122.354 166.071 122.329C166.056 122.303 166.049 122.276 166.049 122.248C166.049 122.221 166.056 122.193 166.071 122.168C166.086 122.142 166.107 122.119 166.134 122.1C168.006 120.596 169.437 118.833 170.343 116.915C171.248 114.998 171.609 112.967 171.402 110.945C171.081 107.222 169.189 104.512 168.469 104.102C168.417 104.062 168.388 104.008 168.388 103.953C168.388 103.898 168.417 103.845 168.469 103.804C168.523 103.767 168.594 103.746 168.669 103.746C168.743 103.746 168.814 103.767 168.868 103.804C169.819 104.399 171.679 107.294 171.988 110.929C172.202 113.008 171.833 115.096 170.903 117.067C169.973 119.038 168.501 120.852 166.577 122.397C166.544 122.421 166.503 122.437 166.459 122.446C166.414 122.454 166.367 122.454 166.323 122.445Z" fill="white"/>
<path d="M160.702 123.377C160.523 122.929 160.131 122.541 159.595 122.283C158.934 122.015 158.237 121.797 157.515 121.632C156.264 121.302 154.671 120.828 154.505 119.734C154.465 119.342 154.533 118.949 154.704 118.576C155.012 118.071 155.086 117.506 154.914 116.968C154.637 116.485 153.929 116.228 153.32 115.938C152.649 115.65 152.078 115.254 151.649 114.78C151.288 114.36 151.114 113.868 151.151 113.373C151.273 112.36 152.612 111.692 152.656 110.687C152.712 109.215 147.975 107.221 150.499 105.862C153.73 104.085 158.787 106.143 160.237 107.655C161.687 109.167 161.687 109.843 164.331 111.121C166.545 112.183 169.112 112.4 169.112 114.491C169.112 116.582 165.427 116.678 168.326 119.051C170.075 120.474 167.22 121.704 166.113 123.393C164.309 123.377 162.483 123.313 160.702 123.377Z" fill="#455A64"/>
<path d="M163.624 123.562C163.586 123.561 163.549 123.554 163.515 123.543C163.481 123.532 163.45 123.515 163.424 123.495C163.398 123.475 163.378 123.451 163.365 123.425C163.352 123.4 163.346 123.372 163.348 123.345C163.989 111.194 155.479 106.931 153.775 106.594C153.706 106.576 153.648 106.54 153.613 106.493C153.579 106.446 153.571 106.391 153.591 106.339C153.611 106.288 153.657 106.244 153.72 106.216C153.783 106.189 153.858 106.18 153.93 106.191C156.807 106.762 164.521 111.893 163.89 123.361C163.887 123.412 163.859 123.461 163.81 123.498C163.761 123.535 163.695 123.558 163.624 123.562Z" fill="white"/>
<path d="M162.275 114.927C162.207 114.927 162.14 114.91 162.087 114.878C159.619 113.27 154.794 113.334 154.739 113.334C154.664 113.334 154.593 113.313 154.539 113.276C154.486 113.238 154.454 113.187 154.451 113.133C154.451 113.078 154.479 113.025 154.531 112.985C154.582 112.945 154.652 112.92 154.728 112.916C154.938 112.916 159.829 112.876 162.474 114.524C162.516 114.553 162.545 114.589 162.558 114.63C162.571 114.67 162.567 114.712 162.547 114.751C162.527 114.79 162.491 114.824 162.445 114.848C162.398 114.872 162.343 114.885 162.286 114.886L162.275 114.927Z" fill="white"/>
<path d="M358.886 81.5454L363.047 44.8423C363.091 44.2482 362.922 43.6562 362.557 43.1235C362.193 42.5909 361.645 42.1358 360.967 41.8025C360.217 41.5389 359.393 41.4074 358.561 41.4186C357.728 41.4298 356.911 41.5833 356.175 41.8668L300.844 65.0756C300.112 65.4198 299.491 65.8746 299.023 66.4088C298.556 66.9431 298.252 67.5444 298.132 68.1717L293.971 104.875C293.928 105.469 294.097 106.061 294.462 106.594C294.826 107.126 295.374 107.581 296.052 107.915C296.801 108.178 297.626 108.31 298.458 108.298C299.291 108.287 300.108 108.134 300.844 107.85L356.175 84.6415C356.906 84.2965 357.526 83.8416 357.994 83.3074C358.461 82.7733 358.766 82.1724 358.886 81.5454Z" fill="#0C77B9"/>
<path opacity="0.8" d="M358.886 81.5454L363.047 44.8423C363.091 44.2482 362.922 43.6562 362.557 43.1235C362.193 42.5909 361.645 42.1358 360.967 41.8025C360.217 41.5389 359.393 41.4074 358.561 41.4186C357.728 41.4298 356.911 41.5833 356.175 41.8668L300.844 65.0756C300.112 65.4198 299.491 65.8746 299.023 66.4088C298.556 66.9431 298.252 67.5444 298.132 68.1717L293.971 104.875C293.928 105.469 294.097 106.061 294.462 106.594C294.826 107.126 295.374 107.581 296.052 107.915C296.801 108.178 297.626 108.31 298.458 108.298C299.291 108.287 300.108 108.134 300.844 107.85L356.175 84.6415C356.906 84.2965 357.526 83.8416 357.994 83.3074C358.461 82.7733 358.766 82.1724 358.886 81.5454Z" fill="white"/>
<path d="M358.888 81.5454L363.049 44.8423C363.092 44.2482 362.923 43.6562 362.558 43.1235C362.194 42.5909 361.646 42.1358 360.968 41.8025C360.219 41.5389 359.394 41.4074 358.562 41.4186C357.729 41.4298 356.912 41.5833 356.176 41.8668L300.845 65.0756C300.11 65.4068 299.492 65.8585 299.041 66.3945L307.64 69.9972V104.979L356.143 84.6254C356.878 84.2854 357.504 83.8343 357.977 83.3028C358.451 82.7713 358.761 82.1719 358.888 81.5454Z" fill="#0C77B9"/>
<path opacity="0.9" d="M358.888 81.5454L363.049 44.8423C363.092 44.2482 362.923 43.6562 362.558 43.1235C362.194 42.5909 361.646 42.1358 360.968 41.8025C360.219 41.5389 359.394 41.4074 358.562 41.4186C357.729 41.4298 356.912 41.5833 356.176 41.8668L300.845 65.0756C300.11 65.4068 299.492 65.8585 299.041 66.3945L307.64 69.9972V104.979L356.143 84.6254C356.878 84.2854 357.504 83.8343 357.977 83.3028C358.451 82.7713 358.761 82.1719 358.888 81.5454Z" fill="white"/>
<path d="M298.643 106.82L302.804 70.1168C302.924 69.4897 303.228 68.8884 303.693 68.3532C304.159 67.8179 304.776 67.3609 305.504 67.0127L360.835 43.8119C362.208 43.2409 363.204 43.6993 363.049 44.8412L358.888 81.5443C358.768 82.1707 358.466 82.7711 358 83.3052C357.534 83.8393 356.916 84.2946 356.188 84.6405L300.856 107.849C299.506 108.42 298.51 107.962 298.643 106.82Z" fill="#0C77B9"/>
<path opacity="0.7" d="M298.643 106.82L302.804 70.1168C302.924 69.4897 303.228 68.8884 303.693 68.3532C304.159 67.8179 304.776 67.3609 305.504 67.0127L360.835 43.8119C362.208 43.2409 363.204 43.6993 363.049 44.8412L358.888 81.5443C358.768 82.1707 358.466 82.7711 358 83.3052C357.534 83.8393 356.916 84.2946 356.188 84.6405L300.856 107.849C299.506 108.42 298.51 107.962 298.643 106.82Z" fill="white"/>
<path d="M327.185 77.3709C327.335 76.3842 327.774 75.4324 328.473 74.5793C329.172 73.7263 330.113 72.9918 331.235 72.4251C333.26 71.5727 334.721 72.4251 334.555 74.2908C334.403 75.2772 333.963 76.2287 333.265 77.0816C332.566 77.9345 331.625 78.6692 330.505 79.2366C328.391 80.0488 326.974 79.2446 327.185 77.3709Z" fill="#0C77B9"/>
<path opacity="0.4" d="M327.185 77.3709C327.335 76.3842 327.774 75.4324 328.473 74.5793C329.172 73.7263 330.113 72.9918 331.235 72.4251C333.26 71.5727 334.721 72.4251 334.555 74.2908C334.403 75.2772 333.963 76.2287 333.265 77.0816C332.566 77.9345 331.625 78.6692 330.505 79.2366C328.391 80.0488 326.974 79.2446 327.185 77.3709Z" fill="white"/>
<path d="M326.209 89.441L344.745 81.6645L342.433 80.6914L323.896 88.4679L326.209 89.441Z" fill="#0C77B9"/>
<path opacity="0.9" d="M326.209 89.441L344.745 81.6645L342.433 80.6914L323.896 88.4679L326.209 89.441Z" fill="white"/>
<path d="M348.384 99.5745L331.785 106.523C331.445 106.655 331.062 106.717 330.678 106.7C330.366 106.69 330.061 106.632 329.782 106.531L322.489 103.475C322.212 103.336 321.982 103.153 321.817 102.94C321.652 102.726 321.557 102.489 321.537 102.244V101.963C321.537 101.505 321.98 101.312 322.522 101.545L326.949 103.386L327.933 103.805L327.712 103L323.883 88.525L326.196 89.498L344.743 81.6572L349.17 98.3361C349.221 98.5758 349.174 98.8213 349.035 99.0416C348.895 99.262 348.668 99.4474 348.384 99.5745Z" fill="#0C77B9"/>
<path opacity="0.7" d="M348.384 99.5745L331.785 106.523C331.445 106.655 331.062 106.717 330.678 106.7C330.366 106.69 330.061 106.632 329.782 106.531L322.489 103.475C322.212 103.336 321.982 103.153 321.817 102.94C321.652 102.726 321.557 102.489 321.537 102.244V101.963C321.537 101.505 321.98 101.312 322.522 101.545L326.949 103.386L327.933 103.805L327.712 103L323.883 88.525L326.196 89.498L344.743 81.6572L349.17 98.3361C349.221 98.5758 349.174 98.8213 349.035 99.0416C348.895 99.262 348.668 99.4474 348.384 99.5745Z" fill="white"/>
<path d="M321.883 101.464L327.527 99.0918L328.678 104.617L321.883 101.464Z" fill="#0C77B9"/>
<path opacity="0.7" d="M321.883 101.464L327.527 99.0918L328.678 104.617L321.883 101.464Z" fill="white"/>
<path d="M326.176 89.4408L323.864 88.4678L327.693 102.943C327.825 103.385 327.471 103.57 326.929 103.337L322.502 101.496C321.96 101.262 321.518 101.496 321.518 101.914V102.195C321.537 102.439 321.633 102.677 321.798 102.89C321.963 103.104 322.192 103.287 322.469 103.426L329.762 106.482C330.041 106.583 330.346 106.641 330.658 106.65L326.176 89.4408Z" fill="#0C77B9"/>
<path opacity="0.8" d="M326.176 89.4408L323.864 88.4678L327.693 102.943C327.825 103.385 327.471 103.57 326.929 103.337L322.502 101.496C321.96 101.262 321.518 101.496 321.518 101.914V102.195C321.537 102.439 321.633 102.677 321.798 102.89C321.963 103.104 322.192 103.287 322.469 103.426L329.762 106.482C330.041 106.583 330.346 106.641 330.658 106.65L326.176 89.4408Z" fill="white"/>
<path d="M266.419 108.887C269.816 108.702 270.911 107.793 271.465 106.699C272.018 105.606 272.217 104.407 270.9 101.874C269.584 99.341 262.047 96.0197 254.223 97.234C246.4 98.4483 245.315 102.791 245.736 103.957C246.156 105.123 250.859 108.082 256.957 108.589C260.093 108.887 263.259 108.986 266.419 108.887Z" fill="#0C77B9"/>
<path opacity="0.7" d="M266.419 108.887C269.816 108.702 270.911 107.793 271.465 106.699C272.018 105.606 272.217 104.407 270.9 101.874C269.584 99.341 262.047 96.0197 254.223 97.234C246.4 98.4483 245.315 102.791 245.736 103.957C246.156 105.123 250.859 108.082 256.957 108.589C260.093 108.887 263.259 108.986 266.419 108.887Z" fill="white"/>
<path d="M262.445 100.957C262.894 100.7 263.449 100.56 264.022 100.56C264.594 100.56 265.149 100.7 265.599 100.957C266.634 101.383 267.461 102.033 267.967 102.815C268.31 103.466 268.144 104.045 267.757 104.045C267.369 104.045 267.081 103.45 265.599 102.55C264.116 101.649 262.113 101.295 262.445 100.957Z" fill="#0C77B9"/>
<path opacity="0.9" d="M262.445 100.957C262.894 100.7 263.449 100.56 264.022 100.56C264.594 100.56 265.149 100.7 265.599 100.957C266.634 101.383 267.461 102.033 267.967 102.815C268.31 103.466 268.144 104.045 267.757 104.045C267.369 104.045 267.081 103.45 265.599 102.55C264.116 101.649 262.113 101.295 262.445 100.957Z" fill="white"/>
<path d="M214.65 40.3369C210.998 42.1222 206.671 44.2372 207.269 51.2015C207.866 58.1657 215.015 77.3778 215.502 79.7179C215.989 82.0581 235.421 93.3891 238.996 95.6248C243.101 98.2223 244.651 98.7691 246.51 100.257C248.369 101.745 250.117 105.54 252.043 107.189C255.064 109.738 261.571 109.795 264.57 109.497C267.569 109.199 265.677 106.554 264.57 104.672C263.463 102.79 260.498 100.225 261.339 99.7824C261.914 99.4849 265.046 99.887 267.469 101.391C269.34 102.549 269.561 103.683 270.612 104.213C272.372 105.114 272.958 103.522 271.143 100.997C269.328 98.4716 266.562 96.6622 263.829 96.0349C265.035 96.104 266.242 95.9078 267.292 95.472C268.797 94.7965 269.328 93.2685 267.469 93.6706C266.363 93.9038 265.256 93.6706 263.043 93.6706C256.093 93.6706 254.002 95.5041 245.956 89.8587C237.911 84.2134 227.144 76.5334 227.144 76.5334C227.144 76.5334 223.525 60.5301 221.898 53.4452C220.515 47.3414 219.94 43.3446 214.65 40.3369Z" fill="#FFA8A7"/>
<path d="M279.243 56.0764L292.977 34.9424L300.723 37.2665C300.723 37.2665 289.336 62.3089 287.698 65.027C286.735 66.6354 283.648 68.5896 279.177 67.0053C278.203 66.6595 276.267 65.8312 273.865 64.7455" fill="#FFA8A7"/>
<path d="M297.812 43.5629C298.764 41.4962 301.785 39.2927 302.239 38.4161C302.642 37.7238 302.776 36.9645 302.626 36.2207L299.096 36.478L297.812 43.5629Z" fill="#FFA8A7"/>
<path d="M290.529 38.6322C291.105 37.6752 291.204 34.3217 290.529 32.3917C289.854 30.4616 291.481 28.0491 291.072 26.69C290.662 25.3309 291.857 24.9208 292.942 25.4113C293.606 25.7176 294.156 26.1386 294.542 26.6367C294.928 27.1348 295.139 27.6946 295.155 28.2662C295.21 29.6735 295.332 33.2522 294.547 34.9972C293.761 36.7423 290.529 38.6322 290.529 38.6322Z" fill="#FFA8A7"/>
<path d="M292.358 35.3438C292.569 35.778 293.365 36.3812 295.944 36.0595L300.691 37.2658L302.628 37.1853C301.593 37.7175 300.326 37.9573 299.065 37.8596C297.804 37.7619 296.635 37.3334 295.778 36.6546C295.778 36.6546 292.292 36.9682 292.358 35.3438Z" fill="#F28F8F"/>
<path d="M305.637 33.929C302.661 35.6178 303.081 37.8132 306.589 38.8426C308.534 39.3281 310.608 39.4733 312.645 39.2665C314.681 39.0597 316.622 38.5067 318.308 37.6524C321.285 35.9636 320.854 33.7601 317.357 32.7308C315.411 32.2483 313.336 32.1054 311.3 32.3136C309.264 32.5217 307.325 33.0751 305.637 33.929Z" fill="#0C77B9"/>
<path opacity="0.7" d="M305.637 33.929C302.661 35.6178 303.081 37.8132 306.589 38.8426C308.534 39.3281 310.608 39.4733 312.645 39.2665C314.681 39.0597 316.622 38.5067 318.308 37.6524C321.285 35.9636 320.854 33.7601 317.357 32.7308C315.411 32.2483 313.336 32.1054 311.3 32.3136C309.264 32.5217 307.325 33.0751 305.637 33.929Z" fill="white"/>
<path d="M320.379 21.5996L309.456 22.7094L298.512 23.8192C298.755 28.966 301.157 34.732 304.288 37.6673L320.047 36.0589C321.961 32.6009 322.083 26.5936 320.379 21.5996Z" fill="#0C77B9"/>
<path opacity="0.7" d="M320.379 21.5996L309.456 22.7094L298.512 23.8192C298.755 28.966 301.157 34.732 304.288 37.6673L320.047 36.0589C321.961 32.6009 322.083 26.5936 320.379 21.5996Z" fill="white"/>
<path d="M301.322 21.4156C297.316 23.1928 297.736 25.3802 302.262 26.2889C307.525 27.1262 313.026 26.5551 317.755 24.6806C321.761 22.8953 321.341 20.7159 316.815 19.7991C311.551 18.965 306.05 19.539 301.322 21.4156Z" fill="#0C77B9"/>
<path opacity="0.9" d="M301.322 21.4156C297.316 23.1928 297.736 25.3802 302.262 26.2889C307.525 27.1262 313.026 26.5551 317.755 24.6806C321.761 22.8953 321.341 20.7159 316.815 19.7991C311.551 18.965 306.05 19.539 301.322 21.4156Z" fill="white"/>
<path d="M302.936 22.1471C299.616 23.3775 299.937 24.8009 303.545 25.3638C307.783 25.8302 312.117 25.3886 316.016 24.0932C319.281 22.8628 319.015 21.4394 315.397 20.8765C311.162 20.4108 306.831 20.8524 302.936 22.1471Z" fill="#0C77B9"/>
<path opacity="0.4" d="M302.936 22.1471C299.616 23.3775 299.937 24.8009 303.545 25.3638C307.783 25.8302 312.117 25.3886 316.016 24.0932C319.281 22.8628 319.015 21.4394 315.397 20.8765C311.162 20.4108 306.831 20.8524 302.936 22.1471Z" fill="white"/>
<path d="M303.349 24.0293C302.762 24.2385 302.222 24.5095 301.744 24.8335C302.326 25.05 302.949 25.2018 303.592 25.2838C307.831 25.7502 312.165 25.3086 316.064 24.0132C316.653 23.8073 317.194 23.536 317.669 23.209C317.087 22.9926 316.464 22.8408 315.82 22.7587C311.582 22.2924 307.248 22.7339 303.349 24.0293Z" fill="#0C77B9"/>
<path opacity="0.3" d="M303.349 24.0293C302.762 24.2385 302.222 24.5095 301.744 24.8335C302.326 25.05 302.949 25.2018 303.592 25.2838C307.831 25.7502 312.165 25.3086 316.064 24.0132C316.653 23.8073 317.194 23.536 317.669 23.209C317.087 22.9926 316.464 22.8408 315.82 22.7587C311.582 22.2924 307.248 22.7339 303.349 24.0293Z" fill="black"/>
<path d="M301.023 37.4273C300.104 37.5263 299.168 37.4935 298.267 37.3308C297.028 37.0895 295.855 36.221 294.693 34.6689C293.719 33.3661 292.048 30.4711 292.756 28.8707C293.663 26.8361 296.906 26.5466 299.064 26.3536L299.805 26.2812L300.281 28.7501L299.484 28.8225C298.267 28.927 296.242 29.112 296.01 29.6267C295.7 30.6239 298.024 34.5081 299.208 34.9343C300.275 35.042 301.363 34.9131 302.328 34.5644L303.878 36.7839C302.978 37.1057 302.015 37.3228 301.023 37.4273Z" fill="#0C77B9"/>
<path opacity="0.7" d="M301.023 37.4273C300.104 37.5263 299.168 37.4935 298.267 37.3308C297.028 37.0895 295.855 36.221 294.693 34.6689C293.719 33.3661 292.048 30.4711 292.756 28.8707C293.663 26.8361 296.906 26.5466 299.064 26.3536L299.805 26.2812L300.281 28.7501L299.484 28.8225C298.267 28.927 296.242 29.112 296.01 29.6267C295.7 30.6239 298.024 34.5081 299.208 34.9343C300.275 35.042 301.363 34.9131 302.328 34.5644L303.878 36.7839C302.978 37.1057 302.015 37.3228 301.023 37.4273Z" fill="white"/>
<path d="M296.96 29.6348C294.846 29.6348 288.638 31.4281 288.505 33.0526C288.372 34.677 292.588 34.5564 292.588 34.5564C292.389 34.7977 292.314 35.0823 292.374 35.3602C292.435 35.6381 292.628 35.8916 292.921 36.0763C293.972 36.7357 301.94 34.7253 301.94 34.7253C301.661 34.0617 301.239 33.4346 300.689 32.8676C300.292 32.5009 299.711 32.2638 299.073 32.2082C299.073 32.2082 300.103 29.6348 296.96 29.6348Z" fill="#FFA8A7"/>
<path d="M138.838 108.83L129.564 104.946L138.838 103V108.83Z" fill="#E0E0E0"/>
<g style="mix-blend-mode:multiply" opacity="0.5">
<path d="M138.838 103V108.83L129.564 104.946" fill="#E0E0E0"/>
</g>
<path d="M83.2175 126.338V132.53L32.2461 111.147V104.946L83.2175 126.338Z" fill="#E0E0E0"/>
<g style="mix-blend-mode:multiply" opacity="0.5">
<path d="M83.2175 126.338V132.53L32.2461 111.147V104.946L83.2175 126.338Z" fill="#E0E0E0"/>
</g>
<path d="M27.6094 56.333L78.5919 77.7244V128.276L27.6094 106.892V56.333Z" fill="#E0E0E0"/>
<path d="M78.5918 77.7235L148.099 48.5557V99.1069L78.5918 128.275V77.7235Z" fill="#EBEBEB"/>
<path d="M148.099 48.5564L97.1279 27.165L27.6094 56.3329L78.5919 77.7243L148.099 48.5564Z" fill="#F5F5F5"/>
<path d="M83.2148 79.6704L143.471 54.3867V66.0555L83.2148 91.3311V79.6704Z" fill="#E0E0E0"/>
<g style="mix-blend-mode:multiply" opacity="0.5">
<path d="M106.388 70.9126C106.388 71.4514 108.601 70.9609 111.335 69.8189L119.989 66.184C122.722 65.0421 124.924 63.675 124.924 63.1362V62.1631L106.377 69.9476L106.388 70.9126Z" fill="#E0E0E0"/>
</g>
<path d="M83.2148 95.2238L143.471 69.9482V81.609L83.2148 106.893V95.2238Z" fill="#E0E0E0"/>
<g style="mix-blend-mode:multiply" opacity="0.5">
<path d="M106.388 86.481C106.388 87.0198 108.601 86.481 111.335 85.3793L119.989 81.7443C122.722 80.6024 124.924 79.2353 124.924 78.7045V77.7314L106.377 85.5079L106.388 86.481Z" fill="#E0E0E0"/>
</g>
<path d="M83.2148 110.776L143.471 85.5V97.1687L83.2148 122.444V110.776Z" fill="#E0E0E0"/>
<g style="mix-blend-mode:multiply" opacity="0.5">
<path d="M106.388 102.026C106.388 102.565 108.601 102.074 111.335 100.924L119.989 97.2973C122.722 96.1473 124.924 94.7882 124.924 94.2494V93.2764L106.377 101.053L106.388 102.026Z" fill="#E0E0E0"/>
</g>
<path d="M83.2148 132.529L87.8516 130.591V124.391L83.2148 126.337V132.529Z" fill="#E0E0E0"/>
<path d="M138.832 108.83L143.469 106.892V101.054L138.832 103V108.83Z" fill="#E0E0E0"/>
<path d="M57.4066 58.4402C62.0766 54.9742 64.821 46.3774 60.2617 43.5869H37.0999C32.5517 46.3372 35.2851 54.9742 39.955 58.4322L40.0768 58.5287L40.2428 58.6413C40.3751 58.7386 40.5156 58.8299 40.6633 58.9147L40.7739 58.9791L41.1281 59.172C41.3195 59.2743 41.519 59.3683 41.7256 59.4535C43.8818 60.2464 46.2644 60.6595 48.6808 60.6595C51.0973 60.6595 53.4799 60.2464 55.636 59.4535C55.8462 59.3684 56.0495 59.2744 56.2446 59.172L56.5656 58.9951L56.7094 58.9147L57.1189 58.6493L57.2959 58.5207L57.4066 58.4402Z" fill="#EBEBEB"/>
<path d="M39.1177 42.4852C33.828 44.7047 33.828 48.2994 39.1177 50.527C44.4074 52.7546 52.9727 52.7466 58.2513 50.527C63.5299 48.3075 63.541 44.7208 58.2513 42.4852C52.9616 40.2495 44.3963 40.2656 39.1177 42.4852Z" fill="#F5F5F5"/>
<path d="M42.8776 44.0514C39.6684 45.4024 39.6684 47.5898 42.8776 48.9409C44.683 49.607 46.6793 49.9542 48.704 49.9542C50.7288 49.9542 52.725 49.607 54.5304 48.9409C57.7397 47.5898 57.7397 45.4024 54.5304 44.0514C52.7235 43.389 50.7279 43.0439 48.704 43.0439C46.6802 43.0439 44.6846 43.389 42.8776 44.0514Z" fill="#E0E0E0"/>
<path d="M54.51 46.3766C52.7046 45.7104 50.7084 45.3633 48.6836 45.3633C46.6588 45.3633 44.6626 45.7104 42.8572 46.3766C42.0804 46.6812 41.419 47.1204 40.9316 47.6552C41.4183 48.1925 42.0797 48.6344 42.8572 48.9419C44.6626 49.608 46.6588 49.9552 48.6836 49.9552C50.7084 49.9552 52.7046 49.608 54.51 48.9419C55.2875 48.6344 55.9488 48.1925 56.4355 47.6552C55.9482 47.1204 55.2868 46.6812 54.51 46.3766Z" fill="#E0E0E0"/>
<g style="mix-blend-mode:multiply" opacity="0.5">
<path d="M54.51 46.3766C52.7046 45.7104 50.7084 45.3633 48.6836 45.3633C46.6588 45.3633 44.6626 45.7104 42.8572 46.3766C42.0804 46.6812 41.419 47.1204 40.9316 47.6552C41.4183 48.1925 42.0797 48.6344 42.8572 48.9419C44.6626 49.608 46.6588 49.9552 48.6836 49.9552C50.7084 49.9552 52.7046 49.608 54.51 48.9419C55.2875 48.6344 55.9488 48.1925 56.4355 47.6552C55.9482 47.1204 55.2868 46.6812 54.51 46.3766Z" fill="#E0E0E0"/>
</g>
<path d="M43.5722 47.6552C41.924 46.4411 40.5061 45.0726 39.356 43.586C37.4083 41.093 37.0542 37.7395 38.0612 37.3294C39.0682 36.9193 43.1517 40.2566 43.1517 40.2566C42.7796 38.8503 42.6347 37.4172 42.7201 35.9864C42.8972 33.7588 43.6386 31.7403 44.5239 31.3302C45.4092 30.92 47.3569 33.7427 48.198 35.7693C49.039 37.7958 49.5148 39.4766 49.5148 39.4766C49.8537 37.8885 50.3568 36.3213 51.0199 34.7882C52.038 32.6812 52.9675 32.1987 53.6868 32.3756C54.4062 32.5525 54.882 33.5738 55.0923 36.3965C55.1656 37.7382 55.1065 39.082 54.9152 40.4175C54.9152 40.4175 56.3649 39.2594 57.9584 38.1416C59.718 36.9112 60.4705 36.7423 60.9795 36.9756C61.4886 37.2088 61.6214 39.1227 58.8991 42.7014C57.542 44.5243 55.8063 46.1843 53.7532 47.623C53.7532 47.623 50.0128 49.4244 43.5722 47.6552Z" fill="#EBEBEB"/>
<path d="M104.117 62.6051L131.782 50.9443C132.325 50.7192 132.325 50.3492 131.782 50.1402L93.7806 34.4103C93.4731 34.2984 93.134 34.2402 92.7901 34.2402C92.4463 34.2402 92.1072 34.2984 91.7997 34.4103L64.3774 45.9343C63.8351 46.1675 63.8351 46.5374 64.3774 46.7384L102.136 62.5809C102.441 62.6965 102.778 62.7589 103.122 62.7631C103.466 62.7672 103.806 62.7131 104.117 62.6051Z" fill="#E0E0E0"/>
<g style="mix-blend-mode:multiply" opacity="0.5">
<path d="M104.117 62.6051L131.782 50.9443C132.325 50.7192 132.325 50.3492 131.782 50.1402L93.7806 34.4103C93.4731 34.2984 93.134 34.2402 92.7901 34.2402C92.4463 34.2402 92.1072 34.2984 91.7997 34.4103L64.3774 45.9343C63.8351 46.1675 63.8351 46.5374 64.3774 46.7384L102.136 62.5809C102.441 62.6965 102.778 62.7589 103.122 62.7631C103.466 62.7672 103.806 62.7131 104.117 62.6051Z" fill="#E0E0E0"/>
</g>
<path d="M64.3571 45.9111L95.5419 31.5C95.8442 31.3852 96.1802 31.3252 96.5213 31.3252C96.8624 31.3252 97.1984 31.3852 97.5007 31.5L108.733 36.2126C108.996 36.3284 109.189 36.5115 109.275 36.7259C109.361 36.9403 109.334 37.1703 109.198 37.3706L108.744 38.0139C108.608 38.2142 108.581 38.4443 108.667 38.6586C108.753 38.873 108.946 39.0562 109.209 39.172L131.839 48.6855C131.96 48.7197 132.063 48.7795 132.135 48.8569C132.208 48.9344 132.247 49.026 132.247 49.1198C132.247 49.2135 132.208 49.3051 132.135 49.3826C132.063 49.4601 131.96 49.5198 131.839 49.554L104.063 62.5497C103.765 62.6686 103.43 62.731 103.089 62.731C102.749 62.731 102.414 62.6686 102.115 62.5497L64.3571 46.7072C64.2605 46.6671 64.1802 46.6092 64.1243 46.5393C64.0685 46.4694 64.0391 46.39 64.0391 46.3091C64.0391 46.2283 64.0685 46.1489 64.1243 46.079C64.1802 46.0091 64.2605 45.9511 64.3571 45.9111Z" fill="#EBEBEB"/>
<path d="M456.381 80.1138C464.415 74.1548 469.14 49.9005 461.294 45.1719H421.456C413.61 49.8925 418.335 74.1226 426.369 80.1058L426.579 80.2666L426.856 80.4676C427.088 80.6285 427.332 80.7813 427.586 80.9341L427.774 81.0467C427.974 81.1592 428.173 81.2718 428.383 81.3764C428.715 81.5531 429.063 81.7143 429.423 81.8589C436.063 84.6333 446.753 84.6333 453.371 81.8589C453.731 81.7143 454.079 81.5531 454.411 81.3764L454.975 81.0627L455.219 80.926C455.462 80.7813 455.695 80.6285 455.916 80.4757L456.237 80.2505L456.381 80.1138Z" fill="#37474F"/>
<path d="M424.878 43.2653C415.77 47.0852 415.77 53.2774 424.878 57.0973C433.985 60.9172 448.737 60.9092 457.833 57.0973C466.93 53.2855 466.93 47.0852 457.833 43.2653C448.737 39.4454 433.974 39.4454 424.878 43.2653Z" fill="#455A64"/>
<path d="M429.247 45.098C422.608 47.9047 422.608 52.4483 429.247 55.2549C435.887 58.0615 446.776 58.0615 453.449 55.2549C460.122 52.4483 460.089 47.9047 453.449 45.098C446.81 42.2914 435.931 42.2995 429.247 45.098Z" fill="#37474F"/>
<path d="M453.438 49.9243C446.799 47.1177 435.921 47.1177 429.236 49.9243C427.621 50.56 426.246 51.474 425.23 52.5862C426.245 53.7008 427.621 54.6176 429.236 55.2561C435.876 58.0627 446.754 58.0627 453.438 55.2561C455.059 54.622 456.435 53.7043 457.444 52.5862C456.434 51.471 455.057 50.5561 453.438 49.9243Z" fill="#E0E0E0"/>
<g style="mix-blend-mode:multiply">
<path d="M453.438 49.9243C446.799 47.1177 435.921 47.1177 429.236 49.9243C427.621 50.56 426.246 51.474 425.23 52.5862C426.245 53.7008 427.621 54.6176 429.236 55.2561C435.876 58.0627 446.754 58.0627 453.438 55.2561C455.059 54.622 456.435 53.7043 457.444 52.5862C456.434 51.471 455.057 50.5561 453.438 49.9243Z" fill="#263238"/>
</g>
<path d="M448.812 52.6019C450.749 48.3397 453.449 40.5391 463.486 34.6927C473.777 28.6774 483.925 23.9166 480.428 19.968C477.241 16.3814 467.658 15.8506 456.702 21.9946C446.067 27.9456 441.265 41.6007 442.205 50.6558L448.812 52.6019Z" fill="#0C77B9"/>
<g opacity="0.1">
<path d="M448.812 52.6019C450.749 48.3397 453.449 40.5391 463.486 34.6927C473.777 28.6774 483.925 23.9166 480.428 19.968C477.241 16.3814 467.658 15.8506 456.702 21.9946C446.067 27.9456 441.265 41.6007 442.205 50.6558L448.812 52.6019Z" fill="black"/>
</g>
<path d="M443.922 51.5814H443.844C443.77 51.5755 443.699 51.5588 443.634 51.5323C443.569 51.5059 443.512 51.4702 443.467 51.4274C443.421 51.3846 443.388 51.3356 443.37 51.2833C443.351 51.231 443.347 51.1765 443.357 51.123C447.164 29.7236 465.49 20.2503 474.443 19.9366C474.518 19.931 474.593 19.9368 474.665 19.9536C474.736 19.9704 474.802 19.9978 474.858 20.0341C474.915 20.0704 474.96 20.1148 474.991 20.1645C475.022 20.2141 475.039 20.268 475.04 20.3226C475.046 20.4331 474.993 20.5409 474.892 20.6234C474.791 20.706 474.65 20.7567 474.498 20.7649C467.858 20.9901 448.514 28.646 444.486 51.2275C444.467 51.3263 444.4 51.4167 444.296 51.4818C444.192 51.5469 444.059 51.5823 443.922 51.5814Z" fill="white"/>
<path d="M434.169 53.5991C433.908 52.3989 433.256 51.2615 432.266 50.2821C431.276 49.3027 429.978 48.5099 428.481 47.9698C425.216 46.6831 421.243 47.9698 417.414 44.0856C413.585 40.2014 416.938 37.049 416.308 35.1672C415.677 33.2854 415.013 32.055 410.653 30.7039C406.293 29.3529 405.12 27.3666 406.625 22.9114C408.13 18.4562 408.052 17.1052 404.323 15.151C400.593 13.1968 400.416 10.7199 404.323 9.08741C408.229 7.45491 415.179 7.47903 420.679 11.0255C426.179 14.572 426.876 16.0999 432.929 16.5261C438.982 16.9524 442.446 17.1293 443.818 19.7429C445.191 22.3565 444.482 24.383 443.818 26.8278C443.506 27.9437 443.716 29.1034 444.413 30.1232C445.111 31.1429 446.257 31.9642 447.67 32.4571C450.314 33.3658 454.719 34.0654 456.357 37.5717C457.994 41.078 454.365 48.2272 449.717 52.618C449.661 52.602 448.555 55.1673 434.169 53.5991Z" fill="#0C77B9"/>
<path d="M444.298 54.0097C444.223 54.0097 444.149 53.9988 444.08 53.9777C444.01 53.9566 443.948 53.9257 443.895 53.8867C443.842 53.8478 443.801 53.8016 443.773 53.7509C443.746 53.7002 443.732 53.646 443.734 53.5915C443.554 46.7308 441.449 39.9689 437.548 33.72C431.317 23.9492 411.409 12.4091 410.192 11.8783C410.123 11.8623 410.06 11.8361 410.005 11.8014C409.951 11.7666 409.908 11.724 409.878 11.6764C409.848 11.6287 409.831 11.577 409.83 11.5246C409.829 11.4721 409.843 11.42 409.871 11.3717C409.93 11.267 410.042 11.1829 410.184 11.1365C410.326 11.0901 410.487 11.0851 410.634 11.1224C411.32 11.2832 432.026 23.0806 438.577 33.3662C442.545 39.7327 444.688 46.6198 444.874 53.6076C444.874 53.6618 444.859 53.7154 444.829 53.7653C444.8 53.8151 444.757 53.8602 444.704 53.8978C444.65 53.9353 444.586 53.9646 444.517 53.9838C444.447 54.0031 444.373 54.0118 444.298 54.0097Z" fill="white"/>
<path d="M431.126 26.2885C431.033 26.2888 430.942 26.2722 430.861 26.2402C426.689 24.5756 416.718 25.7577 416.618 25.7738C416.469 25.788 416.318 25.76 416.197 25.6956C416.075 25.6313 415.992 25.5355 415.965 25.428C415.953 25.3746 415.955 25.32 415.971 25.2672C415.988 25.2144 416.018 25.1645 416.062 25.1204C416.105 25.0763 416.16 25.0388 416.223 25.0102C416.286 24.9816 416.357 24.9623 416.43 24.9535C416.851 24.9053 426.899 23.7151 431.403 25.5165C431.469 25.5425 431.527 25.5778 431.574 25.6203C431.621 25.6629 431.655 25.7118 431.676 25.7642C431.697 25.8166 431.703 25.8715 431.694 25.9256C431.685 25.9797 431.661 26.032 431.624 26.0794C431.575 26.1441 431.503 26.1978 431.415 26.2346C431.328 26.2715 431.227 26.2901 431.126 26.2885Z" fill="white"/>
<path d="M443.269 46.2721C443.13 46.2834 442.991 46.2578 442.876 46.2C442.762 46.1423 442.68 46.0563 442.646 45.958C442.612 45.8597 442.629 45.7559 442.692 45.6658C442.756 45.5757 442.862 45.5054 442.992 45.468C447.684 43.6183 451.269 38.3911 451.303 38.3429C451.329 38.2872 451.372 38.2363 451.428 38.1934C451.483 38.1506 451.551 38.1168 451.626 38.0942C451.701 38.0717 451.782 38.061 451.863 38.0627C451.944 38.0644 452.024 38.0786 452.097 38.1042C452.17 38.1299 452.234 38.1665 452.287 38.2117C452.339 38.2568 452.377 38.3095 452.399 38.3662C452.422 38.4229 452.427 38.4824 452.415 38.5407C452.404 38.5991 452.375 38.655 452.332 38.7047C452.177 38.9299 448.536 44.2215 443.534 46.1998C443.456 46.2403 443.364 46.2652 443.269 46.2721Z" fill="white"/>
</svg>
