<svg width="310" height="143" viewBox="0 0 310 143" fill="none" xmlns="http://www.w3.org/2000/svg">
<path d="M24.272 18.112C23.2373 18.112 22.2827 17.872 21.408 17.392C20.544 16.9013 19.856 16.224 19.344 15.36C18.8427 14.4853 18.592 13.504 18.592 12.416C18.592 11.328 18.8427 10.352 19.344 9.488C19.856 8.624 20.544 7.952 21.408 7.472C22.2827 6.98133 23.2373 6.736 24.272 6.736C25.3173 6.736 26.272 6.98133 27.136 7.472C28.0107 7.952 28.6987 8.624 29.2 9.488C29.7013 10.352 29.952 11.328 29.952 12.416C29.952 13.504 29.7013 14.4853 29.2 15.36C28.6987 16.224 28.0107 16.9013 27.136 17.392C26.272 17.872 25.3173 18.112 24.272 18.112ZM24.272 16.528C25.008 16.528 25.664 16.3627 26.24 16.032C26.816 15.6907 27.264 15.2107 27.584 14.592C27.9147 13.9627 28.08 13.2373 28.08 12.416C28.08 11.5947 27.9147 10.8747 27.584 10.256C27.264 9.63733 26.816 9.16267 26.24 8.832C25.664 8.50133 25.008 8.336 24.272 8.336C23.536 8.336 22.88 8.50133 22.304 8.832C21.728 9.16267 21.2747 9.63733 20.944 10.256C20.624 10.8747 20.464 11.5947 20.464 12.416C20.464 13.2373 20.624 13.9627 20.944 14.592C21.2747 15.2107 21.728 15.6907 22.304 16.032C22.88 16.3627 23.536 16.528 24.272 16.528ZM39.4109 9.184V18H37.5869V16.96C37.2989 17.3227 36.9202 17.6107 36.4509 17.824C35.9922 18.0267 35.5015 18.128 34.9789 18.128C34.2855 18.128 33.6615 17.984 33.1069 17.696C32.5629 17.408 32.1309 16.9813 31.8109 16.416C31.5015 15.8507 31.3469 15.168 31.3469 14.368V9.184H33.1549V14.096C33.1549 14.8853 33.3522 15.4933 33.7469 15.92C34.1415 16.336 34.6802 16.544 35.3629 16.544C36.0455 16.544 36.5842 16.336 36.9789 15.92C37.3842 15.4933 37.5869 14.8853 37.5869 14.096V9.184H39.4109ZM43.3215 10.464C43.5882 10.016 43.9402 9.66933 44.3775 9.424C44.8255 9.168 45.3535 9.04 45.9615 9.04V10.928H45.4975C44.7828 10.928 44.2388 11.1093 43.8655 11.472C43.5028 11.8347 43.3215 12.464 43.3215 13.36V18H41.4975V9.184H43.3215V10.464ZM54.5624 16.368L57.0584 9.184H58.9944L55.6344 18H53.4584L50.1144 9.184H52.0664L54.5624 16.368ZM60.9811 8.016C60.6505 8.016 60.3731 7.904 60.1491 7.68C59.9251 7.456 59.8131 7.17867 59.8131 6.848C59.8131 6.51733 59.9251 6.24 60.1491 6.016C60.3731 5.792 60.6505 5.68 60.9811 5.68C61.3011 5.68 61.5731 5.792 61.7971 6.016C62.0211 6.24 62.1331 6.51733 62.1331 6.848C62.1331 7.17867 62.0211 7.456 61.7971 7.68C61.5731 7.904 61.3011 8.016 60.9811 8.016ZM61.8771 9.184V18H60.0531V9.184H61.8771ZM67.1519 18.144C66.4585 18.144 65.8345 18.0213 65.2799 17.776C64.7359 17.52 64.3039 17.1787 63.9839 16.752C63.6639 16.3147 63.4932 15.8293 63.4719 15.296H65.3599C65.3919 15.6693 65.5679 15.984 65.8879 16.24C66.2185 16.4853 66.6292 16.608 67.1199 16.608C67.6319 16.608 68.0265 16.512 68.3039 16.32C68.5919 16.1173 68.7359 15.8613 68.7359 15.552C68.7359 15.2213 68.5759 14.976 68.2559 14.816C67.9465 14.656 67.4505 14.48 66.7679 14.288C66.1065 14.1067 65.5679 13.9307 65.1519 13.76C64.7359 13.5893 64.3732 13.328 64.0639 12.976C63.7652 12.624 63.6159 12.16 63.6159 11.584C63.6159 11.1147 63.7545 10.688 64.0319 10.304C64.3092 9.90933 64.7039 9.6 65.2159 9.376C65.7385 9.152 66.3359 9.04 67.0079 9.04C68.0105 9.04 68.8159 9.296 69.4239 9.808C70.0425 10.3093 70.3732 10.9973 70.4159 11.872H68.5919C68.5599 11.4773 68.3999 11.1627 68.1119 10.928C67.8239 10.6933 67.4345 10.576 66.9439 10.576C66.4639 10.576 66.0959 10.6667 65.8399 10.848C65.5839 11.0293 65.4559 11.2693 65.4559 11.568C65.4559 11.8027 65.5412 12 65.7119 12.16C65.8825 12.32 66.0905 12.448 66.3359 12.544C66.5812 12.6293 66.9439 12.7413 67.4239 12.88C68.0639 13.0507 68.5865 13.2267 68.9919 13.408C69.4079 13.5787 69.7652 13.8347 70.0639 14.176C70.3625 14.5173 70.5172 14.9707 70.5279 15.536C70.5279 16.0373 70.3892 16.4853 70.1119 16.88C69.8345 17.2747 69.4399 17.584 68.9279 17.808C68.4265 18.032 67.8345 18.144 67.1519 18.144ZM73.1067 8.016C72.7761 8.016 72.4987 7.904 72.2747 7.68C72.0507 7.456 71.9387 7.17867 71.9387 6.848C71.9387 6.51733 72.0507 6.24 72.2747 6.016C72.4987 5.792 72.7761 5.68 73.1067 5.68C73.4267 5.68 73.6987 5.792 73.9227 6.016C74.1467 6.24 74.2587 6.51733 74.2587 6.848C74.2587 7.17867 74.1467 7.456 73.9227 7.68C73.6987 7.904 73.4267 8.016 73.1067 8.016ZM74.0027 9.184V18H72.1787V9.184H74.0027ZM79.9015 18.144C79.0695 18.144 78.3175 17.9573 77.6455 17.584C76.9735 17.2 76.4455 16.6667 76.0615 15.984C75.6775 15.2907 75.4855 14.4907 75.4855 13.584C75.4855 12.688 75.6828 11.8933 76.0775 11.2C76.4722 10.5067 77.0108 9.97333 77.6935 9.6C78.3762 9.22667 79.1388 9.04 79.9815 9.04C80.8242 9.04 81.5868 9.22667 82.2695 9.6C82.9522 9.97333 83.4908 10.5067 83.8855 11.2C84.2802 11.8933 84.4775 12.688 84.4775 13.584C84.4775 14.48 84.2748 15.2747 83.8695 15.968C83.4642 16.6613 82.9095 17.2 82.2055 17.584C81.5122 17.9573 80.7442 18.144 79.9015 18.144ZM79.9015 16.56C80.3708 16.56 80.8082 16.448 81.2135 16.224C81.6295 16 81.9655 15.664 82.2215 15.216C82.4775 14.768 82.6055 14.224 82.6055 13.584C82.6055 12.944 82.4828 12.4053 82.2375 11.968C81.9922 11.52 81.6668 11.184 81.2615 10.96C80.8562 10.736 80.4188 10.624 79.9495 10.624C79.4802 10.624 79.0428 10.736 78.6375 10.96C78.2428 11.184 77.9282 11.52 77.6935 11.968C77.4588 12.4053 77.3415 12.944 77.3415 13.584C77.3415 14.5333 77.5815 15.2693 78.0615 15.792C78.5522 16.304 79.1655 16.56 79.9015 16.56ZM90.4086 9.04C91.102 9.04 91.7206 9.184 92.2646 9.472C92.8193 9.76 93.2513 10.1867 93.5606 10.752C93.87 11.3173 94.0246 12 94.0246 12.8V18H92.2166V13.072C92.2166 12.2827 92.0193 11.68 91.6246 11.264C91.23 10.8373 90.6913 10.624 90.0086 10.624C89.326 10.624 88.782 10.8373 88.3766 11.264C87.982 11.68 87.7846 12.2827 87.7846 13.072V18H85.9606V9.184H87.7846V10.192C88.0833 9.82933 88.462 9.54667 88.9206 9.344C89.39 9.14133 89.886 9.04 90.4086 9.04ZM100.796 8.016C100.465 8.016 100.188 7.904 99.9635 7.68C99.7395 7.456 99.6275 7.17867 99.6275 6.848C99.6275 6.51733 99.7395 6.24 99.9635 6.016C100.188 5.792 100.465 5.68 100.796 5.68C101.116 5.68 101.388 5.792 101.612 6.016C101.836 6.24 101.948 6.51733 101.948 6.848C101.948 7.17867 101.836 7.456 101.612 7.68C101.388 7.904 101.116 8.016 100.796 8.016ZM101.692 9.184V18H99.8675V9.184H101.692ZM106.966 18.144C106.273 18.144 105.649 18.0213 105.094 17.776C104.55 17.52 104.118 17.1787 103.798 16.752C103.478 16.3147 103.308 15.8293 103.286 15.296H105.174C105.206 15.6693 105.382 15.984 105.702 16.24C106.033 16.4853 106.444 16.608 106.934 16.608C107.446 16.608 107.841 16.512 108.118 16.32C108.406 16.1173 108.55 15.8613 108.55 15.552C108.55 15.2213 108.39 14.976 108.07 14.816C107.761 14.656 107.265 14.48 106.582 14.288C105.921 14.1067 105.382 13.9307 104.966 13.76C104.55 13.5893 104.188 13.328 103.878 12.976C103.58 12.624 103.43 12.16 103.43 11.584C103.43 11.1147 103.569 10.688 103.846 10.304C104.124 9.90933 104.518 9.6 105.03 9.376C105.553 9.152 106.15 9.04 106.822 9.04C107.825 9.04 108.63 9.296 109.238 9.808C109.857 10.3093 110.188 10.9973 110.23 11.872H108.406C108.374 11.4773 108.214 11.1627 107.926 10.928C107.638 10.6933 107.249 10.576 106.758 10.576C106.278 10.576 105.91 10.6667 105.654 10.848C105.398 11.0293 105.27 11.2693 105.27 11.568C105.27 11.8027 105.356 12 105.526 12.16C105.697 12.32 105.905 12.448 106.15 12.544C106.396 12.6293 106.758 12.7413 107.238 12.88C107.878 13.0507 108.401 13.2267 108.806 13.408C109.222 13.5787 109.58 13.8347 109.878 14.176C110.177 14.5173 110.332 14.9707 110.342 15.536C110.342 16.0373 110.204 16.4853 109.926 16.88C109.649 17.2747 109.254 17.584 108.742 17.808C108.241 18.032 107.649 18.144 106.966 18.144ZM117.957 10.672V15.552C117.957 15.8827 118.032 16.1227 118.181 16.272C118.341 16.4107 118.608 16.48 118.981 16.48H120.101V18H118.661C117.84 18 117.211 17.808 116.773 17.424C116.336 17.04 116.117 16.416 116.117 15.552V10.672H115.077V9.184H116.117V6.992H117.957V9.184H120.101V10.672H117.957ZM125.286 18.144C124.454 18.144 123.702 17.9573 123.03 17.584C122.358 17.2 121.83 16.6667 121.446 15.984C121.062 15.2907 120.87 14.4907 120.87 13.584C120.87 12.688 121.068 11.8933 121.462 11.2C121.857 10.5067 122.396 9.97333 123.078 9.6C123.761 9.22667 124.524 9.04 125.366 9.04C126.209 9.04 126.972 9.22667 127.654 9.6C128.337 9.97333 128.876 10.5067 129.27 11.2C129.665 11.8933 129.862 12.688 129.862 13.584C129.862 14.48 129.66 15.2747 129.254 15.968C128.849 16.6613 128.294 17.2 127.59 17.584C126.897 17.9573 126.129 18.144 125.286 18.144ZM125.286 16.56C125.756 16.56 126.193 16.448 126.598 16.224C127.014 16 127.35 15.664 127.606 15.216C127.862 14.768 127.99 14.224 127.99 13.584C127.99 12.944 127.868 12.4053 127.622 11.968C127.377 11.52 127.052 11.184 126.646 10.96C126.241 10.736 125.804 10.624 125.334 10.624C124.865 10.624 124.428 10.736 124.022 10.96C123.628 11.184 123.313 11.52 123.078 11.968C122.844 12.4053 122.726 12.944 122.726 13.584C122.726 14.5333 122.966 15.2693 123.446 15.792C123.937 16.304 124.55 16.56 125.286 16.56ZM137.006 10.48C137.315 10.0747 137.737 9.73333 138.27 9.456C138.803 9.17867 139.406 9.04 140.078 9.04C140.846 9.04 141.545 9.232 142.174 9.616C142.814 9.98933 143.315 10.5173 143.678 11.2C144.041 11.8827 144.222 12.6667 144.222 13.552C144.222 14.4373 144.041 15.232 143.678 15.936C143.315 16.6293 142.814 17.1733 142.174 17.568C141.545 17.952 140.846 18.144 140.078 18.144C139.406 18.144 138.809 18.0107 138.286 17.744C137.763 17.4667 137.337 17.1253 137.006 16.72V22.192H135.182V9.184H137.006V10.48ZM142.366 13.552C142.366 12.944 142.238 12.4213 141.982 11.984C141.737 11.536 141.406 11.2 140.99 10.976C140.585 10.7413 140.147 10.624 139.678 10.624C139.219 10.624 138.782 10.7413 138.366 10.976C137.961 11.2107 137.63 11.552 137.374 12C137.129 12.448 137.006 12.976 137.006 13.584C137.006 14.192 137.129 14.7253 137.374 15.184C137.63 15.632 137.961 15.9733 138.366 16.208C138.782 16.4427 139.219 16.56 139.678 16.56C140.147 16.56 140.585 16.4427 140.99 16.208C141.406 15.9627 141.737 15.6107 141.982 15.152C142.238 14.6933 142.366 14.16 142.366 13.552ZM147.53 10.464C147.796 10.016 148.148 9.66933 148.586 9.424C149.034 9.168 149.562 9.04 150.17 9.04V10.928H149.706C148.991 10.928 148.447 11.1093 148.074 11.472C147.711 11.8347 147.53 12.464 147.53 13.36V18H145.706V9.184H147.53V10.464ZM155.35 18.144C154.518 18.144 153.766 17.9573 153.094 17.584C152.422 17.2 151.894 16.6667 151.51 15.984C151.126 15.2907 150.934 14.4907 150.934 13.584C150.934 12.688 151.132 11.8933 151.526 11.2C151.921 10.5067 152.46 9.97333 153.142 9.6C153.825 9.22667 154.588 9.04 155.43 9.04C156.273 9.04 157.036 9.22667 157.718 9.6C158.401 9.97333 158.94 10.5067 159.334 11.2C159.729 11.8933 159.926 12.688 159.926 13.584C159.926 14.48 159.724 15.2747 159.318 15.968C158.913 16.6613 158.358 17.2 157.654 17.584C156.961 17.9573 156.193 18.144 155.35 18.144ZM155.35 16.56C155.82 16.56 156.257 16.448 156.662 16.224C157.078 16 157.414 15.664 157.67 15.216C157.926 14.768 158.054 14.224 158.054 13.584C158.054 12.944 157.932 12.4053 157.686 11.968C157.441 11.52 157.116 11.184 156.71 10.96C156.305 10.736 155.868 10.624 155.398 10.624C154.929 10.624 154.492 10.736 154.086 10.96C153.692 11.184 153.377 11.52 153.142 11.968C152.908 12.4053 152.79 12.944 152.79 13.584C152.79 14.5333 153.03 15.2693 153.51 15.792C154.001 16.304 154.614 16.56 155.35 16.56ZM164.817 16.368L167.313 9.184H169.249L165.889 18H163.713L160.369 9.184H162.321L164.817 16.368ZM171.236 8.016C170.905 8.016 170.628 7.904 170.404 7.68C170.18 7.456 170.068 7.17867 170.068 6.848C170.068 6.51733 170.18 6.24 170.404 6.016C170.628 5.792 170.905 5.68 171.236 5.68C171.556 5.68 171.828 5.792 172.052 6.016C172.276 6.24 172.388 6.51733 172.388 6.848C172.388 7.17867 172.276 7.456 172.052 7.68C171.828 7.904 171.556 8.016 171.236 8.016ZM172.132 9.184V18H170.308V9.184H172.132ZM173.599 13.552C173.599 12.6667 173.78 11.8827 174.143 11.2C174.516 10.5173 175.018 9.98933 175.647 9.616C176.287 9.232 176.996 9.04 177.775 9.04C178.351 9.04 178.916 9.168 179.471 9.424C180.036 9.66933 180.484 10 180.815 10.416V6.16H182.655V18H180.815V16.672C180.516 17.0987 180.1 17.4507 179.567 17.728C179.044 18.0053 178.442 18.144 177.759 18.144C176.991 18.144 176.287 17.952 175.647 17.568C175.018 17.1733 174.516 16.6293 174.143 15.936C173.78 15.232 173.599 14.4373 173.599 13.552ZM180.815 13.584C180.815 12.976 180.687 12.448 180.431 12C180.186 11.552 179.86 11.2107 179.455 10.976C179.05 10.7413 178.612 10.624 178.143 10.624C177.674 10.624 177.236 10.7413 176.831 10.976C176.426 11.2 176.095 11.536 175.839 11.984C175.594 12.4213 175.471 12.944 175.471 13.552C175.471 14.16 175.594 14.6933 175.839 15.152C176.095 15.6107 176.426 15.9627 176.831 16.208C177.247 16.4427 177.684 16.56 178.143 16.56C178.612 16.56 179.05 16.4427 179.455 16.208C179.86 15.9733 180.186 15.632 180.431 15.184C180.687 14.7253 180.815 14.192 180.815 13.584ZM192.811 13.376C192.811 13.7067 192.789 14.0053 192.747 14.272H186.011C186.064 14.976 186.325 15.5413 186.795 15.968C187.264 16.3947 187.84 16.608 188.523 16.608C189.504 16.608 190.197 16.1973 190.603 15.376H192.571C192.304 16.1867 191.819 16.8533 191.115 17.376C190.421 17.888 189.557 18.144 188.523 18.144C187.68 18.144 186.923 17.9573 186.251 17.584C185.589 17.2 185.067 16.6667 184.683 15.984C184.309 15.2907 184.123 14.4907 184.123 13.584C184.123 12.6773 184.304 11.8827 184.667 11.2C185.04 10.5067 185.557 9.97333 186.219 9.6C186.891 9.22667 187.659 9.04 188.523 9.04C189.355 9.04 190.096 9.22133 190.747 9.584C191.397 9.94667 191.904 10.4587 192.267 11.12C192.629 11.7707 192.811 12.5227 192.811 13.376ZM190.907 12.8C190.896 12.128 190.656 11.5893 190.187 11.184C189.717 10.7787 189.136 10.576 188.443 10.576C187.813 10.576 187.275 10.7787 186.827 11.184C186.379 11.5787 186.112 12.1173 186.027 12.8H190.907ZM197.514 13.584C197.514 12.6773 197.695 11.8827 198.058 11.2C198.431 10.5067 198.943 9.97333 199.594 9.6C200.245 9.22667 200.991 9.04 201.834 9.04C202.901 9.04 203.781 9.296 204.474 9.808C205.178 10.3093 205.653 11.0293 205.898 11.968H203.93C203.77 11.5307 203.514 11.1893 203.162 10.944C202.81 10.6987 202.367 10.576 201.834 10.576C201.087 10.576 200.49 10.8427 200.042 11.376C199.605 11.8987 199.386 12.6347 199.386 13.584C199.386 14.5333 199.605 15.2747 200.042 15.808C200.49 16.3413 201.087 16.608 201.834 16.608C202.89 16.608 203.589 16.144 203.93 15.216H205.898C205.642 16.112 205.162 16.8267 204.458 17.36C203.754 17.8827 202.879 18.144 201.834 18.144C200.991 18.144 200.245 17.9573 199.594 17.584C198.943 17.2 198.431 16.6667 198.058 15.984C197.695 15.2907 197.514 14.4907 197.514 13.584ZM211.22 18.144C210.388 18.144 209.636 17.9573 208.964 17.584C208.292 17.2 207.764 16.6667 207.38 15.984C206.996 15.2907 206.804 14.4907 206.804 13.584C206.804 12.688 207.001 11.8933 207.396 11.2C207.79 10.5067 208.329 9.97333 209.012 9.6C209.694 9.22667 210.457 9.04 211.3 9.04C212.142 9.04 212.905 9.22667 213.588 9.6C214.27 9.97333 214.809 10.5067 215.204 11.2C215.598 11.8933 215.796 12.688 215.796 13.584C215.796 14.48 215.593 15.2747 215.188 15.968C214.782 16.6613 214.228 17.2 213.524 17.584C212.83 17.9573 212.062 18.144 211.22 18.144ZM211.22 16.56C211.689 16.56 212.126 16.448 212.532 16.224C212.948 16 213.284 15.664 213.54 15.216C213.796 14.768 213.924 14.224 213.924 13.584C213.924 12.944 213.801 12.4053 213.556 11.968C213.31 11.52 212.985 11.184 212.58 10.96C212.174 10.736 211.737 10.624 211.268 10.624C210.798 10.624 210.361 10.736 209.956 10.96C209.561 11.184 209.246 11.52 209.012 11.968C208.777 12.4053 208.66 12.944 208.66 13.584C208.66 14.5333 208.9 15.2693 209.38 15.792C209.87 16.304 210.484 16.56 211.22 16.56ZM221.727 9.04C222.42 9.04 223.039 9.184 223.583 9.472C224.137 9.76 224.569 10.1867 224.879 10.752C225.188 11.3173 225.343 12 225.343 12.8V18H223.535V13.072C223.535 12.2827 223.337 11.68 222.943 11.264C222.548 10.8373 222.009 10.624 221.327 10.624C220.644 10.624 220.1 10.8373 219.695 11.264C219.3 11.68 219.103 12.2827 219.103 13.072V18H217.279V9.184H219.103V10.192C219.401 9.82933 219.78 9.54667 220.239 9.344C220.708 9.14133 221.204 9.04 221.727 9.04ZM230.757 16.368L233.253 9.184H235.189L231.829 18H229.653L226.309 9.184H228.261L230.757 16.368ZM244.328 13.376C244.328 13.7067 244.307 14.0053 244.264 14.272H237.528C237.581 14.976 237.843 15.5413 238.312 15.968C238.781 16.3947 239.357 16.608 240.04 16.608C241.021 16.608 241.715 16.1973 242.12 15.376H244.088C243.821 16.1867 243.336 16.8533 242.632 17.376C241.939 17.888 241.075 18.144 240.04 18.144C239.197 18.144 238.44 17.9573 237.768 17.584C237.107 17.2 236.584 16.6667 236.2 15.984C235.827 15.2907 235.64 14.4907 235.64 13.584C235.64 12.6773 235.821 11.8827 236.184 11.2C236.557 10.5067 237.075 9.97333 237.736 9.6C238.408 9.22667 239.176 9.04 240.04 9.04C240.872 9.04 241.613 9.22133 242.264 9.584C242.915 9.94667 243.421 10.4587 243.784 11.12C244.147 11.7707 244.328 12.5227 244.328 13.376ZM242.424 12.8C242.413 12.128 242.173 11.5893 241.704 11.184C241.235 10.7787 240.653 10.576 239.96 10.576C239.331 10.576 238.792 10.7787 238.344 11.184C237.896 11.5787 237.629 12.1173 237.544 12.8H242.424ZM250.251 9.04C250.944 9.04 251.563 9.184 252.107 9.472C252.662 9.76 253.094 10.1867 253.403 10.752C253.712 11.3173 253.867 12 253.867 12.8V18H252.059V13.072C252.059 12.2827 251.862 11.68 251.467 11.264C251.072 10.8373 250.534 10.624 249.851 10.624C249.168 10.624 248.624 10.8373 248.219 11.264C247.824 11.68 247.627 12.2827 247.627 13.072V18H245.803V9.184H247.627V10.192C247.926 9.82933 248.304 9.54667 248.763 9.344C249.232 9.14133 249.728 9.04 250.251 9.04ZM256.802 8.016C256.471 8.016 256.194 7.904 255.97 7.68C255.746 7.456 255.634 7.17867 255.634 6.848C255.634 6.51733 255.746 6.24 255.97 6.016C256.194 5.792 256.471 5.68 256.802 5.68C257.122 5.68 257.394 5.792 257.618 6.016C257.842 6.24 257.954 6.51733 257.954 6.848C257.954 7.17867 257.842 7.456 257.618 7.68C257.394 7.904 257.122 8.016 256.802 8.016ZM257.698 9.184V18H255.874V9.184H257.698ZM267.852 13.376C267.852 13.7067 267.831 14.0053 267.788 14.272H261.052C261.106 14.976 261.367 15.5413 261.836 15.968C262.306 16.3947 262.882 16.608 263.564 16.608C264.546 16.608 265.239 16.1973 265.644 15.376H267.612C267.346 16.1867 266.86 16.8533 266.156 17.376C265.463 17.888 264.599 18.144 263.564 18.144C262.722 18.144 261.964 17.9573 261.292 17.584C260.631 17.2 260.108 16.6667 259.724 15.984C259.351 15.2907 259.164 14.4907 259.164 13.584C259.164 12.6773 259.346 11.8827 259.708 11.2C260.082 10.5067 260.599 9.97333 261.26 9.6C261.932 9.22667 262.7 9.04 263.564 9.04C264.396 9.04 265.138 9.22133 265.788 9.584C266.439 9.94667 266.946 10.4587 267.308 11.12C267.671 11.7707 267.852 12.5227 267.852 13.376ZM265.948 12.8C265.938 12.128 265.698 11.5893 265.228 11.184C264.759 10.7787 264.178 10.576 263.484 10.576C262.855 10.576 262.316 10.7787 261.868 11.184C261.42 11.5787 261.154 12.1173 261.068 12.8H265.948ZM273.776 9.04C274.469 9.04 275.088 9.184 275.632 9.472C276.186 9.76 276.618 10.1867 276.928 10.752C277.237 11.3173 277.392 12 277.392 12.8V18H275.584V13.072C275.584 12.2827 275.386 11.68 274.992 11.264C274.597 10.8373 274.058 10.624 273.376 10.624C272.693 10.624 272.149 10.8373 271.744 11.264C271.349 11.68 271.152 12.2827 271.152 13.072V18H269.328V9.184H271.152V10.192C271.45 9.82933 271.829 9.54667 272.288 9.344C272.757 9.14133 273.253 9.04 273.776 9.04ZM278.79 13.584C278.79 12.6773 278.971 11.8827 279.334 11.2C279.707 10.5067 280.219 9.97333 280.87 9.6C281.521 9.22667 282.267 9.04 283.11 9.04C284.177 9.04 285.057 9.296 285.75 9.808C286.454 10.3093 286.929 11.0293 287.174 11.968H285.206C285.046 11.5307 284.79 11.1893 284.438 10.944C284.086 10.6987 283.643 10.576 283.11 10.576C282.363 10.576 281.766 10.8427 281.318 11.376C280.881 11.8987 280.662 12.6347 280.662 13.584C280.662 14.5333 280.881 15.2747 281.318 15.808C281.766 16.3413 282.363 16.608 283.11 16.608C284.166 16.608 284.865 16.144 285.206 15.216H287.174C286.918 16.112 286.438 16.8267 285.734 17.36C285.03 17.8827 284.155 18.144 283.11 18.144C282.267 18.144 281.521 17.9573 280.87 17.584C280.219 17.2 279.707 16.6667 279.334 15.984C278.971 15.2907 278.79 14.4907 278.79 13.584ZM296.752 13.376C296.752 13.7067 296.731 14.0053 296.688 14.272H289.952C290.005 14.976 290.267 15.5413 290.736 15.968C291.205 16.3947 291.781 16.608 292.464 16.608C293.445 16.608 294.139 16.1973 294.544 15.376H296.512C296.245 16.1867 295.76 16.8533 295.056 17.376C294.363 17.888 293.499 18.144 292.464 18.144C291.621 18.144 290.864 17.9573 290.192 17.584C289.531 17.2 289.008 16.6667 288.624 15.984C288.251 15.2907 288.064 14.4907 288.064 13.584C288.064 12.6773 288.245 11.8827 288.608 11.2C288.981 10.5067 289.499 9.97333 290.16 9.6C290.832 9.22667 291.6 9.04 292.464 9.04C293.296 9.04 294.037 9.22133 294.688 9.584C295.339 9.94667 295.845 10.4587 296.208 11.12C296.571 11.7707 296.752 12.5227 296.752 13.376ZM294.848 12.8C294.837 12.128 294.597 11.5893 294.128 11.184C293.659 10.7787 293.077 10.576 292.384 10.576C291.755 10.576 291.216 10.7787 290.768 11.184C290.32 11.5787 290.053 12.1173 289.968 12.8H294.848ZM18.592 37.552C18.592 36.6667 18.7733 35.8827 19.136 35.2C19.5093 34.5173 20.0107 33.9893 20.64 33.616C21.28 33.232 21.984 33.04 22.752 33.04C23.4453 33.04 24.048 33.1787 24.56 33.456C25.0827 33.7227 25.4987 34.0587 25.808 34.464V33.184H27.648V42H25.808V40.688C25.4987 41.104 25.0773 41.4507 24.544 41.728C24.0107 42.0053 23.4027 42.144 22.72 42.144C21.9627 42.144 21.2693 41.952 20.64 41.568C20.0107 41.1733 19.5093 40.6293 19.136 39.936C18.7733 39.232 18.592 38.4373 18.592 37.552ZM25.808 37.584C25.808 36.976 25.68 36.448 25.424 36C25.1787 35.552 24.8533 35.2107 24.448 34.976C24.0427 34.7413 23.6053 34.624 23.136 34.624C22.6667 34.624 22.2293 34.7413 21.824 34.976C21.4187 35.2 21.088 35.536 20.832 35.984C20.5867 36.4213 20.464 36.944 20.464 37.552C20.464 38.16 20.5867 38.6933 20.832 39.152C21.088 39.6107 21.4187 39.9627 21.824 40.208C22.24 40.4427 22.6773 40.56 23.136 40.56C23.6053 40.56 24.0427 40.4427 24.448 40.208C24.8533 39.9733 25.1787 39.632 25.424 39.184C25.68 38.7253 25.808 38.192 25.808 37.584ZM34.1718 33.04C34.8651 33.04 35.4838 33.184 36.0278 33.472C36.5824 33.76 37.0144 34.1867 37.3238 34.752C37.6331 35.3173 37.7878 36 37.7878 36.8V42H35.9798V37.072C35.9798 36.2827 35.7824 35.68 35.3878 35.264C34.9931 34.8373 34.4544 34.624 33.7718 34.624C33.0891 34.624 32.5451 34.8373 32.1398 35.264C31.7451 35.68 31.5478 36.2827 31.5478 37.072V42H29.7238V33.184H31.5478V34.192C31.8464 33.8293 32.2251 33.5467 32.6838 33.344C33.1531 33.1413 33.6491 33.04 34.1718 33.04ZM39.1864 37.552C39.1864 36.6667 39.3677 35.8827 39.7304 35.2C40.1037 34.5173 40.605 33.9893 41.2344 33.616C41.8744 33.232 42.5837 33.04 43.3624 33.04C43.9384 33.04 44.5037 33.168 45.0584 33.424C45.6237 33.6693 46.0717 34 46.4024 34.416V30.16H48.2424V42H46.4024V40.672C46.1037 41.0987 45.6877 41.4507 45.1544 41.728C44.6317 42.0053 44.029 42.144 43.3464 42.144C42.5784 42.144 41.8744 41.952 41.2344 41.568C40.605 41.1733 40.1037 40.6293 39.7304 39.936C39.3677 39.232 39.1864 38.4373 39.1864 37.552ZM46.4024 37.584C46.4024 36.976 46.2744 36.448 46.0184 36C45.773 35.552 45.4477 35.2107 45.0424 34.976C44.637 34.7413 44.1997 34.624 43.7304 34.624C43.261 34.624 42.8237 34.7413 42.4184 34.976C42.013 35.2 41.6824 35.536 41.4264 35.984C41.181 36.4213 41.0584 36.944 41.0584 37.552C41.0584 38.16 41.181 38.6933 41.4264 39.152C41.6824 39.6107 42.013 39.9627 42.4184 40.208C42.8344 40.4427 43.2717 40.56 43.7304 40.56C44.1997 40.56 44.637 40.4427 45.0424 40.208C45.4477 39.9733 45.773 39.632 46.0184 39.184C46.2744 38.7253 46.4024 38.192 46.4024 37.584ZM58.7144 33.04C59.3864 33.04 59.9837 33.184 60.5064 33.472C61.0397 33.76 61.4557 34.1867 61.7544 34.752C62.0637 35.3173 62.2184 36 62.2184 36.8V42H60.4104V37.072C60.4104 36.2827 60.213 35.68 59.8184 35.264C59.4237 34.8373 58.885 34.624 58.2024 34.624C57.5197 34.624 56.9757 34.8373 56.5704 35.264C56.1757 35.68 55.9784 36.2827 55.9784 37.072V42H54.1544V30.16H55.9784V34.208C56.2877 33.8347 56.677 33.5467 57.1464 33.344C57.6264 33.1413 58.149 33.04 58.7144 33.04ZM72.305 37.376C72.305 37.7067 72.2837 38.0053 72.241 38.272H65.505C65.5583 38.976 65.8197 39.5413 66.289 39.968C66.7583 40.3947 67.3343 40.608 68.017 40.608C68.9983 40.608 69.6917 40.1973 70.097 39.376H72.065C71.7983 40.1867 71.313 40.8533 70.609 41.376C69.9157 41.888 69.0517 42.144 68.017 42.144C67.1743 42.144 66.417 41.9573 65.745 41.584C65.0837 41.2 64.561 40.6667 64.177 39.984C63.8037 39.2907 63.617 38.4907 63.617 37.584C63.617 36.6773 63.7983 35.8827 64.161 35.2C64.5343 34.5067 65.0517 33.9733 65.713 33.6C66.385 33.2267 67.153 33.04 68.017 33.04C68.849 33.04 69.5903 33.2213 70.241 33.584C70.8917 33.9467 71.3983 34.4587 71.761 35.12C72.1237 35.7707 72.305 36.5227 72.305 37.376ZM70.401 36.8C70.3903 36.128 70.1503 35.5893 69.681 35.184C69.2117 34.7787 68.6303 34.576 67.937 34.576C67.3077 34.576 66.769 34.7787 66.321 35.184C65.873 35.5787 65.6063 36.1173 65.521 36.8H70.401ZM75.604 30.16V42H73.78V30.16H75.604ZM79.5027 34.48C79.8121 34.0747 80.2334 33.7333 80.7667 33.456C81.3001 33.1787 81.9027 33.04 82.5747 33.04C83.3427 33.04 84.0414 33.232 84.6707 33.616C85.3107 33.9893 85.8121 34.5173 86.1747 35.2C86.5374 35.8827 86.7187 36.6667 86.7187 37.552C86.7187 38.4373 86.5374 39.232 86.1747 39.936C85.8121 40.6293 85.3107 41.1733 84.6707 41.568C84.0414 41.952 83.3427 42.144 82.5747 42.144C81.9027 42.144 81.3054 42.0107 80.7827 41.744C80.2601 41.4667 79.8334 41.1253 79.5027 40.72V46.192H77.6787V33.184H79.5027V34.48ZM84.8627 37.552C84.8627 36.944 84.7347 36.4213 84.4787 35.984C84.2334 35.536 83.9027 35.2 83.4867 34.976C83.0814 34.7413 82.6441 34.624 82.1747 34.624C81.7161 34.624 81.2787 34.7413 80.8627 34.976C80.4574 35.2107 80.1267 35.552 79.8707 36C79.6254 36.448 79.5027 36.976 79.5027 37.584C79.5027 38.192 79.6254 38.7253 79.8707 39.184C80.1267 39.632 80.4574 39.9733 80.8627 40.208C81.2787 40.4427 81.7161 40.56 82.1747 40.56C82.6441 40.56 83.0814 40.4427 83.4867 40.208C83.9027 39.9627 84.2334 39.6107 84.4787 39.152C84.7347 38.6933 84.8627 38.16 84.8627 37.552ZM92.9668 32.016C92.6361 32.016 92.3588 31.904 92.1348 31.68C91.9108 31.456 91.7988 31.1787 91.7988 30.848C91.7988 30.5173 91.9108 30.24 92.1348 30.016C92.3588 29.792 92.6361 29.68 92.9668 29.68C93.2868 29.68 93.5588 29.792 93.7828 30.016C94.0068 30.24 94.1188 30.5173 94.1188 30.848C94.1188 31.1787 94.0068 31.456 93.7828 31.68C93.5588 31.904 93.2868 32.016 92.9668 32.016ZM93.8628 33.184V42H92.0388V33.184H93.8628ZM100.386 33.04C101.079 33.04 101.698 33.184 102.242 33.472C102.796 33.76 103.228 34.1867 103.538 34.752C103.847 35.3173 104.002 36 104.002 36.8V42H102.194V37.072C102.194 36.2827 101.996 35.68 101.602 35.264C101.207 34.8373 100.668 34.624 99.9855 34.624C99.3028 34.624 98.7588 34.8373 98.3535 35.264C97.9588 35.68 97.7615 36.2827 97.7615 37.072V42H95.9375V33.184H97.7615V34.192C98.0602 33.8293 98.4388 33.5467 98.8975 33.344C99.3668 33.1413 99.8628 33.04 100.386 33.04ZM105.4 37.584C105.4 36.6773 105.581 35.8827 105.944 35.2C106.317 34.5067 106.829 33.9733 107.48 33.6C108.131 33.2267 108.877 33.04 109.72 33.04C110.787 33.04 111.667 33.296 112.36 33.808C113.064 34.3093 113.539 35.0293 113.784 35.968H111.816C111.656 35.5307 111.4 35.1893 111.048 34.944C110.696 34.6987 110.253 34.576 109.72 34.576C108.973 34.576 108.376 34.8427 107.928 35.376C107.491 35.8987 107.272 36.6347 107.272 37.584C107.272 38.5333 107.491 39.2747 107.928 39.808C108.376 40.3413 108.973 40.608 109.72 40.608C110.776 40.608 111.475 40.144 111.816 39.216H113.784C113.528 40.112 113.048 40.8267 112.344 41.36C111.64 41.8827 110.765 42.144 109.72 42.144C108.877 42.144 108.131 41.9573 107.48 41.584C106.829 41.2 106.317 40.6667 105.944 39.984C105.581 39.2907 105.4 38.4907 105.4 37.584ZM117.106 34.464C117.373 34.016 117.725 33.6693 118.162 33.424C118.61 33.168 119.138 33.04 119.746 33.04V34.928H119.282C118.567 34.928 118.023 35.1093 117.65 35.472C117.287 35.8347 117.106 36.464 117.106 37.36V42H115.282V33.184H117.106V34.464ZM129.182 37.376C129.182 37.7067 129.161 38.0053 129.118 38.272H122.382C122.436 38.976 122.697 39.5413 123.166 39.968C123.636 40.3947 124.212 40.608 124.894 40.608C125.876 40.608 126.569 40.1973 126.974 39.376H128.942C128.676 40.1867 128.19 40.8533 127.486 41.376C126.793 41.888 125.929 42.144 124.894 42.144C124.052 42.144 123.294 41.9573 122.622 41.584C121.961 41.2 121.438 40.6667 121.054 39.984C120.681 39.2907 120.494 38.4907 120.494 37.584C120.494 36.6773 120.676 35.8827 121.038 35.2C121.412 34.5067 121.929 33.9733 122.59 33.6C123.262 33.2267 124.03 33.04 124.894 33.04C125.726 33.04 126.468 33.2213 127.118 33.584C127.769 33.9467 128.276 34.4587 128.638 35.12C129.001 35.7707 129.182 36.5227 129.182 37.376ZM127.278 36.8C127.268 36.128 127.028 35.5893 126.558 35.184C126.089 34.7787 125.508 34.576 124.814 34.576C124.185 34.576 123.646 34.7787 123.198 35.184C122.75 35.5787 122.484 36.1173 122.398 36.8H127.278ZM130.049 37.552C130.049 36.6667 130.231 35.8827 130.593 35.2C130.967 34.5173 131.468 33.9893 132.097 33.616C132.737 33.232 133.441 33.04 134.209 33.04C134.903 33.04 135.505 33.1787 136.017 33.456C136.54 33.7227 136.956 34.0587 137.265 34.464V33.184H139.105V42H137.265V40.688C136.956 41.104 136.535 41.4507 136.001 41.728C135.468 42.0053 134.86 42.144 134.177 42.144C133.42 42.144 132.727 41.952 132.097 41.568C131.468 41.1733 130.967 40.6293 130.593 39.936C130.231 39.232 130.049 38.4373 130.049 37.552ZM137.265 37.584C137.265 36.976 137.137 36.448 136.881 36C136.636 35.552 136.311 35.2107 135.905 34.976C135.5 34.7413 135.063 34.624 134.593 34.624C134.124 34.624 133.687 34.7413 133.281 34.976C132.876 35.2 132.545 35.536 132.289 35.984C132.044 36.4213 131.921 36.944 131.921 37.552C131.921 38.16 132.044 38.6933 132.289 39.152C132.545 39.6107 132.876 39.9627 133.281 40.208C133.697 40.4427 134.135 40.56 134.593 40.56C135.063 40.56 135.5 40.4427 135.905 40.208C136.311 39.9733 136.636 39.632 136.881 39.184C137.137 38.7253 137.265 38.192 137.265 37.584ZM144.381 42.144C143.688 42.144 143.064 42.0213 142.509 41.776C141.965 41.52 141.533 41.1787 141.213 40.752C140.893 40.3147 140.723 39.8293 140.701 39.296H142.589C142.621 39.6693 142.797 39.984 143.117 40.24C143.448 40.4853 143.859 40.608 144.349 40.608C144.861 40.608 145.256 40.512 145.533 40.32C145.821 40.1173 145.965 39.8613 145.965 39.552C145.965 39.2213 145.805 38.976 145.485 38.816C145.176 38.656 144.68 38.48 143.997 38.288C143.336 38.1067 142.797 37.9307 142.381 37.76C141.965 37.5893 141.603 37.328 141.293 36.976C140.995 36.624 140.845 36.16 140.845 35.584C140.845 35.1147 140.984 34.688 141.261 34.304C141.539 33.9093 141.933 33.6 142.445 33.376C142.968 33.152 143.565 33.04 144.237 33.04C145.24 33.04 146.045 33.296 146.653 33.808C147.272 34.3093 147.603 34.9973 147.645 35.872H145.821C145.789 35.4773 145.629 35.1627 145.341 34.928C145.053 34.6933 144.664 34.576 144.173 34.576C143.693 34.576 143.325 34.6667 143.069 34.848C142.813 35.0293 142.685 35.2693 142.685 35.568C142.685 35.8027 142.771 36 142.941 36.16C143.112 36.32 143.32 36.448 143.565 36.544C143.811 36.6293 144.173 36.7413 144.653 36.88C145.293 37.0507 145.816 37.2267 146.221 37.408C146.637 37.5787 146.995 37.8347 147.293 38.176C147.592 38.5173 147.747 38.9707 147.757 39.536C147.757 40.0373 147.619 40.4853 147.341 40.88C147.064 41.2747 146.669 41.584 146.157 41.808C145.656 42.032 145.064 42.144 144.381 42.144ZM157.488 37.376C157.488 37.7067 157.467 38.0053 157.424 38.272H150.688C150.741 38.976 151.003 39.5413 151.472 39.968C151.941 40.3947 152.517 40.608 153.2 40.608C154.181 40.608 154.875 40.1973 155.28 39.376H157.248C156.981 40.1867 156.496 40.8533 155.792 41.376C155.099 41.888 154.235 42.144 153.2 42.144C152.357 42.144 151.6 41.9573 150.928 41.584C150.267 41.2 149.744 40.6667 149.36 39.984C148.987 39.2907 148.8 38.4907 148.8 37.584C148.8 36.6773 148.981 35.8827 149.344 35.2C149.717 34.5067 150.235 33.9733 150.896 33.6C151.568 33.2267 152.336 33.04 153.2 33.04C154.032 33.04 154.773 33.2213 155.424 33.584C156.075 33.9467 156.581 34.4587 156.944 35.12C157.307 35.7707 157.488 36.5227 157.488 37.376ZM155.584 36.8C155.573 36.128 155.333 35.5893 154.864 35.184C154.395 34.7787 153.813 34.576 153.12 34.576C152.491 34.576 151.952 34.7787 151.504 35.184C151.056 35.5787 150.789 36.1173 150.704 36.8H155.584ZM170.735 33.184L165.327 46.144H163.439L165.231 41.856L161.759 33.184H163.791L166.271 39.904L168.847 33.184H170.735ZM175.616 42.144C174.784 42.144 174.032 41.9573 173.36 41.584C172.688 41.2 172.16 40.6667 171.776 39.984C171.392 39.2907 171.2 38.4907 171.2 37.584C171.2 36.688 171.397 35.8933 171.792 35.2C172.187 34.5067 172.725 33.9733 173.408 33.6C174.091 33.2267 174.853 33.04 175.696 33.04C176.539 33.04 177.301 33.2267 177.984 33.6C178.667 33.9733 179.205 34.5067 179.6 35.2C179.995 35.8933 180.192 36.688 180.192 37.584C180.192 38.48 179.989 39.2747 179.584 39.968C179.179 40.6613 178.624 41.2 177.92 41.584C177.227 41.9573 176.459 42.144 175.616 42.144ZM175.616 40.56C176.085 40.56 176.523 40.448 176.928 40.224C177.344 40 177.68 39.664 177.936 39.216C178.192 38.768 178.32 38.224 178.32 37.584C178.32 36.944 178.197 36.4053 177.952 35.968C177.707 35.52 177.381 35.184 176.976 34.96C176.571 34.736 176.133 34.624 175.664 34.624C175.195 34.624 174.757 34.736 174.352 34.96C173.957 35.184 173.643 35.52 173.408 35.968C173.173 36.4053 173.056 36.944 173.056 37.584C173.056 38.5333 173.296 39.2693 173.776 39.792C174.267 40.304 174.88 40.56 175.616 40.56ZM189.659 33.184V42H187.835V40.96C187.547 41.3227 187.168 41.6107 186.699 41.824C186.24 42.0267 185.75 42.128 185.227 42.128C184.534 42.128 183.91 41.984 183.355 41.696C182.811 41.408 182.379 40.9813 182.059 40.416C181.75 39.8507 181.595 39.168 181.595 38.368V33.184H183.403V38.096C183.403 38.8853 183.6 39.4933 183.995 39.92C184.39 40.336 184.928 40.544 185.611 40.544C186.294 40.544 186.832 40.336 187.227 39.92C187.632 39.4933 187.835 38.8853 187.835 38.096V33.184H189.659ZM193.57 34.464C193.836 34.016 194.188 33.6693 194.626 33.424C195.074 33.168 195.602 33.04 196.21 33.04V34.928H195.746C195.031 34.928 194.487 35.1093 194.114 35.472C193.751 35.8347 193.57 36.464 193.57 37.36V42H191.746V33.184H193.57V34.464ZM204.602 42.144C203.909 42.144 203.285 42.0213 202.73 41.776C202.186 41.52 201.754 41.1787 201.434 40.752C201.114 40.3147 200.944 39.8293 200.922 39.296H202.81C202.842 39.6693 203.018 39.984 203.338 40.24C203.669 40.4853 204.08 40.608 204.57 40.608C205.082 40.608 205.477 40.512 205.754 40.32C206.042 40.1173 206.186 39.8613 206.186 39.552C206.186 39.2213 206.026 38.976 205.706 38.816C205.397 38.656 204.901 38.48 204.218 38.288C203.557 38.1067 203.018 37.9307 202.602 37.76C202.186 37.5893 201.824 37.328 201.514 36.976C201.216 36.624 201.066 36.16 201.066 35.584C201.066 35.1147 201.205 34.688 201.482 34.304C201.76 33.9093 202.154 33.6 202.666 33.376C203.189 33.152 203.786 33.04 204.458 33.04C205.461 33.04 206.266 33.296 206.874 33.808C207.493 34.3093 207.824 34.9973 207.866 35.872H206.042C206.01 35.4773 205.85 35.1627 205.562 34.928C205.274 34.6933 204.885 34.576 204.394 34.576C203.914 34.576 203.546 34.6667 203.29 34.848C203.034 35.0293 202.906 35.2693 202.906 35.568C202.906 35.8027 202.992 36 203.162 36.16C203.333 36.32 203.541 36.448 203.786 36.544C204.032 36.6293 204.394 36.7413 204.874 36.88C205.514 37.0507 206.037 37.2267 206.442 37.408C206.858 37.5787 207.216 37.8347 207.514 38.176C207.813 38.5173 207.968 38.9707 207.978 39.536C207.978 40.0373 207.84 40.4853 207.562 40.88C207.285 41.2747 206.89 41.584 206.378 41.808C205.877 42.032 205.285 42.144 204.602 42.144ZM209.021 37.552C209.021 36.6667 209.203 35.8827 209.565 35.2C209.939 34.5173 210.44 33.9893 211.069 33.616C211.709 33.232 212.413 33.04 213.181 33.04C213.875 33.04 214.477 33.1787 214.989 33.456C215.512 33.7227 215.928 34.0587 216.237 34.464V33.184H218.077V42H216.237V40.688C215.928 41.104 215.507 41.4507 214.973 41.728C214.44 42.0053 213.832 42.144 213.149 42.144C212.392 42.144 211.699 41.952 211.069 41.568C210.44 41.1733 209.939 40.6293 209.565 39.936C209.203 39.232 209.021 38.4373 209.021 37.552ZM216.237 37.584C216.237 36.976 216.109 36.448 215.853 36C215.608 35.552 215.283 35.2107 214.877 34.976C214.472 34.7413 214.035 34.624 213.565 34.624C213.096 34.624 212.659 34.7413 212.253 34.976C211.848 35.2 211.517 35.536 211.261 35.984C211.016 36.4213 210.893 36.944 210.893 37.552C210.893 38.16 211.016 38.6933 211.261 39.152C211.517 39.6107 211.848 39.9627 212.253 40.208C212.669 40.4427 213.107 40.56 213.565 40.56C214.035 40.56 214.472 40.4427 214.877 40.208C215.283 39.9733 215.608 39.632 215.853 39.184C216.109 38.7253 216.237 38.192 216.237 37.584ZM221.977 30.16V42H220.153V30.16H221.977ZM232.132 37.376C232.132 37.7067 232.111 38.0053 232.068 38.272H225.332C225.385 38.976 225.647 39.5413 226.116 39.968C226.585 40.3947 227.161 40.608 227.844 40.608C228.825 40.608 229.519 40.1973 229.924 39.376H231.892C231.625 40.1867 231.14 40.8533 230.436 41.376C229.743 41.888 228.879 42.144 227.844 42.144C227.001 42.144 226.244 41.9573 225.572 41.584C224.911 41.2 224.388 40.6667 224.004 39.984C223.631 39.2907 223.444 38.4907 223.444 37.584C223.444 36.6773 223.625 35.8827 223.988 35.2C224.361 34.5067 224.879 33.9733 225.54 33.6C226.212 33.2267 226.98 33.04 227.844 33.04C228.676 33.04 229.417 33.2213 230.068 33.584C230.719 33.9467 231.225 34.4587 231.588 35.12C231.951 35.7707 232.132 36.5227 232.132 37.376ZM230.228 36.8C230.217 36.128 229.977 35.5893 229.508 35.184C229.039 34.7787 228.457 34.576 227.764 34.576C227.135 34.576 226.596 34.7787 226.148 35.184C225.7 35.5787 225.433 36.1173 225.348 36.8H230.228ZM236.807 42.144C236.114 42.144 235.49 42.0213 234.935 41.776C234.391 41.52 233.959 41.1787 233.639 40.752C233.319 40.3147 233.148 39.8293 233.127 39.296H235.015C235.047 39.6693 235.223 39.984 235.543 40.24C235.874 40.4853 236.284 40.608 236.775 40.608C237.287 40.608 237.682 40.512 237.959 40.32C238.247 40.1173 238.391 39.8613 238.391 39.552C238.391 39.2213 238.231 38.976 237.911 38.816C237.602 38.656 237.106 38.48 236.423 38.288C235.762 38.1067 235.223 37.9307 234.807 37.76C234.391 37.5893 234.028 37.328 233.719 36.976C233.42 36.624 233.271 36.16 233.271 35.584C233.271 35.1147 233.41 34.688 233.687 34.304C233.964 33.9093 234.359 33.6 234.871 33.376C235.394 33.152 235.991 33.04 236.663 33.04C237.666 33.04 238.471 33.296 239.079 33.808C239.698 34.3093 240.028 34.9973 240.071 35.872H238.247C238.215 35.4773 238.055 35.1627 237.767 34.928C237.479 34.6933 237.09 34.576 236.599 34.576C236.119 34.576 235.751 34.6667 235.495 34.848C235.239 35.0293 235.111 35.2693 235.111 35.568C235.111 35.8027 235.196 36 235.367 36.16C235.538 36.32 235.746 36.448 235.991 36.544C236.236 36.6293 236.599 36.7413 237.079 36.88C237.719 37.0507 238.242 37.2267 238.647 37.408C239.063 37.5787 239.42 37.8347 239.719 38.176C240.018 38.5173 240.172 38.9707 240.183 39.536C240.183 40.0373 240.044 40.4853 239.767 40.88C239.49 41.2747 239.095 41.584 238.583 41.808C238.082 42.032 237.49 42.144 236.807 42.144ZM21.024 58.496C21.3333 58.0693 21.7547 57.7227 22.288 57.456C22.832 57.1787 23.4347 57.04 24.096 57.04C24.8747 57.04 25.5787 57.2267 26.208 57.6C26.8373 57.9733 27.3333 58.5067 27.696 59.2C28.0587 59.8827 28.24 60.6667 28.24 61.552C28.24 62.4373 28.0587 63.232 27.696 63.936C27.3333 64.6293 26.832 65.1733 26.192 65.568C25.5627 65.952 24.864 66.144 24.096 66.144C23.4133 66.144 22.8053 66.0107 22.272 65.744C21.7493 65.4773 21.3333 65.136 21.024 64.72V66H19.2V54.16H21.024V58.496ZM26.384 61.552C26.384 60.944 26.256 60.4213 26 59.984C25.7547 59.536 25.424 59.2 25.008 58.976C24.6027 58.7413 24.1653 58.624 23.696 58.624C23.2373 58.624 22.8 58.7413 22.384 58.976C21.9787 59.2107 21.648 59.552 21.392 60C21.1467 60.448 21.024 60.976 21.024 61.584C21.024 62.192 21.1467 62.7253 21.392 63.184C21.648 63.632 21.9787 63.9733 22.384 64.208C22.8 64.4427 23.2373 64.56 23.696 64.56C24.1653 64.56 24.6027 64.4427 25.008 64.208C25.424 63.9627 25.7547 63.6107 26 63.152C26.256 62.6933 26.384 62.16 26.384 61.552ZM37.7078 57.184V66H35.8838V64.96C35.5958 65.3227 35.2171 65.6107 34.7478 65.824C34.2891 66.0267 33.7984 66.128 33.2758 66.128C32.5824 66.128 31.9584 65.984 31.4038 65.696C30.8598 65.408 30.4278 64.9813 30.1078 64.416C29.7984 63.8507 29.6438 63.168 29.6438 62.368V57.184H31.4518V62.096C31.4518 62.8853 31.6491 63.4933 32.0438 63.92C32.4384 64.336 32.9771 64.544 33.6598 64.544C34.3424 64.544 34.8811 64.336 35.2758 63.92C35.6811 63.4933 35.8838 62.8853 35.8838 62.096V57.184H37.7078ZM42.9944 66.144C42.301 66.144 41.677 66.0213 41.1224 65.776C40.5784 65.52 40.1464 65.1787 39.8264 64.752C39.5064 64.3147 39.3357 63.8293 39.3144 63.296H41.2024C41.2344 63.6693 41.4104 63.984 41.7304 64.24C42.061 64.4853 42.4717 64.608 42.9624 64.608C43.4744 64.608 43.869 64.512 44.1464 64.32C44.4344 64.1173 44.5784 63.8613 44.5784 63.552C44.5784 63.2213 44.4184 62.976 44.0984 62.816C43.789 62.656 43.293 62.48 42.6104 62.288C41.949 62.1067 41.4104 61.9307 40.9944 61.76C40.5784 61.5893 40.2157 61.328 39.9064 60.976C39.6077 60.624 39.4584 60.16 39.4584 59.584C39.4584 59.1147 39.597 58.688 39.8744 58.304C40.1517 57.9093 40.5464 57.6 41.0584 57.376C41.581 57.152 42.1784 57.04 42.8504 57.04C43.853 57.04 44.6584 57.296 45.2664 57.808C45.885 58.3093 46.2157 58.9973 46.2584 59.872H44.4344C44.4024 59.4773 44.2424 59.1627 43.9544 58.928C43.6664 58.6933 43.277 58.576 42.7864 58.576C42.3064 58.576 41.9384 58.6667 41.6824 58.848C41.4264 59.0293 41.2984 59.2693 41.2984 59.568C41.2984 59.8027 41.3837 60 41.5544 60.16C41.725 60.32 41.933 60.448 42.1784 60.544C42.4237 60.6293 42.7864 60.7413 43.2664 60.88C43.9064 61.0507 44.429 61.2267 44.8344 61.408C45.2504 61.5787 45.6077 61.8347 45.9064 62.176C46.205 62.5173 46.3597 62.9707 46.3704 63.536C46.3704 64.0373 46.2317 64.4853 45.9544 64.88C45.677 65.2747 45.2824 65.584 44.7704 65.808C44.269 66.032 43.677 66.144 42.9944 66.144ZM48.9493 56.016C48.6186 56.016 48.3413 55.904 48.1173 55.68C47.8933 55.456 47.7813 55.1787 47.7813 54.848C47.7813 54.5173 47.8933 54.24 48.1173 54.016C48.3413 53.792 48.6186 53.68 48.9493 53.68C49.2693 53.68 49.5413 53.792 49.7653 54.016C49.9893 54.24 50.1013 54.5173 50.1013 54.848C50.1013 55.1787 49.9893 55.456 49.7653 55.68C49.5413 55.904 49.2693 56.016 48.9493 56.016ZM49.8453 57.184V66H48.0213V57.184H49.8453ZM56.368 57.04C57.0613 57.04 57.68 57.184 58.224 57.472C58.7787 57.76 59.2107 58.1867 59.52 58.752C59.8293 59.3173 59.984 60 59.984 60.8V66H58.176V61.072C58.176 60.2827 57.9787 59.68 57.584 59.264C57.1893 58.8373 56.6507 58.624 55.968 58.624C55.2853 58.624 54.7413 58.8373 54.336 59.264C53.9413 59.68 53.744 60.2827 53.744 61.072V66H51.92V57.184H53.744V58.192C54.0427 57.8293 54.4213 57.5467 54.88 57.344C55.3493 57.1413 55.8453 57.04 56.368 57.04ZM70.0706 61.376C70.0706 61.7067 70.0493 62.0053 70.0066 62.272H63.2706C63.324 62.976 63.5853 63.5413 64.0546 63.968C64.524 64.3947 65.1 64.608 65.7826 64.608C66.764 64.608 67.4573 64.1973 67.8626 63.376H69.8306C69.564 64.1867 69.0786 64.8533 68.3746 65.376C67.6813 65.888 66.8173 66.144 65.7826 66.144C64.94 66.144 64.1826 65.9573 63.5106 65.584C62.8493 65.2 62.3266 64.6667 61.9426 63.984C61.5693 63.2907 61.3826 62.4907 61.3826 61.584C61.3826 60.6773 61.564 59.8827 61.9266 59.2C62.3 58.5067 62.8173 57.9733 63.4786 57.6C64.1506 57.2267 64.9186 57.04 65.7826 57.04C66.6146 57.04 67.356 57.2213 68.0066 57.584C68.6573 57.9467 69.164 58.4587 69.5266 59.12C69.8893 59.7707 70.0706 60.5227 70.0706 61.376ZM68.1666 60.8C68.156 60.128 67.916 59.5893 67.4466 59.184C66.9773 58.7787 66.396 58.576 65.7026 58.576C65.0733 58.576 64.5346 58.7787 64.0866 59.184C63.6386 59.5787 63.372 60.1173 63.2866 60.8H68.1666ZM74.7456 66.144C74.0523 66.144 73.4283 66.0213 72.8736 65.776C72.3296 65.52 71.8976 65.1787 71.5776 64.752C71.2576 64.3147 71.087 63.8293 71.0656 63.296H72.9536C72.9856 63.6693 73.1616 63.984 73.4816 64.24C73.8123 64.4853 74.223 64.608 74.7136 64.608C75.2256 64.608 75.6203 64.512 75.8976 64.32C76.1856 64.1173 76.3296 63.8613 76.3296 63.552C76.3296 63.2213 76.1696 62.976 75.8496 62.816C75.5403 62.656 75.0443 62.48 74.3616 62.288C73.7003 62.1067 73.1616 61.9307 72.7456 61.76C72.3296 61.5893 71.967 61.328 71.6576 60.976C71.359 60.624 71.2096 60.16 71.2096 59.584C71.2096 59.1147 71.3483 58.688 71.6256 58.304C71.903 57.9093 72.2976 57.6 72.8096 57.376C73.3323 57.152 73.9296 57.04 74.6016 57.04C75.6043 57.04 76.4096 57.296 77.0176 57.808C77.6363 58.3093 77.967 58.9973 78.0096 59.872H76.1856C76.1536 59.4773 75.9936 59.1627 75.7056 58.928C75.4176 58.6933 75.0283 58.576 74.5376 58.576C74.0576 58.576 73.6896 58.6667 73.4336 58.848C73.1776 59.0293 73.0496 59.2693 73.0496 59.568C73.0496 59.8027 73.135 60 73.3056 60.16C73.4763 60.32 73.6843 60.448 73.9296 60.544C74.175 60.6293 74.5376 60.7413 75.0176 60.88C75.6576 61.0507 76.1803 61.2267 76.5856 61.408C77.0016 61.5787 77.359 61.8347 77.6576 62.176C77.9563 62.5173 78.111 62.9707 78.1216 63.536C78.1216 64.0373 77.983 64.4853 77.7056 64.88C77.4283 65.2747 77.0336 65.584 76.5216 65.808C76.0203 66.032 75.4283 66.144 74.7456 66.144ZM82.9725 66.144C82.2792 66.144 81.6552 66.0213 81.1005 65.776C80.5565 65.52 80.1245 65.1787 79.8045 64.752C79.4845 64.3147 79.3138 63.8293 79.2925 63.296H81.1805C81.2125 63.6693 81.3885 63.984 81.7085 64.24C82.0392 64.4853 82.4498 64.608 82.9405 64.608C83.4525 64.608 83.8472 64.512 84.1245 64.32C84.4125 64.1173 84.5565 63.8613 84.5565 63.552C84.5565 63.2213 84.3965 62.976 84.0765 62.816C83.7672 62.656 83.2712 62.48 82.5885 62.288C81.9272 62.1067 81.3885 61.9307 80.9725 61.76C80.5565 61.5893 80.1938 61.328 79.8845 60.976C79.5858 60.624 79.4365 60.16 79.4365 59.584C79.4365 59.1147 79.5752 58.688 79.8525 58.304C80.1298 57.9093 80.5245 57.6 81.0365 57.376C81.5592 57.152 82.1565 57.04 82.8285 57.04C83.8312 57.04 84.6365 57.296 85.2445 57.808C85.8632 58.3093 86.1938 58.9973 86.2365 59.872H84.4125C84.3805 59.4773 84.2205 59.1627 83.9325 58.928C83.6445 58.6933 83.2552 58.576 82.7645 58.576C82.2845 58.576 81.9165 58.6667 81.6605 58.848C81.4045 59.0293 81.2765 59.2693 81.2765 59.568C81.2765 59.8027 81.3618 60 81.5325 60.16C81.7032 60.32 81.9112 60.448 82.1565 60.544C82.4018 60.6293 82.7645 60.7413 83.2445 60.88C83.8845 61.0507 84.4072 61.2267 84.8125 61.408C85.2285 61.5787 85.5858 61.8347 85.8845 62.176C86.1832 62.5173 86.3378 62.9707 86.3485 63.536C86.3485 64.0373 86.2098 64.4853 85.9325 64.88C85.6552 65.2747 85.2605 65.584 84.7485 65.808C84.2472 66.032 83.6552 66.144 82.9725 66.144ZM88.7354 66.112C88.4047 66.112 88.1274 66 87.9034 65.776C87.6794 65.552 87.5674 65.2747 87.5674 64.944C87.5674 64.6133 87.6794 64.336 87.9034 64.112C88.1274 63.888 88.4047 63.776 88.7354 63.776C89.0554 63.776 89.3274 63.888 89.5514 64.112C89.7754 64.336 89.8874 64.6133 89.8874 64.944C89.8874 65.2747 89.7754 65.552 89.5514 65.776C89.3274 66 89.0554 66.112 88.7354 66.112Z" fill="#1A202C"/>
<g filter="url(#filter0_d_379_919)">
<circle cx="34.7999" cy="94.7999" r="16.7999" fill="#1A202C"/>
</g>
<path d="M34.8 78C25.5215 78 18 85.5215 18 94.8C18 104.079 25.5215 111.6 34.8 111.6C44.0785 111.6 51.6 104.079 51.6 94.8C51.6 85.5215 44.0785 78 34.8 78ZM38.7795 89.6095H36.2543C35.955 89.6095 35.6225 90.0033 35.6225 90.5265V92.35H38.7813L38.3035 94.9505H35.6225V102.757H32.6423V94.9505H29.9385V92.35H32.6423V90.8205C32.6423 88.626 34.1648 86.8428 36.2543 86.8428H38.7795V89.6095Z" fill="white"/>
<g filter="url(#filter1_d_379_919)">
<circle cx="88.3996" cy="94.7999" r="16.7999" fill="#1A202C"/>
</g>
<path d="M88.3996 78C79.1211 78 71.5996 85.5215 71.5996 94.8C71.5996 104.079 79.1211 111.6 88.3996 111.6C97.6781 111.6 105.2 104.079 105.2 94.8C105.2 85.5215 97.6781 78 88.3996 78ZM95.2334 91.762C95.2404 91.9055 95.2421 92.049 95.2421 92.189C95.2421 96.564 91.9154 101.606 85.8289 101.606C84.0304 101.609 82.2693 101.092 80.7574 100.118C81.0146 100.15 81.2789 100.162 81.5466 100.162C83.0971 100.162 84.5234 99.6353 85.6556 98.7463C84.9656 98.7327 84.297 98.5042 83.7431 98.0927C83.1891 97.6811 82.7773 97.107 82.5651 96.4503C83.0606 96.5445 83.5711 96.5247 84.0579 96.3925C83.3089 96.2411 82.6355 95.8353 82.1516 95.2439C81.6677 94.6526 81.4033 93.9121 81.4031 93.148V93.1078C81.8494 93.3545 82.3604 93.505 82.9029 93.5225C82.2008 93.0551 81.7037 92.3372 81.5134 91.5155C81.3231 90.6938 81.454 89.8304 81.8791 89.102C82.7103 90.124 83.7468 90.9601 84.9216 91.556C86.0964 92.152 87.3833 92.4947 88.6989 92.5618C88.5316 91.8518 88.6036 91.1065 88.9036 90.4416C89.2037 89.7768 89.7149 89.2297 90.358 88.8855C91.001 88.5412 91.7398 88.419 92.4594 88.5379C93.1791 88.6568 93.8393 89.0102 94.3374 89.543C95.0779 89.3965 95.7881 89.1248 96.4374 88.7398C96.1905 89.5065 95.6738 90.1576 94.9831 90.572C95.6391 90.493 96.2796 90.3166 96.8836 90.0488C96.44 90.7136 95.8811 91.2938 95.2334 91.762Z" fill="white"/>
<g filter="url(#filter2_d_379_919)">
<circle cx="141.999" cy="94.7999" r="16.7999" fill="#1A202C"/>
</g>
<path d="M147.249 94.8C147.249 96.1924 146.696 97.5277 145.712 98.5123C144.727 99.4969 143.392 100.05 141.999 100.05C140.607 100.05 139.271 99.4969 138.287 98.5123C137.302 97.5277 136.749 96.1924 136.749 94.8C136.749 94.5008 136.781 94.2085 136.835 93.925H134.999V100.92C134.999 101.406 135.393 101.8 135.879 101.8H148.121C148.354 101.8 148.577 101.707 148.742 101.542C148.907 101.377 148.999 101.153 148.999 100.92V93.925H147.163C147.218 94.2085 147.249 94.5008 147.249 94.8ZM141.999 98.3C142.459 98.2999 142.914 98.2092 143.339 98.0332C143.764 97.8571 144.149 97.5992 144.474 97.274C144.799 96.9488 145.057 96.5628 145.233 96.138C145.409 95.7133 145.499 95.258 145.499 94.7983C145.499 94.3385 145.408 93.8833 145.232 93.4586C145.056 93.0339 144.798 92.648 144.473 92.323C144.148 91.998 143.762 91.7402 143.337 91.5644C142.912 91.3886 142.457 91.2981 141.997 91.2983C141.069 91.2985 140.179 91.6675 139.522 92.3243C138.866 92.981 138.497 93.8715 138.497 94.8C138.498 95.7285 138.867 96.6189 139.523 97.2752C140.18 97.9316 141.071 98.3002 141.999 98.3ZM146.199 91.125H148.297C148.437 91.125 148.571 91.0697 148.669 90.9713C148.768 90.8729 148.824 90.7394 148.824 90.6V88.5018C148.824 88.362 148.769 88.2281 148.67 88.1293C148.571 88.0305 148.437 87.975 148.297 87.975H146.199C146.06 87.975 145.926 88.0305 145.827 88.1293C145.728 88.2281 145.672 88.362 145.672 88.5018V90.6C145.674 90.8888 145.91 91.125 146.199 91.125ZM141.999 78C137.544 78 133.27 79.77 130.12 82.9206C126.969 86.0712 125.199 90.3444 125.199 94.8C125.199 99.2556 126.969 103.529 130.12 106.679C133.27 109.83 137.544 111.6 141.999 111.6C144.205 111.6 146.39 111.165 148.428 110.321C150.467 109.477 152.319 108.239 153.879 106.679C155.439 105.119 156.676 103.267 157.52 101.229C158.365 99.1908 158.799 97.0062 158.799 94.8C158.799 92.5938 158.365 90.4092 157.52 88.3709C156.676 86.3326 155.439 84.4806 153.879 82.9206C152.319 81.3606 150.467 80.1231 148.428 79.2788C146.39 78.4345 144.205 78 141.999 78ZM150.749 101.606C150.749 102.675 149.874 103.55 148.805 103.55H135.193C134.124 103.55 133.249 102.675 133.249 101.606V87.9943C133.249 86.925 134.124 86.05 135.193 86.05H148.805C149.874 86.05 150.749 86.925 150.749 87.9943V101.606Z" fill="white"/>
<defs>
<filter id="filter0_d_379_919" x="0" y="73" width="69.5996" height="69.5996" filterUnits="userSpaceOnUse" color-interpolation-filters="sRGB">
<feFlood flood-opacity="0" result="BackgroundImageFix"/>
<feColorMatrix in="SourceAlpha" type="matrix" values="0 0 0 0 0 0 0 0 0 0 0 0 0 0 0 0 0 0 127 0" result="hardAlpha"/>
<feOffset dy="13"/>
<feGaussianBlur stdDeviation="9"/>
<feColorMatrix type="matrix" values="0 0 0 0 0.0658854 0 0 0 0 0.0730469 0 0 0 0 0.1375 0 0 0 0.08 0"/>
<feBlend mode="normal" in2="BackgroundImageFix" result="effect1_dropShadow_379_919"/>
<feBlend mode="normal" in="SourceGraphic" in2="effect1_dropShadow_379_919" result="shape"/>
</filter>
<filter id="filter1_d_379_919" x="53.5996" y="73" width="69.5996" height="69.5996" filterUnits="userSpaceOnUse" color-interpolation-filters="sRGB">
<feFlood flood-opacity="0" result="BackgroundImageFix"/>
<feColorMatrix in="SourceAlpha" type="matrix" values="0 0 0 0 0 0 0 0 0 0 0 0 0 0 0 0 0 0 127 0" result="hardAlpha"/>
<feOffset dy="13"/>
<feGaussianBlur stdDeviation="9"/>
<feColorMatrix type="matrix" values="0 0 0 0 0.0658854 0 0 0 0 0.0730469 0 0 0 0 0.1375 0 0 0 0.08 0"/>
<feBlend mode="normal" in2="BackgroundImageFix" result="effect1_dropShadow_379_919"/>
<feBlend mode="normal" in="SourceGraphic" in2="effect1_dropShadow_379_919" result="shape"/>
</filter>
<filter id="filter2_d_379_919" x="107.199" y="73" width="69.5996" height="69.5996" filterUnits="userSpaceOnUse" color-interpolation-filters="sRGB">
<feFlood flood-opacity="0" result="BackgroundImageFix"/>
<feColorMatrix in="SourceAlpha" type="matrix" values="0 0 0 0 0 0 0 0 0 0 0 0 0 0 0 0 0 0 127 0" result="hardAlpha"/>
<feOffset dy="13"/>
<feGaussianBlur stdDeviation="9"/>
<feColorMatrix type="matrix" values="0 0 0 0 0.0658854 0 0 0 0 0.0730469 0 0 0 0 0.1375 0 0 0 0.08 0"/>
<feBlend mode="normal" in2="BackgroundImageFix" result="effect1_dropShadow_379_919"/>
<feBlend mode="normal" in="SourceGraphic" in2="effect1_dropShadow_379_919" result="shape"/>
</filter>
</defs>
</svg>
